<?xml version="1.0" encoding="UTF-8"?>
<svg id="Layer_1" data-name="Layer 1" xmlns="http://www.w3.org/2000/svg" viewBox="0 0 3659.75 1439.5">
  <defs>
    <style>
      .cls-1 {
        fill: #ff000f;
        stroke-width: 0px;
      }
    </style>
  </defs>
  <path class="cls-1" d="M3096.63,736.39c2.95-.13,5.64-.35,8.34-.35,149.65-.02,299.31,0,448.96-.11,5.21,0,8.76,1.38,12.04,5.61,47.93,61.87,78.58,131.21,89.72,208.76,8.24,57.36,3.75,113.83-12.13,169.71-12.01,42.28-27.95,82.69-50.74,120.29-29.04,47.91-64.88,89.75-110.72,122.54-25.16,18-52.65,31.23-81.88,41.35-38.83,13.45-78.6,22.36-119.28,27.81-59.13,7.93-118.54,8.06-178.01,7.05-1.5-.03-2.99-.12-4.48-.26-.47-.04-.91-.35-1.36-.54-1.51-5.32-2.12-688.24-.48-701.87Z"/>
  <path class="cls-1" d="M1975.75,1439.03v-701.93c1.75-.37,3.35-.88,4.99-1.01,2.24-.18,4.49-.07,6.74-.07,147.67,0,295.35.05,443.02-.14,7.33,0,12.47,1.93,17.41,7.53,27.9,31.63,49.19,67.18,64.48,106.4,14.87,38.17,23.9,77.67,26.95,118.52,9.68,129.72-30.84,241.83-118.99,336.99-28.91,31.21-61.99,57.28-100.2,76.31-45.43,22.62-93.36,37.57-143.46,45.83-61.86,10.2-124.2,12.11-186.7,11.57-4.46-.04-8.91,0-14.23,0Z"/>
  <path class="cls-1" d="M702.72,736.02v410.65c-15.95.18-31.58.06-47.21.09-15.74.02-31.48,0-47.22,0h-142.23c-36.36,97.42-72.62,194.56-108.85,291.63H0c1.06-3.41,1.83-6.22,2.81-8.95,35.97-100,71.97-200,107.95-300,45.95-127.7,91.86-255.41,137.9-383.07,4.16-11.53,1.39-10.33,14.5-10.33,142.91-.03,285.82-.02,428.73-.02,3.44,0,6.88,0,10.83,0Z"/>
  <path class="cls-1" d="M1437.01,1438.86h-357.25c-.5,0-1,0-1.5,0q-7.4-.05-9.8-7.21c-20.98-63.22-41.94-126.45-62.92-189.68-9.9-29.83-19.82-59.65-29.74-89.47-.54-1.64-1.23-3.23-2.13-5.56h-241.43c-1.93-6.12-2.67-396.18-.91-410.29,2.65-.19,5.52-.58,8.38-.58,22.24-.05,44.48-.03,66.71-.03,119.68,0,239.37,0,359.05,0,1.75,0,3.5-.01,5.25,0q7.38.07,10,7.16c84.62,229.4,169.24,458.79,253.84,688.19.75,2.04,1.36,4.14,2.45,7.48Z"/>
  <path class="cls-1" d="M1950.06,1438.32h-416.46c0-233.86,0-467.44,0-701.02,5.54-1.8,408.82-2.06,416.46-.16v701.17Z"/>
  <path class="cls-1" d="M1949.46,706.2h-415.93V4.91c5.45-1.69,405.89-2.22,415.65-.6,1.68,5.55,2.04,693.32.28,701.89Z"/>
  <path class="cls-1" d="M3069.49,1438.33h-414.73v-701.86h414.73v701.86Z"/>
  <path class="cls-1" d="M3069.41,4.66v700.83c-5.78,1.49-406.54,1.73-414.6.19V4.91c5.88-1.77,406.7-2.04,414.6-.25Z"/>
  <path class="cls-1" d="M3096.29,3.98c2.18-.43,3.85-.95,5.55-1.05,38.93-2.32,77.86-3.33,116.83-.85,33.97,2.17,67.54,6.78,100.47,15.52,46.16,12.25,88.69,31.85,125.61,62.66,24.6,20.53,44.86,44.74,61.47,72.05,14.04,23.09,26.47,46.93,34.54,72.89,8.26,26.58,13.3,53.69,15.3,81.46,3.02,41.76-.85,82.78-12.53,122.98-12.67,43.59-35.14,81.96-63.67,116.93-21.24,26.04-45.49,49.05-72.02,69.66-1.15.89-2.18,1.92-4.22,3.72,4,1.83,7.29,3.36,10.6,4.85,30.88,13.88,60.18,30.41,86.3,52.1,9.4,7.8,18.05,16.51,26.99,24.85,1.18,1.1,2.07,2.51,3.63,4.45h-434.85V3.98Z"/>
  <path class="cls-1" d="M1976.32,3.63c2.04-.28,4.22-.73,6.42-.87,37.17-2.44,74.36-3.93,111.58-1.56,48.29,3.07,95.7,10.8,141.1,28.32,64.45,24.87,114.62,66.53,150.66,125.72,21.44,35.21,37.01,72.4,44.1,112.96,12.8,73.15,6.78,144.29-24.67,212.27-13.95,30.15-33.5,56.69-55.73,81.24-18.85,20.81-39.74,39.35-62.98,55.18-1,.68-1.86,1.55-3.68,3.09,3,2.06,5.42,4.08,8.15,5.53,11.45,6.09,22.78,12.51,34.57,17.88,15.34,6.99,29.49,15.46,42.07,26.82,11.67,10.54,24.09,20.25,36.16,30.35,1.82,1.52,3.52,3.19,6.27,5.7h-433.61c-1.55-5.11-2.04-692.91-.41-702.63Z"/>
  <path class="cls-1" d="M702.28,706.45h-446.01c-.4-.37-.62-.5-.72-.68-.11-.21-.18-.5-.14-.73.18-.98.3-1.98.62-2.92C334.63,470.08,413.24,238.04,491.87,6c.23-.68.81-1.24,1.42-2.16h208.62c1.63,5.81,2,693.54.36,702.6Z"/>
  <path class="cls-1" d="M1175.22,706.36h-443.03c-.3-.26-.5-.41-.67-.59-.16-.17-.39-.36-.43-.57-.18-.98-.43-1.96-.43-2.95-.02-231.25-.02-462.51,0-693.76,0-1.22.26-2.44.39-3.56,5.44-1.79,198.29-2.4,209.63-.61,78.04,233.57,156.19,467.5,234.55,702.04Z"/>
</svg>