<?xml version="1.0" encoding="UTF-8"?>
<svg id="Layer_1" data-name="Layer 1" xmlns="http://www.w3.org/2000/svg" viewBox="0 0 3586.26 1421.51">
  <defs>
    <style>
      .cls-1 {
        fill: #d90025;
        stroke-width: 0px;
      }
    </style>
  </defs>
  <path class="cls-1" d="M0,1372.46c17.11-10.37,38.52-17.14,50.7-31.65,199.6-237.77,398.13-476.44,596.71-715.06,150.8-181.21,301.69-362.36,451.56-544.34,18.38-22.32,30.72-49.62,49.36-80.39-.18,0,9.01-.91,18.21-.91,520.79-.07,1041.59-.22,1562.38.07,104.94.06,207.75,103.26,208.42,207.26.42,65.35-35.22,112.39-80.26,153.14-80.96,73.24-175.77,126.53-279.93,153.63-145.2,37.78-293.36,64.57-440.87,92.86-60.55,11.61-122.84,13.95-183.97,22.94-8.9,1.31-22.58,16.18-22.63,24.86-1.33,208.88-1.86,417.78-.66,626.66.31,54.07,40.61,90.56,94.51,92.76,10.33.42,20.65.95,33.19,1.53v42.71h-677.4v-44.32c14.01,0,25.45.52,36.83-.09,50.18-2.71,89.98-39.27,90.24-89.23,1.06-205.5.3-411.02.06-616.53,0-3.25-1.92-6.5-4.41-14.37-68.45,12.16-137.95,20.77-205.48,37.37-102.84,25.28-205.87,51.64-305.71,86.46-49.14,17.14-95.22,49.57-135.82,83.34-94.46,78.57-179.3,167.18-245.93,271.42-62.18,97.29-16.51,210.36,96.29,240.46,4.32,1.15,8.7,2.1,14.5,3.49v44.98H0c0-16.35,0-32.7,0-49.06ZM1080.32,610.6c37.22-12.07,64.3-22.72,92.3-29.63,197.77-48.81,400.58-61.37,602.1-83.78,142.33-15.83,284.76-32.93,425.85-57.04,95.4-16.3,188.11-47.71,266.01-109.31,94.49-74.72,84.38-153.29-25.33-200.5-127.82-55-259.43-52.14-390.87-17.57-97.72,25.71-121.72,61.38-121.71,162,0,50.76,0,101.51,0,152.9-143.39,11.39-280.97,22.32-422.65,33.58V98.06c-3.08-2.11-6.16-4.23-9.24-6.34-10.94,9.43-23.74,17.4-32.53,28.52-77.39,97.89-154.08,196.34-230.96,294.64-49.41,63.18-98.78,126.38-152.97,195.72Z"/>
  <path class="cls-1" d="M2904.38,1418.39c.73-16,1.3-28.34,1.93-42.14,12.08-.78,21.14-1.58,30.21-1.92,60.1-2.25,97.52-39.35,97.98-100.06.78-103.93.24-207.87.24-311.8,0-265.09,0-530.19,0-795.28,0-87.61-27.13-116.06-115.61-121.52-3.29-.2-6.51-1.64-12.87-3.34-.57-11.94-1.15-24.27-1.87-39.51h680.9v40.91c-10.21.78-20.26,1.9-30.33,2.27-60.72,2.24-97.39,38.54-97.87,99.73-.77,98.09-.23,196.19-.23,294.29,0,265.09,0,530.19,0,795.28,0,110.66,15.98,128.8,127.41,142.01.65,5.92,1.79,12.44,1.97,18.99.18,6.74-.58,13.51-1.02,22.1h-680.84Z"/>
</svg>