<?xml version="1.0" encoding="UTF-8"?>
<svg id="Layer_1" data-name="Layer 1" xmlns="http://www.w3.org/2000/svg" xmlns:xlink="http://www.w3.org/1999/xlink" viewBox="0 0 2865.58 520.64">
  <defs>
    <style>
      .cls-1 {
        fill: url(#linear-gradient);
      }

      .cls-1, .cls-2, .cls-3, .cls-4, .cls-5 {
        stroke-width: 0px;
      }

      .cls-2 {
        fill: #212427;
      }

      .cls-3 {
        fill: url(#linear-gradient-2);
      }

      .cls-4 {
        fill: #0a6aab;
      }

      .cls-5 {
        fill: url(#linear-gradient-3);
      }
    </style>
    <linearGradient id="linear-gradient" x1="-3947.32" y1="4415.58" x2="-3797.46" y2="4415.58" gradientTransform="translate(-3989.32 3947.32) rotate(90) scale(1 -1)" gradientUnits="userSpaceOnUse">
      <stop offset=".14" stop-color="#442e7e"/>
      <stop offset=".48" stop-color="#61428d"/>
      <stop offset=".75" stop-color="#b66f9f"/>
    </linearGradient>
    <linearGradient id="linear-gradient-2" x1="-3947.32" y1="4176.2" x2="-3509.29" y2="4176.2" gradientTransform="translate(-3989.32 3947.32) rotate(90) scale(1 -1)" gradientUnits="userSpaceOnUse">
      <stop offset="0" stop-color="#f4e674"/>
      <stop offset="0" stop-color="#f3e372"/>
      <stop offset=".1" stop-color="#f0be57"/>
      <stop offset=".19" stop-color="#eea042"/>
      <stop offset=".28" stop-color="#ec8b33"/>
      <stop offset=".37" stop-color="#eb7e2a"/>
      <stop offset=".45" stop-color="#eb7a27"/>
      <stop offset=".55" stop-color="#e16d2c"/>
      <stop offset=".72" stop-color="#c74b3a"/>
      <stop offset=".83" stop-color="#b63444"/>
      <stop offset="1" stop-color="#6f457c"/>
    </linearGradient>
    <linearGradient id="linear-gradient-3" x1="-3886.09" y1="4229.62" x2="-3426.68" y2="4229.62" gradientTransform="translate(-3989.32 3947.32) rotate(90) scale(1 -1)" gradientUnits="userSpaceOnUse">
      <stop offset="0" stop-color="#2e5598"/>
      <stop offset=".47" stop-color="#4475b1"/>
      <stop offset="1" stop-color="#4eb8df"/>
    </linearGradient>
  </defs>
  <g>
    <path class="cls-2" d="M1495.05,165.93l105.07,5.12c43.63,0,74.35,26.49,74.35,65.81,0,27.34-16.59,48.06-42.09,58.2l47.62,88.48-49.77-1.31-42.09-81.03h-48.54v82.33h-44.55v-217.62ZM1539.59,205.19v59.47h56.53c19.97,0,33.18-9.11,33.18-26.32s-13.25-28.23-33.18-28.88l-56.53-4.27Z"/>
    <path class="cls-2" d="M1785.07,220.41c47.93,0,85.41,36.56,85.41,83.26s-37.48,82.95-85.41,82.95-85.41-36.25-85.41-82.95,37.48-83.26,85.41-83.26ZM1829.3,303.67c0-26.42-19.35-46.7-44.24-46.7s-44.24,20.28-44.24,46.7,19.36,46.39,44.24,46.39,44.24-20.58,44.24-46.39Z"/>
    <path class="cls-2" d="M2200.44,220.41c47.93,0,85.41,36.56,85.41,83.26s-37.48,82.95-85.41,82.95-85.41-36.25-85.41-82.95,37.48-83.26,85.41-83.26ZM2244.68,303.67c0-26.42-19.35-46.7-44.24-46.7s-44.24,20.28-44.24,46.7,19.36,46.39,44.24,46.39,44.24-20.58,44.24-46.39Z"/>
    <path class="cls-2" d="M2341.15,258.82h-32.87v-35.33h32.87v-40.86l42.09-7.36v48.23h45.47v35.33h-45.47v70.97c0,15.05,5.84,20.58,22.12,20.58,7.98,0,14.13-.92,22.43-3.69v34.41c-8.91,2.77-23.35,4.92-32.57,4.92-35.64,0-54.07-16.28-54.07-47.62v-79.57Z"/>
    <path class="cls-2" d="M2461.89,180.48c0-13.21,10.75-23.96,23.96-23.96s23.96,10.75,23.96,23.96-10.75,23.96-23.96,23.96-23.96-10.75-23.96-23.96ZM2507.06,383.55h-42.09v-152.52l42.09-7.54v160.06Z"/>
    <path class="cls-2" d="M2671.73,331.94l25.19,26.11c-16.59,18.12-40.55,28.57-65.13,28.57-47.31,0-83.87-36.25-83.87-82.95s36.56-83.26,83.87-83.26c25.5,0,49.77,10.45,66.36,28.57l-25.81,27.34c-11.68-12.9-24.58-19.36-39.63-19.36-24.27,0-43.01,20.28-43.01,46.7s19.05,46.08,43.93,46.08c14.44,0,26.73-5.53,38.09-17.82Z"/>
    <path class="cls-2" d="M2743,336.54c18.74,12.29,35.02,18.13,51.92,18.13,18.74,0,31.03-6.76,31.03-16.9,0-8.3-6.14-12.9-19.97-15.06l-30.72-4.61c-31.64-4.92-48.54-20.59-48.54-46.39,0-31.03,25.81-50.69,66.66-50.69,23.35,0,45.78,6.76,65.75,19.97l-20.28,27.04c-17.51-10.45-33.18-15.36-49.46-15.36-15.36,0-25.19,6.15-25.19,15.67,0,8.6,6.14,12.9,21.81,15.05l30.72,4.61c31.34,4.61,48.85,20.89,48.85,45.78,0,30.11-29.8,52.84-70.05,52.84-29.18,0-55.3-7.68-73.43-22.12l20.89-27.96Z"/>
    <path class="cls-2" d="M1997.67,384.09c-15.97,0-31.34-4.61-44.24-12.9v10.75h-41.48v-215.06l42.09-6v73.59c12.59-9.53,28.26-14.75,44.85-14.75,45.47,0,81.41,36.25,81.41,82.34s-36.25,82.03-82.64,82.03ZM1954.04,270.72v62.98c9.22,9.22,23.04,14.75,38.09,14.75,26.42,0,46.7-19.97,46.7-46.39s-20.58-46.39-46.7-46.39c-15.36,0-28.57,5.22-38.09,15.05Z"/>
  </g>
  <g>
    <path class="cls-2" d="M614.03,172.05l49.25,10.9,84.1,197.6h-46.49l-21.02-54.49h-85.58l-21.32,54.49-44.71-2.42,85.78-206.07ZM666.84,291.7l-29.32-76.4-29.91,76.4h59.23Z"/>
    <path class="cls-2" d="M1069.13,176.96c41.54,1.02,67.59,21.97,67.59,55.25,0,17.81-8.02,34.9-23.5,44.54,19.56,9.34,29.7,24.37,29.7,44.52,0,35.62-26.19,59.27-69.12,59.27h-100.73v-208.42l96.06,4.84ZM1015.4,206.35v54.13h51.1c18.1,0,28.17-10.17,28.17-25.06s-10.12-22.4-28.17-24.23l-51.1-4.84ZM1101.9,318.93c0-15.77-11.75-24.67-31.31-24.67h-55.18v52.88l55.18-1.65c19.56,0,31.31-10.22,31.31-26.57Z"/>
    <path class="cls-2" d="M845.39,384.09c-56.59,0-92.81-36.22-92.81-93.71v-117.22l43.41,9.43v107.78c0,32.63,19.46,53.59,49.7,53.59s49.1-20.96,49.1-53.59v-112.13l43.41,9.43v102.7c0,57.18-36.52,93.71-92.81,93.71Z"/>
    <path class="cls-2" d="M1275.52,382.99c-61.64,0-111.82-46.52-111.82-106.67s50.18-106.67,111.82-106.67,112.12,46.52,112.12,106.67-50.18,106.67-112.12,106.67ZM1275.52,209.25c-37.22,0-67.45,28.36-67.45,67.07s30.23,67.07,67.45,67.07,67.75-28.66,67.75-67.07-30.23-67.07-67.75-67.07Z"/>
  </g>
  <g>
    <path class="cls-1" d="M403.65,71.4l.17-16.51,45.07,25.22-.17,16.5-45.08-25.21M371.92,89.32l108.67,60.54-.04-88.63L371.99,0l-.07,89.32Z"/>
    <polygon class="cls-4" points="303.08 520.63 303.08 430.35 373.76 347.77 373.76 438.03 303.08 520.63 303.08 520.63"/>
    <path class="cls-3" d="M63.92,219.55L340.81,56.93v15.23L89.85,219.55l250.96,147.37v15.24L63.92,219.55M0,219.55l373.76,218.49v-90.26l-219.99-128.22,218.15-130.23.07-89.32L0,219.55h0Z"/>
    <path class="cls-5" d="M63.84,342.6L448.18,116.12v15.54L89.97,342.71l180.74,106.15v15.23l-206.87-121.49M0,342.65l303.08,178v-90.31l-149.31-87.69,326.82-192.79-.04-88.63L0,342.65h0Z"/>
  </g>
</svg>