<?xml version="1.0" encoding="UTF-8"?>
<svg id="Layer_1" data-name="Layer 1" xmlns="http://www.w3.org/2000/svg" viewBox="0 0 1891.59 404.08">
  <defs>
    <style>
      .cls-1 {
        fill: #00457e;
      }

      .cls-1, .cls-2 {
        stroke-width: 0px;
      }

      .cls-2 {
        fill: #f89e24;
      }
    </style>
  </defs>
  <path class="cls-2" d="M1767.44,55.55c-23.95-23.78-55.29-26.38-55.29-26.38-62.24,26.57-124.8,64.46-124.8,64.46,0,0,93.74-42.28,190.19-22.61,0,0-5.41-10.81-10.09-15.46"/>
  <path class="cls-1" d="M1884.02,27.26c-27.48-41.45-101.67-27.09-149.28-12.45,13.64,3.73,89.19,10.05,61.79,124.84-16.26,68.18-65.16,148.44-63.03,152.46,2.94,5.55,198.49-192.39,150.51-264.85"/>
  <path class="cls-1" d="M222.01,344.27c-6.87,7.28-18.24,8.27-28.46,8.27H54.48v-58.53h121.94c30.29,0,40.3,5.92,43.6,9.48l1.18,1.12c1.22,1.11,7.47,7.26,7.47,20.94,0,10.91-5.07,17.1-6.66,18.72M54.48,207.19c0-12.08,10.64-13.57,20.4-13.57h106.71c15.46,0,22.26,2.31,25.18,4.18,4.61,3,9.58,9.94,9.58,20.24,0,4.72-.77,10.96-6.49,16.32-8.03,7.42-20.65,8.05-31.83,8.05H54.48v-35.22ZM445.84,143.03h-21.76c-23.1,0-24.84,3.48-32.03,18.66-14.87,31.39-46.34,87.51-72.62,140.75,14.11-11.13,36.57-22.54,69.98-24.36l34.35-62.32,39.27,78.53h-77.74l.1-.18c-46.01,3.8-68.81,27.42-76.55,37.64-17.93,36.13-31.25,62.97-31.25,62.97,0,0-5.36,9.13,6.07,9.13h47.93l20.02-40.59s8.89-18.7,31.98-18.7h104.57s17.65,34.78,22.78,45.02c3.97,7.92,6.83,14.27,21.5,14.27h8.89c13.42,0,25.1.03,35.56.03l-131.04-260.85ZM599.27,356.18c33.41-.06,84.27-.13,103.82-.13,2.05,0,4.57-.02,7.42-.14,20.41-.61,68.33.88,72.89-25.71.31-1.63.57-2.86.46-4.15-.88-10.46-5.82-29.09-76.14-32.29-38.71-1.61-66.21-2.86-89.62-11.72-28.2-10.56-42.93-30.24-43.8-58.52l-.21-2.48c0-48.18,39.66-75.09,111.02-78.17,4.03-.13,8.15-.27,12.39-.27l5.05.06,2.13-.06c33.04,0,65.43.18,121.13.31v32.96c0,17.75-20.61,16.22-20.61,16.22-45.65-.09-74.89-.17-96.13-.17-1.97,0-4.54.04-7.39.14l-2.92-.16c-3.33,0-8.06.07-13.56.43-21.25,1.22-55.39,4.32-55.39,24.7,0,1.56.14,2.92.42,4.19,1.92,7.61,10.29,17.26,68.62,19.79l3.46.16c39.51,1.53,70.72,7.2,95.4,17.86,28.75,12.35,43.28,34.5,43.28,65.74,0,1.56-.04,3.29-.13,5.09v.6l-.35,2.76c-2.68,28.84-16.75,68.06-119.53,70.54l-.46.29-3.34-.1-3.88.1c-35.61,0-71.26-.18-113.68-.25,0,.03-16.75-33.83-16.75-33.83,0,0-5.99-13.73,16.39-13.82ZM911.33,333.62v-174.16c0-12.81-17.29-16.47-17.29-16.47h-37.25v260.83h204.03s16.95,2.2,16.95-17.99v-33.28h-145.18c-24.76,0-21.27-18.92-21.27-18.92ZM1151.14,293.39h168.69c14.44,0,12.97-12.66,12.97-12.66v-38.64h-181.66v-34.22c0-12.07,10.6-13.56,20.33-13.56h6.72l4.55-.06h150.15s14.84.84,14.84-14.06v-37.22h-226.67c-26.26,0-24.46,18.11-24.46,18.11v242.71h246.53s13.99.77,13.99-14.13v-37.14h-205.97v-59.15ZM1433.87,250.19v-41.58s-1.96-14.65,17.64-14.65h102.97c11.15,0,21.72,0,29.3,5.86,4.19,3.08,9.07,10.41,9.07,20.8,0,7.73-2.59,15.34-6.76,19.81-8.41,9.07-24.22,9.76-45.48,9.76h-106.74ZM1586,298.24c11.76-2.58,24.09-7.12,34.8-15.43,6.63-5.23,12.11-11.45,16.49-18.46.27-.48.6-.98.88-1.47,7.01-11.87,10.75-25.95,10.75-41.3,0-28.7-14.14-54.65-37.08-67.83-19.53-10.77-41.76-10.77-58-10.77h-153.61c-19.56,0-20.58,15.35-20.58,15.35v245.48h40.14s14.08.28,14.08-16.47v-85.51h66.9s1.04-.03,2.68.15c.49.01,5.31.1,12.44.12l70.98,80.77.11-.04c5.1,5.79,8.51,9.64,8.51,9.64,0,0,9.28,11.55,29.16,11.34h55.04l-93.68-105.56ZM253.94,263.81c1.45-1.53,2.92-3.23,4.32-5.05,8.64-11.52,13.61-26.95,13.61-42.34,0-21.84-9.51-42.09-25.84-55.39-21.31-18.04-45.42-18.04-64.78-18.04H27.81c-24.92,0-27.81,17.61-27.81,17.61v243.22h194.22c26.78,0,47.69-5.85,62.22-17.43,17.18-13.79,27.04-36.08,27.04-61.15s-10.93-47.96-29.54-61.43Z"/>
</svg>