<?xml version="1.0" encoding="UTF-8"?>
<svg id="Layer_1" data-name="Layer 1" xmlns="http://www.w3.org/2000/svg" viewBox="0 0 250.48 30.81">
  <defs>
    <style>
      .cls-1 {
        stroke-width: 0px;
      }
    </style>
  </defs>
  <path class="cls-1" d="M61.92.02c2.78,0,5.57-.07,8.35.02,1.69.06,3.4.21,5.05.57,4.54.97,6.91,3.76,7.21,8.39.12,1.8.08,3.61.09,5.42,0,2.24,0,4.48-.05,6.72-.02.83-.13,1.66-.31,2.47-.88,4.06-3.64,6.08-7.55,6.74-1.49.25-3.02.41-4.53.42-5.53.05-11.07.07-16.6,0-1.79-.03-3.62-.23-5.37-.62-4.24-.94-6.56-3.71-6.92-8.06-.1-1.15-.14-2.31-.14-3.47.02-3.25.04-6.51.14-9.76.03-.89.25-1.79.52-2.65.88-2.82,2.86-4.52,5.64-5.37,1.99-.61,4.05-.78,6.11-.82,2.78-.04,5.57-.01,8.35-.01ZM61.94,23.04h0c1.88,0,3.76.01,5.64,0,.61,0,1.23,0,1.84-.07,2.15-.26,3.29-1.31,3.54-3.45.31-2.63.33-5.27,0-7.9-.26-2.08-1.39-3.23-3.46-3.63-.77-.15-1.58-.2-2.37-.2-3.47-.02-6.94-.01-10.41,0-.51,0-1.01,0-1.52.04-2.71.23-4.16,1.48-4.38,4.18-.18,2.29-.06,4.62-.04,6.92,0,.5.14,1,.27,1.49.34,1.26,1.17,2.07,2.44,2.36.73.16,1.5.25,2.25.26,2.06.03,4.12.01,6.18.01Z"/>
  <path class="cls-1" d="M123.88,10.59h-9.08c-.07-.4-.13-.78-.21-1.16-.22-.97-.79-1.61-1.76-1.87-.42-.11-.85-.22-1.28-.22-4.45,0-8.9,0-13.35.02-.39,0-.79.11-1.17.19-1.37.3-2.24,1.13-2.56,2.5-.14.6-.31,1.21-.31,1.81,0,2.64-.05,5.28.13,7.91.17,2.42,1.36,3.49,3.76,3.67,1.51.11,3.04.12,4.55.13,2.28.02,4.56.02,6.84,0,.83,0,1.67-.04,2.49-.16,2.13-.33,3.05-1.72,2.64-4h-11.3v-6.03c.75-.23,18.51-.33,20.64-.1.03.25.08.53.08.8,0,2.64.06,5.28-.03,7.92-.04,1.32-.25,2.67-.57,3.95-.47,1.88-1.72,3.19-3.56,3.78-1.3.41-2.66.71-4.01.84-2.01.18-4.05.22-6.07.23-4.23.03-8.47.02-12.7,0-1.85-.01-3.68-.18-5.49-.63-4.14-1.03-6.46-3.69-6.83-7.93-.15-1.73-.17-3.47-.16-5.2,0-2.75.06-5.5.15-8.24.02-.68.19-1.36.36-2.02.73-2.85,2.5-4.74,5.27-5.73,2.04-.73,4.16-.96,6.3-.98,5.43-.05,10.86-.05,16.28,0,1.92.01,3.82.23,5.67.81,2.98.92,4.68,2.9,5.02,6,.13,1.21.17,2.43.25,3.74Z"/>
  <path class="cls-1" d="M158.16,21.91V.58c.81-.24,7.42-.32,9.11-.13.21.78.25,28.77.03,29.94-.3.02-.61.06-.93.06-4.12,0-8.25-.01-12.37.02-.69,0-1.12-.21-1.54-.75-5.3-6.69-10.62-13.37-15.93-20.05-.24-.3-.48-.59-.72-.88-.07.03-.14.06-.2.09v21.49h-9.22V.47c.26-.03.49-.1.73-.1,4.27,0,8.54.01,12.81-.02.69,0,1.03.34,1.41.81,5.31,6.68,10.63,13.36,15.94,20.04.22.27.45.53.68.8.07-.03.15-.06.22-.09Z"/>
  <path class="cls-1" d="M39.08,11.32h-9.25c-.03-.4-.05-.75-.09-1.1-.11-1.09-.69-1.83-1.73-2.13-.62-.18-1.28-.29-1.92-.29-3.8-.03-7.6-.02-11.4,0-.43,0-.87.04-1.29.12-2.38.45-3.62,1.67-3.76,4.08-.14,2.38-.04,4.77-.01,7.15,0,.43.14.86.26,1.27.37,1.25,1.18,2.06,2.45,2.35.59.14,1.21.24,1.82.24,4.05.02,8.1,0,12.16-.01.54,0,1.08-.1,1.61-.2,1.22-.23,1.87-1.01,2.07-2.21.09-.53.13-1.07.2-1.65h9.09c.03.25.1.49.09.72-.07,1.62-.03,3.26-.26,4.86-.38,2.52-1.88,4.24-4.24,5.21-1.77.72-3.63,1.01-5.51,1.02-5.86.04-11.72.04-17.58,0-1.84-.01-3.67-.25-5.46-.79-3.48-1.04-5.45-3.39-6.04-6.93-.15-.89-.23-1.8-.24-2.7-.03-3.29-.05-6.58.01-9.87.02-1.25.18-2.53.47-3.75C1.18,3.96,2.92,2.09,5.59,1.09,7.62.32,9.75.06,11.88.05c5.75,0,11.5.05,17.25.18,1.36.03,2.73.33,4.06.64,3.23.75,5.19,2.75,5.57,6.1.16,1.39.21,2.8.32,4.34Z"/>
  <path class="cls-1" d="M170.97.43h32.91v6.88c-1.08.09-2.19.03-3.3.04-1.12.01-2.24,0-3.36,0h-17v4.79h22.39v6.25h-22.4v4.82h24.18v7.16h-33.42V.43Z"/>
  <path class="cls-1" d="M228.18,19.53c-.87.95-1.65,1.8-2.43,2.66-2.32,2.54-4.64,5.07-6.95,7.62-.36.39-.7.65-1.28.64-3.66-.03-7.31-.01-10.97-.02-.14,0-.28-.03-.64-.07.99-1.11,1.97-2.04,2.91-3.01.98-1.01,1.98-2.01,2.96-3.02.96-.98,1.92-1.97,2.89-2.95.99-1.01,1.98-2.01,2.97-3.02.96-.98,1.92-1.96,2.94-3.01-4.54-4.95-9.03-9.85-13.64-14.87.4-.05.66-.11.92-.11,3.37,0,6.73.01,10.1-.02.65,0,1.06.23,1.47.7,2.61,2.96,5.24,5.89,7.87,8.84.26.3.53.59.87.96.3-.32.57-.6.82-.89,2.65-2.97,5.3-5.94,7.95-8.91.34-.38.65-.7,1.25-.69,3.55.03,7.09.02,10.64.02.13,0,.26.04.59.1-4.59,5-9.07,9.89-13.65,14.89,4.87,4.96,9.71,9.9,14.7,14.99-.51.04-.82.08-1.13.08-3.4,0-6.8-.01-10.21.02-.71,0-1.2-.2-1.68-.73-2.78-3.1-5.6-6.16-8.4-9.23-.27-.29-.54-.58-.88-.96Z"/>
</svg>