<?xml version="1.0" encoding="UTF-8"?>
<svg id="Layer_1" data-name="Layer 1" xmlns="http://www.w3.org/2000/svg" viewBox="0 0 1922.55 509.14">
  <defs>
    <style>
      .cls-1 {
        fill: #0069b3;
      }

      .cls-1, .cls-2 {
        stroke-width: 0px;
      }

      .cls-2 {
        fill: #81cff4;
      }
    </style>
  </defs>
  <path class="cls-1" d="M1087.75,263.97v33.28c-20.54,11.14-52.31,3.92-70.82-15.87-19.87-21.25-22.81-54.55-6.61-79.22,9.56-14.56,22.98-24.01,40.09-27.97,16.83-3.9,32.65-.56,48.24,7.53.5-3.06.89-5.47,1.38-8.52h29.11v128.45h-29.26c-.16-2.72-.44-5.41-.45-8.1-.05-19.02.18-38.05-.12-57.06-.27-16.64-13.15-30.97-29.22-33.24-16.77-2.37-32.32,6.95-37.99,22.77-4.81,13.43-.74,28.42,10.28,37.85,10.69,9.14,25.76,10.82,38.43,4.22,2.03-1.06,3.95-2.33,6.94-4.11Z"/>
  <path class="cls-1" d="M848.58,247.83h-95.93c3.47,10.54,9.51,17.02,18.16,20.93,15.41,6.96,28.93,3.19,41.07-8.55h32.87c-1.77,23.41-37.42,45.18-67.48,41.67-36.67-4.29-62-39.01-55.69-76.33,6.02-35.6,42.14-59.35,78.17-51.42,33.24,7.32,57.4,43.23,48.83,73.71ZM753.64,226.25h63.64c-3.49-14.25-17.51-23.78-33.52-23.26-14.25.46-27.9,10.97-30.12,23.26Z"/>
  <path class="cls-1" d="M1438.13,238c-.05,35.87-28.79,64.33-64.86,64.24-36.21-.09-64.83-28.93-64.77-65.27.06-35.43,29.42-64.49,65.09-64.42,36.02.07,64.6,29.05,64.54,65.45ZM1373.43,202.97c-19.16-.01-34.59,15.29-34.65,34.36-.06,18.81,15.21,34.57,33.65,34.72,19.76.16,35.58-14.85,35.91-34.06.33-19.16-15.47-35-34.9-35.02Z"/>
  <path class="cls-1" d="M1577.15,301.78h-29.1c0-3.16,0-5.86,0-8.56,0-20.41.18-40.81-.06-61.22-.23-20.12-19.66-33.7-38.36-27.11-11.15,3.93-18.75,14.62-18.88,27.42-.19,20.17-.06,40.35-.07,60.52,0,2.73,0,5.46,0,8.8h-29.58v-128.62h29.07c.3,3.59.58,6.96.91,10.93,1.57-.75,2.85-1.13,3.86-1.88,26.9-19.64,70.48-9.46,80.96,32.92,1.05,4.24,1.79,8.68,1.82,13.04.19,22.72.11,45.45.08,68.17,0,1.59-.36,3.17-.66,5.59Z"/>
  <path class="cls-1" d="M1652.77,172.74h38.52c10.72,14.6,21.54,29.33,33.14,45.14,11.42-15.56,22.31-30.39,32.98-44.93h38.51c-17.61,22.9-34.52,44.89-52.07,67.72,15.38,20.01,30.71,39.94,46.82,60.9h-38.4c-8.84-12.14-18.08-24.84-27.87-38.29-9.58,13.23-18.65,25.77-27.91,38.56h-38.54c16.06-20.86,31.36-40.74,47.08-61.15-17.3-22.49-34.32-44.64-52.26-67.97Z"/>
  <path class="cls-1" d="M941.95,301.93h-33.44c-19.04-42.74-38.07-85.46-57.44-128.94h33.23c13.35,29.94,26.73,59.95,40.88,91.7,14.12-31.6,27.56-61.67,41.03-91.82h33.16c-19.3,43.37-38.27,86.02-57.42,129.06Z"/>
  <path class="cls-1" d="M1152.32,130.06h29.12v42.3h38.32v30.76h-37.19c-.41,1.88-.84,2.98-.85,4.07-.05,17.64-.19,35.28,0,52.91.09,8.19,4.44,12.28,12.72,12.44,8.28.17,16.57.04,25.32.04v28.93c-.66.31-1.46,1.01-2.27,1.01-9.52,0-19.07.43-28.54-.26-21.15-1.54-36.91-18.65-36.96-39.82-.1-41.77-.04-83.55-.02-125.32,0-2.06.2-4.13.35-7.05Z"/>
  <path class="cls-1" d="M1271.78,173.14c.28,3.62.54,7.01.9,11.71,10.85-7.09,21.59-12.8,34.91-11.93v29.54c-2.03.4-3.81.73-5.58,1.09-17.82,3.65-29.58,17.78-29.72,36.05-.13,17.63-.03,35.26-.03,52.89,0,2.76,0,5.53,0,9.02h-29.1v-128.37h28.63Z"/>
  <path class="cls-1" d="M1629.89,302.37h-28.68v-129.21h28.68v129.21Z"/>
  <path class="cls-1" d="M1630.02,129.16v28.97h-29.28v-28.97h29.28Z"/>
  <g>
    <polygon class="cls-1" points="645.3 232.79 645.3 302.22 433.03 441.09 431.71 371.65 645.3 232.79"/>
    <polygon class="cls-1" points="573.88 172.62 573.88 242.04 432.37 333.96 432.37 265.19 522.3 207 573.88 172.62"/>
    <polygon class="cls-2" points="573.88 172.62 522.3 207 431.71 148.81 433.03 80.03 573.88 172.62"/>
    <polygon class="cls-1" points="433.03 80.03 431.71 148.81 261.77 260.56 206.89 226.17 433.03 80.03"/>
    <polygon class="cls-2" points="431.71 371.65 433.03 441.09 206.89 294.95 206.89 226.17 261.77 260.56 431.71 371.65"/>
    <polygon class="cls-2" points="432.37 265.19 432.37 333.96 360.3 287.01 360.3 218.91 432.37 265.19"/>
  </g>
</svg>