<?xml version="1.0" encoding="UTF-8"?>
<svg id="Layer_1" data-name="Layer 1" xmlns="http://www.w3.org/2000/svg" viewBox="0 0 4324.04 592.63">
  <defs>
    <style>
      .cls-1 {
        fill: #0169b3;
      }

      .cls-1, .cls-2, .cls-3, .cls-4, .cls-5, .cls-6, .cls-7, .cls-8 {
        stroke-width: 0px;
      }

      .cls-2 {
        fill: #83cff4;
      }

      .cls-3 {
        fill: #a3dcf6;
      }

      .cls-4 {
        fill: #174294;
      }

      .cls-5 {
        fill: #83d0f4;
      }

      .cls-6 {
        fill: #84d0f4;
      }

      .cls-7 {
        fill: #164194;
      }

      .cls-8 {
        fill: #174194;
      }
    </style>
  </defs>
  <path class="cls-1" d="M282.47,592.63c-1.1-2.98-3.16-5.95-3.16-8.93-.15-88.82-.11-177.65-.08-266.47,0-.49.2-.99.63-2.9,82.93,47.42,165.48,94.63,248.99,142.38-12.52,7.17-24.13,13.84-35.76,20.49-65.66,37.53-131.32,75.04-196.98,112.58-1.54.88-2.99,1.9-4.48,2.86h-9.16Z"/>
  <path class="cls-7" d="M241.24,592.63c-34.27-19.76-68.52-39.58-102.83-59.27-42.48-24.38-85.03-48.66-127.54-72.99-1.71-.98-3.37-2.07-6.16-3.8,83.23-47.6,165.6-94.71,249.47-142.69,0,4.25,0,6.9,0,9.56,0,85.55.05,171.09-.16,256.63-.01,4.19-2.35,8.37-3.61,12.55h-9.16Z"/>
  <path class="cls-3" d="M4324.04,364.1c-.45.13-.91.2-1.37.21-.01-45.32-.03-90.64-.04-135.96.47.05.94.1,1.41.16v135.59Z"/>
  <path class="cls-2" d="M4322.62,228.35c.01,45.32.03,90.64.04,135.96-2.97,31.57-22.06,50.01-50.19,60.76-20.62,7.88-42.27,10.64-64.2,10.7-62.56.16-125.13.08-187.69.04-18.28-.01-26.61-8.29-26.62-26.24,0-75.37.29-150.74-.21-226.1-.13-19.11,11.65-26.41,26.21-26.46,63.33-.2,126.66-.58,189.97.28,25.87.35,51.69,3.82,75.09,16.6,21.69,11.84,35.34,29.24,37.59,54.45ZM4056.13,209.96v173.58c1.94.16,3.2.35,4.45.35,49.09,0,98.18.25,147.26-.25,10.26-.1,20.73-2.09,30.7-4.75,17.14-4.57,22.9-13.13,22.9-31.01,0-35.28,0-70.55,0-105.83,0-13.21-4.75-21.75-17.44-25.37-12.51-3.56-25.72-6.23-38.67-6.44-47.04-.75-94.1-.29-141.16-.3-2.5,0-5.01,0-8.04,0Z"/>
  <path class="cls-2" d="M3922.93,294.1c12.24,10.8,22.19,22.25,22.89,37.79.81,18.12,1.64,36.72-1.47,54.43-4.3,24.5-23.91,36.5-46.11,42.56-15,4.1-30.94,6.5-46.48,6.65-70.72.68-141.45.33-212.17.28-17.98-.01-27.4-9.53-27.19-27.18.17-14.2,9.79-23.52,25.53-24.66,2.28-.16,4.58-.06,6.87-.06,65.89,0,131.79.2,197.67-.21,10.24-.06,20.57-2.37,30.64-4.63,7.3-1.63,11.74-7.11,12.12-14.8.36-7.33.28-14.7-.05-22.04-.42-9.44-6.21-15-14.88-16.89-8.86-1.93-17.98-3.7-27-3.74-65.64-.31-131.27-.14-196.91-.22-4.53,0-9.16-.38-13.57-1.37-14.13-3.17-20.44-13.19-18.82-29.21,1.12-11.06,10.63-19.64,23.37-19.69,55.97-.25,111.94-.09,167.91-.28,15.99-.05,32-.48,47.96-1.34,5.72-.31,11.57-1.8,16.95-3.83,7.2-2.72,11.5-8.05,11.09-16.38-.26-5.32-.03-10.66-.05-15.99-.04-10.92-3.56-16.86-14.24-19.65-9.72-2.53-19.9-4.16-29.94-4.47-21.6-.68-43.24-.08-64.87-.36-16.59-.22-26.66-9.71-26.94-24.69-.3-16.1,9.5-27.15,26.31-26.98,34.01.33,68.07.85,101.98,3.15,18.61,1.26,36.02,8.41,50.34,21.35,9.19,8.3,15.7,18.38,17.18,30.56,1.61,13.24,2.21,26.69,2.07,40.04-.17,16.41-6.58,30.52-20.22,41.85Z"/>
  <path class="cls-8" d="M3430.58,352.93v-54.85c0-38.08-.02-76.16,0-114.24.01-16.35,7.04-24.58,23.43-25.72,6.89-.48,14.3.45,20.86,2.6,7.78,2.55,11.93,9.26,12.48,17.58.35,5.31.22,10.65.22,15.98.01,70.57,0,141.15,0,211.72,0,24.94-22.36,38.12-44.77,26.04-5.51-2.97-10.43-7.22-15.17-11.4-66.54-58.56-133-117.22-199.5-175.83-1.62-1.43-3.39-2.7-6.23-4.94v9.4c0,53.31,0,106.62,0,159.93,0,13.5-4.52,20.84-14.99,24.51-13.2,4.62-30.55,1.8-36.77-6.96-2.76-3.88-4.75-9.26-4.77-13.97-.29-77.43-.23-154.86-.17-232.28,0-10.1,5.27-17.45,14.96-20.63,14.68-4.82,27.96-2.2,39.7,8.15,47.63,41.99,95.33,83.91,143.01,125.85,20.97,18.45,41.93,36.92,62.91,55.37,1.09.96,2.31,1.79,4.8,3.7Z"/>
  <path class="cls-4" d="M792.36,318.4c0,13.46-.57,26.14.16,38.74.74,12.88,9.74,20.51,21.03,23.24,14.18,3.42,28.95,5.84,43.5,6.05,50.36.71,100.75.18,151.12.32,19.2.05,29.91,14.8,23.83,32.23-3.44,9.86-12.63,14.94-27.4,14.95-49.36.03-98.72.22-148.07-.12-14.19-.1-28.49-.95-42.53-2.91-10.97-1.53-22.01-4.31-32.34-8.28-28.46-10.95-45.59-31.56-46.3-62.54-.96-41.85-1.43-83.78-.03-125.6,1.18-35.41,18.93-56.6,53.14-66.65,13.53-3.97,27.79-6.74,41.84-7.43,25.63-1.26,51.37-.85,77.06-.58,18.08.19,28.29,15.23,22.48,32.06-3.3,9.54-12.45,14.96-25.77,15.05-21.37.15-42.78-.56-64.09.58-10.69.57-21.56,3.38-31.69,7.02-10.97,3.94-16.49,12.83-16.14,25,.3,10.65.06,21.31.06,33.16h8.17c68.69,0,137.39-.03,206.08.02,18.45.01,29.08,12.15,25.32,28.62-2.44,10.71-11.39,17.01-24.81,17.04-33.58.09-67.17.03-100.75.03-37.63,0-75.26,0-113.84,0Z"/>
  <path class="cls-4" d="M2144.81,433.94c-29.26,0-58.52.04-87.78-.05-3.79-.01-7.63-.37-11.34-1.1-12.8-2.51-18.84-10.82-18.28-24.76.46-11.41,8.28-19.66,20.12-21.05,2.77-.32,5.59-.27,8.38-.27,49.62-.01,99.24.31,148.85-.21,14.4-.15,28.82-2.29,43.12-4.31,5.09-.72,10.77-2.76,14.5-6.07,3.76-3.34,6.78-8.76,7.71-13.73,1.29-6.87.06-14.17.4-21.26.42-8.83-3.61-15.13-11.5-17.75-9.07-3.01-18.6-5.97-28.03-6.29-33.03-1.12-66.1-1.11-99.15-1.48-22.49-.25-44.68-2.49-65.71-11.08-25.78-10.53-36.95-27.43-36.9-55.26.02-11.17-.85-22.46.53-33.47,2.94-23.37,17.76-38.22,39.21-45.03,16.77-5.32,34.48-8.9,52.02-10.36,21.74-1.8,43.72-.88,65.6-.62,18.47.22,28.89,15.55,22.65,32.51-3.37,9.15-12.48,14.5-25.33,14.62-18.32.16-36.67-.48-54.93.53-10.5.58-21.02,3.13-31.24,5.88-8.24,2.21-12.23,8.51-11.82,17.33.22,4.81.02,9.65.04,14.47.05,10.28,2.74,15.72,12.72,18.11,12.48,2.98,25.43,4.98,38.24,5.37,31.51.97,63.08.32,94.59,1.21,19.87.57,39.42,4.06,57.89,11.97,25.46,10.91,39.44,29.39,38.41,57.88-.29,8.11-.22,16.25-.01,24.37.67,26.42-12.07,44.26-35.4,55.26-22.06,10.4-45.78,13.41-69.73,14.03-25.93.67-51.89.15-77.83.15v.46Z"/>
  <path class="cls-4" d="M2766.59,435.71c-8.62-.52-18.7-2.62-24-12.89-5.17-10.02-2.4-19.36,3.67-28.54,48.56-73.44,96.89-147.03,145.33-220.55,14.18-21.52,42.9-21.83,57.06-.48,49.65,74.85,99.22,149.74,148.75,224.67,5.63,8.52,6.56,17.79.7,26.44-7.33,10.82-18.71,12.34-30.57,10.85-9.42-1.18-16.16-6.9-21.22-14.7-10.76-16.61-21.63-33.14-32.17-49.88-2.57-4.08-5.28-5.84-10.32-5.82-55.21.2-110.43.19-165.64.01-4.92-.02-7.82,1.43-10.42,5.62-10.31,16.58-20.93,32.97-31.54,49.37-7.1,10.98-15.85,15.91-29.62,15.92ZM2920.67,225.98c-20.29,31.71-39.83,62.27-59.54,93.08h119.77c-20.2-31.22-39.86-61.6-60.23-93.08Z"/>
  <path class="cls-2" d="M271.98,286.36V0c12.6,7.16,24.45,13.86,36.27,20.62,65.47,37.42,130.96,74.8,196.3,112.44,3.83,2.21,8.78,6.54,8.87,10,.09,3.36-4.78,7.96-8.55,10.13-71.5,41.19-143.16,82.11-214.8,123.07-5.68,3.25-11.42,6.38-18.09,10.09Z"/>
  <path class="cls-2" d="M260.93.56v285.44c-5.47-2.96-10.03-5.32-14.49-7.87-71.83-41.08-143.65-82.19-215.48-123.29-.88-.5-1.8-.95-2.67-1.46-12.07-7.11-12.22-13.26-.26-20.19,15.38-8.91,30.88-17.59,46.32-26.4C132.53,73.55,190.7,40.28,248.9,7.05c3.48-1.99,7.06-3.81,12.03-6.49Z"/>
  <path class="cls-7" d="M0,448.47c0-3.43,0-5.62,0-7.81,0-86.58,0-173.16,0-259.74,0-11.53,5.42-14.88,15.26-9.27,76.5,43.68,152.97,87.41,229.45,131.14,1.31.75,2.6,1.54,4.9,2.89C166.3,353.34,83.65,400.62,0,448.47Z"/>
  <path class="cls-1" d="M533.07,448.34c-83.47-47.75-165.99-94.95-249.42-142.67,6.73-3.9,12.69-7.41,18.69-10.84,71.81-41.04,143.63-82.08,215.46-123.08,9.84-5.61,15.72-2.35,15.73,8.91.06,87.79.03,175.58.01,263.38,0,.99-.21,1.99-.48,4.31Z"/>
  <path class="cls-4" d="M2568.78,159.71c27.73,0,55.45-.14,83.18.05,16.71.11,26.02,10.52,24.57,26.78-1.12,12.59-11.05,20.31-26.75,20.37-28.74.12-57.49,0-86.23.04-22.38.03-44.79-.5-67.13.53-10.45.48-21.11,3.07-31.05,6.49-11.64,4-17.22,13.02-17.11,25.91.32,37.31.34,74.62,0,111.93-.13,13.48,6.04,22.09,17.78,27.38,14.98,6.75,31.09,7.32,47.08,7.42,46.04.28,92.08.04,138.12.13,17.28.03,26.3,9.43,25.33,25.94-.73,12.57-10,21.15-25.2,21.12-56.7-.1-113.43.13-170.08-1.73-16.54-.54-33.64-5.76-49.11-12.14-26.96-11.11-40.6-33.13-40.98-62.18-.54-41.11-.33-82.23-.07-123.35.19-29.85,16.41-52.27,45.53-63.89,19.87-7.93,40.71-10.62,61.93-10.76,23.4-.16,46.8-.04,70.21-.03Z"/>
  <path class="cls-4" d="M1277.44,367.57c21.51-33.39,42.51-66.01,63.52-98.62,20.48-31.77,40.92-63.57,61.47-95.29,8.99-13.87,20.45-18.48,36.63-15.14,16.6,3.43,24.69,18.51,16.94,33.53-5.44,10.54-12.49,20.28-19.05,30.22-43.56,66.11-87.16,132.19-130.78,198.25-13.38,20.26-42.29,20.74-55.75.49-49.73-74.81-99.24-149.76-148.69-224.75-11.14-16.89-2.77-34.92,17.08-38.06,15-2.37,25.98,2.9,34.19,15.74,39.49,61.78,79.23,123.39,118.89,185.06,1.64,2.56,3.3,5.11,5.54,8.56Z"/>
  <path class="cls-4" d="M1932.4,435.72c-8.19.26-15.87-2.95-22.68-8.94-81.06-71.21-162.18-142.36-243.27-213.54-5.72-5.02-11.67-9.86-16.88-15.38-13.25-14.03-7.09-34.71,11.7-39.05,12.46-2.88,23.78-.89,34.02,8.11,84.86,74.58,169.93,148.92,254.95,223.31,10.61,9.28,14.02,19.54,9.85,30.24-3.67,9.41-13.76,15.16-27.68,15.25Z"/>
  <path class="cls-7" d="M1579.01,296.64c0,37.55.02,75.1,0,112.66-.01,17.6-9.05,26.14-27.84,26.41-19.17.27-29.07-8.32-29.09-26.03-.11-75.36-.11-150.72,0-226.07.02-16.07,7.73-24.11,23.94-25.56,4.02-.36,8.14-.27,12.15.22,13.59,1.64,20.79,9.68,20.82,23.44.09,38.31.03,76.63.03,114.94Z"/>
  <path class="cls-5" d="M1822.18,245.71c31.23-27.57,61.22-54.16,91.35-80.6,9.35-8.2,28.96-9.64,39.6-3.36,12.62,7.44,14.78,25.35,3.57,35.96-14.18,13.43-29.03,26.16-43.68,39.09-15.41,13.6-30.87,27.14-46.51,40.48-1.63,1.39-5.69,2.48-6.79,1.55-12.52-10.62-24.68-21.66-37.53-33.11Z"/>
  <path class="cls-6" d="M1783.69,348.26c-10.43,9.19-20.46,18.07-30.53,26.89-19.85,17.38-39.61,34.86-59.63,52.03-8.99,7.71-19.46,10.36-31.28,7.29-19.73-5.12-25.84-24.6-11.47-39.11,10.87-10.98,22.81-20.91,34.37-31.19,17.06-15.17,34.4-30.04,51.23-45.45,5.09-4.66,8.73-5.24,13.89-.41,10.73,10.03,21.85,19.64,33.42,29.96Z"/>
</svg>