<?xml version="1.0" encoding="UTF-8"?>
<svg id="Layer_1" data-name="Layer 1" xmlns="http://www.w3.org/2000/svg" viewBox="0 0 651.06 209.87">
  <defs>
    <style>
      .cls-1 {
        fill: #132c54;
        stroke-width: 0px;
      }
    </style>
  </defs>
  <path class="cls-1" d="M85.41,34.04c-.09,2.01-.17,3.83-.26,5.89h-18.32c-.04-5.95-.12-11.93.08-18.08h18.21c.11,2.1.22,4.1.33,6.3h492.87c.16-2,.31-3.99.48-6.23h18.31c.04,5.91.12,11.89-.09,18.06h-18.22c-.14-2.06-.26-3.96-.39-5.81-2.49-.76-488.51-.9-493.01-.13ZM591.61,27.33h-7.49v7.22h7.49v-7.22ZM79.6,34.61v-7.3h-7.23v7.3h7.23Z"/>
  <path class="cls-1" d="M85.42,182.12c-.09,2-.17,3.83-.28,6.14-3.02,0-5.96,0-8.89,0s-5.94,0-8.84,0c-.76-2.44-.88-14.81-.21-18.33h17.93c.11,2.09.21,4.09.32,6.29h492.87c.16-1.99.31-3.99.49-6.22h17.81c.67,2.11.79,14.59.11,18.06h-17.92c-.14-2.05-.26-3.95-.39-5.8-2.47-.77-488.43-.91-493.01-.14ZM584.15,175.33v7.31h7.4v-7.31h-7.4ZM79.66,175.43h-7.24v7.24h7.24v-7.24Z"/>
  <path class="cls-1" d="M106.87,130.95h41.17v7.78h-49.88c-.72-2.15-.9-64.95-.16-68.7h48.52v7.86h-39.35c-.85,2.48-1.05,16.92-.34,21.14,6.03.54,12.16.16,18.27.23,6.15.07,12.3.02,18.72.02v7.99c-12.24.14-24.52-.01-36.72.08-.78,2.35-.96,19.26-.22,23.61Z"/>
  <path class="cls-1" d="M521.83,138.76h-8.29c-.58-1.68-1.19-3.46-1.91-5.55-1.12.79-2.1,1.47-3.07,2.17-6.53,4.61-13.75,5.86-21.39,3.88-5.4-1.4-9-5.03-9.93-10.63-1.02-6.09.92-11.27,6.25-14.65,2.11-1.34,4.64-2.23,7.1-2.75,5.71-1.22,11.5-2.09,17.25-3.14.99-.18,1.95-.55,2.87-.82,1.63-7.1-1.6-11.68-8.67-12.24-2.14-.17-4.32-.05-6.46.15-3.96.37-6.61,2.55-8.07,6.22-.34.85-.65,1.71-1.08,2.86-2.52-.32-5.02-.64-7.91-1.01.97-4.79,2.56-9.04,6.69-11.44,8.5-4.95,17.58-5.25,26.71-1.92,5.12,1.87,7.33,6.11,7.49,11.35.2,6.98.14,13.97.27,20.96.07,3.49.17,6.99.55,10.45.22,2,1.02,3.94,1.61,6.12ZM510.68,114.35c-4.09.87-8.19,1.73-12.28,2.6-2.2.46-4.44.79-6.6,1.41-4.01,1.17-6.08,3.9-5.97,7.55.1,3.51,2.59,6.3,6.46,7.24,11.68,2.83,21.32-7.03,18.4-18.79Z"/>
  <path class="cls-1" d="M257.63,107.17c-.1-2.01-.02-3.86-.31-5.64-.5-3.05-2.59-4.85-5.4-5.76-4.13-1.35-8.32-1.15-12.45,0-2.29.64-3.87,2.3-4.91,4.4-.59,1.19-1.05,2.44-1.74,4.08-2.44-.32-5-.66-7.78-1.02,1.23-6.95,4.68-11.61,11.18-13.7,6.72-2.16,13.53-2.34,20.33-.41,5.74,1.63,9.11,5.87,9.3,11.99.24,7.7.17,15.41.31,23.12.05,2.77.15,5.56.52,8.3.27,2,1,3.95,1.58,6.13-2.66.62-5.35.33-8.28.15-.58-1.76-1.14-3.48-1.82-5.56-1,.67-1.91,1.25-2.78,1.89-6.36,4.62-13.4,6.02-21.02,4.3-5.74-1.3-9.56-4.85-10.63-10.67-1.09-5.93.73-11.1,5.86-14.53,2.16-1.44,4.78-2.41,7.33-2.97,5.71-1.25,11.5-2.09,17.25-3.13,1-.18,1.98-.53,3.46-.94ZM257.38,114.22c-3.09.71-5.77,1.35-8.46,1.93-3.7.8-7.46,1.36-11.11,2.36-3.61.99-5.55,3.82-5.52,7.27.03,3.32,2.18,6.12,5.76,7.12,3.78,1.06,7.5.61,11.13-.84,3.19-1.28,5.67-3.35,7.04-6.5,1.54-3.56,1.58-7.33,1.16-11.34Z"/>
  <path class="cls-1" d="M392.18,77.91v21.48h31.58v8.11h-31.64v31.17h-8.43c-.71-2.25-.83-65.34-.09-68.65h45.07v7.89h-36.49Z"/>
  <path class="cls-1" d="M186.42,106.13c2.21-3.16,4.13-5.93,6.07-8.7,1.94-2.78,3.9-5.55,5.88-8.38h9.89c-5.75,8.01-11.27,15.71-16.83,23.47,5.98,8.67,11.85,17.2,17.96,26.06-3.46.71-6.56.26-9.94.37-4.16-6.39-8.34-12.8-12.78-19.62-4.41,6.69-8.58,13.01-12.83,19.46h-10.04c6.03-8.74,11.83-17.15,17.8-25.8-5.4-7.83-10.81-15.67-16.44-23.84h10.38c3.44,5.36,7.04,10.96,10.89,16.97Z"/>
  <path class="cls-1" d="M327.93,103.61c-2.66.43-5.15.84-7.69,1.25-.36-.89-.64-1.53-.88-2.19-1.51-4.17-4.19-7.11-8.75-7.68-5.03-.62-9.43.8-12.44,5.08-1.15,1.64-2.07,3.6-2.52,5.55-1.5,6.4-1.56,12.85.68,19.12,2.25,6.27,8.27,9.47,14.78,8.13,4.06-.84,6.77-3.29,8.28-7.08.6-1.51,1.01-3.09,1.6-4.94,2.54.3,5.04.6,7.52.89.02,7.54-6.14,15.69-14.06,17.59-13.43,3.23-25.83-3.61-27.94-19.16-.71-5.23-.6-10.44.66-15.6,2.88-11.79,13.04-18.37,25.08-16.52,8.32,1.28,14.41,6.95,15.69,15.56Z"/>
  <path class="cls-1" d="M347.07,95.74c-2.19-.13-3.91-.23-5.87-.34v-6.3c1.86-.11,3.66-.22,5.78-.34v-12.14c2.79-1.71,5.38-3.31,8.42-5.17v17.38h8.32v6.65h-7.97c-.12,1.06-.29,1.84-.29,2.63-.02,9.15,0,18.3,0,27.46,0,.62,0,1.24.07,1.85.33,3.05,1.54,4.17,4.57,4.24,1.12.03,2.25,0,3.71,0,.37,2.25.75,4.52,1.18,7.13-4.96,1.08-9.55,1.54-13.89-1.07-2.51-1.51-3.37-4.06-3.57-6.83-.21-2.87-.41-5.75-.43-8.62-.06-7.61-.02-15.22-.02-22.83,0-1.12,0-2.23,0-3.69Z"/>
  <path class="cls-1" d="M565.1,131.75c.38,2.33.75,4.53,1.16,7.03-4.74,1.07-9.26,1.51-13.55-.83-3.28-1.79-4.02-5.05-4.05-8.45-.11-9.97-.13-19.93-.19-29.9,0-1.21,0-2.41,0-3.84-2.15-.14-3.94-.26-5.92-.39v-6.29c1.76-.08,3.55-.17,5.75-.27v-12.22c2.79-1.73,5.29-3.27,8.31-5.14v17.42h8.33v6.54h-8.04c-.11,1.27-.25,2.15-.25,3.04-.01,8.73-.02,17.47,0,26.2.01,6.38,1.41,7.5,7.16,6.92.29-.03.6.08,1.29.17Z"/>
  <path class="cls-1" d="M457.05,138.77h-8v-68.69h8v68.69Z"/>
</svg>