<?xml version="1.0" encoding="UTF-8"?>
<svg id="Layer_1" data-name="Layer 1" xmlns="http://www.w3.org/2000/svg" viewBox="0 0 2305.27 388.29">
  <defs>
    <style>
      .cls-1 {
        fill: #d91433;
        stroke-width: 0px;
      }
    </style>
  </defs>
  <path class="cls-1" d="M618.13,13.46h-106.47l-161.62,366.13h104.94l31.4-75.06h157.79l30.64,75.06h108L618.13,13.46ZM510.13,247.84l54.38-125.62,55.91,125.62h-110.3Z"/>
  <polygon class="cls-1" points="857.87 10.14 857.87 378.82 962.04 378.82 962.04 144.95 1150.98 379.84 1268.43 379.84 1268.43 13.2 1164.26 13.2 1164.26 262.39 960 13.2 857.87 10.14"/>
  <polygon class="cls-1" points="0 13.2 0 378.82 107.23 378.82 107.23 217.46 322.72 217.46 322.72 146.99 106.21 146.99 106.21 85.71 359.49 85.71 359.49 11.16 0 13.2"/>
  <path class="cls-1" d="M2304.67,155.75c-8.37.99-109.24,1.41-121.4.58-2.05-1.45-2.41-3.75-2.99-5.99-3.14-12.27-7.41-24.11-13.11-35.45-3.59-7.15-7.79-13.91-12.22-20.56-10.87-16.32-26.19-26.15-44.84-31.13-9.63-2.57-19.41-4.47-29.48-4.42-2.98.02-5.96-.5-8.95-.66-2.3-.12-4.62-.17-6.92-.04-3.98.21-7.96.59-11.94.88-21.72,1.62-41.63,7.96-58.69,22.07-8.62,7.13-15,15.99-20.55,25.5-9.5,16.28-14.8,33.97-17.79,52.53-3.2,19.88-2.95,39.87-1.46,59.73,1.67,22.37,7.73,43.72,19.84,63.06,15.95,25.48,38.72,40.32,68.2,45.69,14.27,2.6,28.59,2.62,42.76,1.29,21.51-2.02,41.44-8.9,58.43-23.08,8.58-7.16,15.31-15.7,20.9-25.21,7.82-13.29,13.01-27.61,15.92-42.76.37-1.92.96-3.8,1.51-5.97,1.8-.28,3.39-.73,4.98-.73,37.63-.04,75.26-.04,112.89-.02,1.61,0,3.21.19,4.31.26.68.76.98.97,1.09,1.24.11.29.12.67.05.99-1.35,6.16-2.46,12.38-4.13,18.45-9.5,34.63-27.7,63.86-54.95,87.34-13.98,12.04-29.62,21.48-46.7,28.38-18.21,7.36-37.14,12.09-56.56,15.27-21.11,3.46-42.31,4.29-63.61,4.18-10.66-.05-21.32-.09-31.96-.6-9.61-.46-19.12-2.1-28.66-3.33-11.56-1.49-22.92-3.75-34.19-6.55-28.24-7.02-54.8-17.99-79.61-33.34-26.27-16.26-43.81-39.32-54.57-67.91-4.93-13.1-8.21-26.59-10.12-40.48-2.23-16.16-3.93-32.36-3.31-48.65,1.2-31.55,7.24-61.94,22.8-89.91,19.12-34.36,46.65-59.34,82.88-74.73,17.51-7.44,35.78-12.46,54.43-15.63,15.69-2.66,31.52-4.84,47.54-4.91,6.3-.03,12.59-1.18,18.89-1.13,18.61.15,37.17,1.36,55.72,3.08,19.58,1.82,38.79,5.33,57.67,10.58,20.27,5.64,39.44,13.83,57.07,25.54,29.28,19.45,49.62,45.82,61.83,78.62,4.3,11.54,7.37,23.42,9.56,35.52.11.59-.29,1.26-.59,2.4Z"/>
  <path class="cls-1" d="M1343.06,11.7h104.37c.25,2.12.67,4.01.67,5.9.05,17.64.03,35.28.03,52.92,0,57.25-.01,114.5.03,171.75,0,6.3.3,12.51,1.63,18.8,3.21,15.22,11.6,26.88,23.93,35.54,15.69,11.02,33.23,17.72,52.28,20.87,12.28,2.03,24.56,2.26,36.8,1.45,23.17-1.55,45.14-7.3,64.55-20.91,17.64-12.37,26.37-29.39,27.27-50.66.18-4.32.06-8.65.06-12.98,0-70.23,0-140.46,0-210.69v-11.26c1.6-.39,2.8-.95,4.01-.95,32.63-.04,65.26-.03,97.89,0,.66,0,1.31.2,2.51.4.28,1.35.72,2.87.87,4.43.16,1.65.05,3.32.05,4.99,0,76.89-.04,153.78.04,230.66.01,10.38-1.31,20.51-3.76,30.56-3.46,14.17-10.29,26.47-19.76,37.56-18.36,21.5-41.21,36.32-67.22,46.85-17.63,7.14-35.89,12.06-54.5,15.34-14.02,2.47-28.19,4.6-42.53,4.82-3.31.05-6.61.7-9.92.85-4.98.23-9.98.51-14.95.31-7.3-.29-14.59-.9-21.87-1.53-7.28-.63-14.59-1.13-21.79-2.25-10.48-1.62-20.95-3.44-31.31-5.72-21.84-4.8-42.69-12.41-62.4-23.01-19.31-10.39-35.89-24.08-48.99-41.72-8.66-11.66-13.78-24.85-16.39-39.16-1.62-8.91-1.86-17.82-1.86-26.8,0-75.22,0-150.45.01-225.67,0-3.27.15-6.55.25-10.66Z"/>
</svg>