<?xml version="1.0" encoding="UTF-8"?>
<svg id="Layer_1" data-name="Layer 1" xmlns="http://www.w3.org/2000/svg" viewBox="0 0 1080 342.64">
  <defs>
    <style>
      .cls-1 {
        fill: #045187;
      }

      .cls-1, .cls-2 {
        stroke-width: 0px;
      }

      .cls-2 {
        fill: #fff;
      }
    </style>
  </defs>
  <path class="cls-2" d="M927.67,151.47v-7.27c.05,0,.1,0,.15,0v7.23c-.05.01-.1.03-.15.04Z"/>
  <path class="cls-1" d="M967.54,138.04c-2.39-8.43-5.58-16.56-10.07-24.07-3.51-5.86-7.36-11.56-11.55-16.95-6.27-8.09-13.81-14.98-22.13-20.98-8.97-6.47-18.67-11.62-29.1-15.31-9.28-3.28-18.87-5.32-28.67-6.32-2.1-.21-4.21-.36-6.32-.54h-8.55c-1.67.17-3.36.26-5.02.54-6.98,1.18-14.07,1.98-20.91,3.72-15.35,3.91-29.16,11.15-41.64,20.86-6.36,4.95-12.09,10.59-17.24,16.79-5.56,6.69-10.35,13.9-14.35,21.67-5.3,10.28-8.9,21.1-10.98,32.43-.72,3.89-1.04,7.85-1.51,11.78-.03.28-.03.51,0,.73h72.5c.1-.22.19-.46.26-.75,1.59-6.65,4.39-12.71,8.74-18.03,4.93-6.03,10.93-10.76,18.18-13.54,9.52-3.65,19.31-4.44,29.26-1.55,13.95,4.05,23.86,12.73,29.38,26.09,5.28,12.76,4.74,25.51-1.41,37.91-3.1,6.25-7.54,11.55-13.15,15.61-6.49,4.7-13.79,7.62-21.89,8.53-9.97,1.12-19.31-.78-27.9-5.71-9.82-5.63-16.4-14.15-20.16-24.79-.56-1.57-1.26-2.08-2.9-2.08-17.33.05-34.66.01-51.99.01-5.46,0-10.92.03-16.38.01-1.3,0-2.13.33-1.81,1.82,1.26,5.94,2.3,11.93,3.87,17.78,1.89,7.03,4.82,13.67,8.16,20.17,4.9,9.54,11.07,18.17,18.33,25.99,7.99,8.62,17.19,15.75,27.43,21.6,8.85,5.05,18.14,8.92,27.97,11.51,12.36,3.25,24.92,4.34,37.68,3.52,8.62-.55,17.04-2.12,25.3-4.52,13.9-4.04,26.51-10.66,37.95-19.48,8.43-6.5,15.81-14.06,22.23-22.55,5.54-7.34,9.97-15.33,13.64-23.73,4.62-10.58,7.43-21.66,8.69-33.14.21-1.92.51-3.83.77-5.75v-13.87c-.27-1.92-.63-3.83-.81-5.76-.6-6.68-2.05-13.18-3.88-19.62Z"/>
  <path class="cls-1" d="M614.92,159.76c0-11.62.03-23.24,0-34.85,0-1.11.18-1.61,1.46-1.56,5.74.22,11.49.32,17.24.5,4.51.14,8.94.78,13.22,2.24,4.58,1.56,8.13,4.28,9.96,8.93,1.96,4.99,2.28,10.13,1.44,15.35-.65,3.99-2.35,7.49-5.72,9.88-1.16.82-2.44,1.47-3.75,2.12h75.21c.09-.14.17-.29.24-.46,2.11-4.92,3.61-10.04,3.9-15.37.28-5.18.17-10.39,0-15.57-.34-10.41-2.97-20.32-7.18-29.8-2.5-5.63-5.89-10.74-9.77-15.55-4.59-5.69-9.95-10.44-16.08-14.35-8.52-5.43-17.77-9.02-27.65-11.2-7.55-1.67-15.19-2.75-22.86-2.78-35.84-.16-71.68-.07-107.52-.11-1.61,0-1.99.57-1.99,2.08.03,33.96.04,67.93,0,101.89,0,.49.05.89.15,1.23h79.56c.15-.54.16-1.36.16-2.61Z"/>
  <path class="cls-1" d="M394.42,161.62c1.99-8.14,4-16.28,6-24.43.25-1.03.49-2.07.74-3.11.18,0,.36.01.55.02.36,1.51.73,3.02,1.06,4.54,1.72,7.77,3.43,15.54,5.14,23.32.03.14.07.28.1.4h68.85c-.11-.48-.22-.91-.37-1.33-4.03-11.92-8.07-23.84-12.11-35.76-3.33-9.84-6.64-19.68-10-29.51-2.44-7.14-4.98-14.24-7.4-21.39-1.67-4.92-3.26-9.87-4.79-14.83-.53-1.71-1.36-2.4-3.27-2.4-25.21.07-50.43.07-75.64.02-1.49,0-2.01.53-2.45,1.85-4.33,12.94-8.72,25.86-13.1,38.78-4.23,12.46-8.47,24.92-12.7,37.39-2.28,6.71-4.56,13.43-6.81,20.15-.77,2.3-1.5,4.63-2.27,7.04h68.21c.1-.22.18-.46.25-.75Z"/>
  <path class="cls-1" d="M743.43,259.5c-4.41-7.19-8.84-14.37-13.27-21.55-5.29-8.57-10.57-17.15-15.87-25.71-5.19-8.38-10.46-16.7-15.56-25.13-1.31-2.17-2.66-3.12-5.41-3.11-24.74.14-49.48.07-74.21.06-1.13,0-2.27,0-3.59,0,3.06,6.49,5.99,12.67,8.9,18.86,4.03,8.56,8.04,17.12,12.07,25.68,3.57,7.57,7.15,15.14,10.74,22.7,4.63,9.77,9.36,19.5,13.84,29.33,1.02,2.23,2.2,2.94,4.61,2.93,29.78-.09,59.56-.06,89.34-.06.88,0,1.77,0,2.99,0-.36-.69-.54-1.11-.78-1.5-4.59-7.51-9.18-15.01-13.79-22.51Z"/>
  <path class="cls-1" d="M614.94,233.88h.01c0-15.82,0-31.65,0-47.47,0-2.33-.01-2.35-2.4-2.35-24.98,0-49.95,0-74.93,0-2.47,0-2.53.07-2.53,2.47,0,31.47,0,62.94,0,94.4,0,2.56,0,2.57,2.54,2.57,18.27,0,36.55,0,54.82,0,6.88,0,13.76-.02,20.65.01,1.32,0,1.88-.34,1.87-1.82-.05-15.94-.03-31.88-.03-47.82Z"/>
  <path class="cls-1" d="M510.98,262.9c-2.41-7.1-4.84-14.18-7.24-21.28-3.29-9.73-6.52-19.48-9.82-29.2-3-8.84-6.12-17.64-9.06-26.5-.52-1.58-1.31-1.92-2.81-1.91-7.12.06-14.24.02-21.36.02-15.31,0-30.61.02-45.92-.04-1.62,0-1.89.47-1.55,1.98,2.47,10.99,4.85,22,7.31,32.99,1.61,7.19,3.31,14.37,4.92,21.56,1.65,7.36,3.23,14.74,4.84,22.11,1.34,6.12,2.69,12.23,4,18.35.54,2.52.51,2.53,3.09,2.53,25.39,0,50.79,0,76.18,0h4.17c-.35-1.28-.57-2.25-.88-3.18-1.95-5.81-3.91-11.62-5.88-17.42Z"/>
  <path class="cls-1" d="M317.78,186.18c-1.39,4.62-2.96,9.19-4.49,13.76-2.81,8.39-5.64,16.78-8.48,25.17-2.86,8.43-5.73,16.85-8.62,25.27-2.93,8.55-5.9,17.09-8.83,25.64-.81,2.38-1.55,4.78-2.38,7.33.64.06,1.04.14,1.43.14,25.39,0,50.79-.01,76.18.04,1.62,0,2.15-.67,2.49-2.06,1.56-6.48,3.19-12.94,4.77-19.41,2.18-8.88,4.37-17.76,6.52-26.64,1.93-7.98,3.77-15.98,5.71-23.95,2.09-8.55,4.26-17.08,6.38-25.63.13-.53.12-1.1.18-1.72-1.64-.11-3.05-.28-4.46-.27-4.27.02-8.54.17-12.81.15-11.56-.05-23.13-.11-34.69-.19h-16.73c-1.12.26-1.75.97-2.17,2.37Z"/>
  <path class="cls-1" d="M319.95,183.82h16.73c-5.16-.04-10.32-.07-15.48-.12-.48,0-.89.03-1.25.12Z"/>
  <path class="cls-1" d="M294.53,157.43h-.08c0-5.09,0-10.26-.06-15.43,0-.44-.71-1.05-1.22-1.25-.57-.22-1.29-.08-1.94-.08-33.53,0-67.06,0-100.59,0-.99,0-1.97-.09-3.02-.14,0-4.57,0-8.95,0-13.32,0-3.74.02-3.74,3.66-3.72.59,0,1.19,0,1.78,0,32.94,0,65.87,0,98.81,0,2.53,0,2.58-.04,2.58-2.58,0-20.15,0-40.31.01-60.46,0-3.22,0-3.23-3.22-3.23-60.29,0-120.58,0-180.88,0q-2.59,0-2.59,2.68c0,34.16,0,68.33,0,102.49v25.09c0,31.27,0,62.54-.01,93.81,0,1.33.05,2.26,1.83,2.26,25.4-.04,50.8-.03,76.2-.01,1.33,0,1.86-.37,1.86-1.83-.05-24.01-.04-48.01-.05-72.02,0-.82,0-1.63,0-2.56.66-.04,1.24-.1,1.83-.1,34.24,0,68.48,0,102.72,0,.36,0,.81.13,1.05-.04.48-.34,1.2-.85,1.2-1.29.04-3.66.05-7.32.05-10.99h.07v-37.28Z"/>
</svg>