<?xml version="1.0" encoding="UTF-8"?>
<svg id="Layer_1" data-name="Layer 1" xmlns="http://www.w3.org/2000/svg" viewBox="0 0 1011.08 313.38">
  <defs>
    <style>
      .cls-1 {
        stroke-width: 0px;
      }
    </style>
  </defs>
  <path class="cls-1" d="M.02,207.56c18.91-17.03,37.45-33.73,56.45-50.85C37.64,139.75,19,122.96,0,105.84,39.28,70.48,78.37,35.3,117.59,0c39.26,35.34,78.24,70.42,117.58,105.83-18.88,17-37.4,33.69-56.45,50.85,18.81,16.94,37.42,33.7,56.47,50.86-39.27,35.34-78.23,70.41-117.58,105.83C78.52,278.2,39.55,243.14.02,207.56ZM178.29,156.7c-20.51-18.45-40.5-36.44-60.71-54.62-20.32,18.29-40.32,36.29-60.67,54.6,20.41,18.36,40.49,36.42,60.71,54.62,20.36-18.32,40.26-36.24,60.67-54.61Z"/>
  <path class="cls-1" d="M769.62,244.33V57.8c1.42-.13,2.83-.39,4.25-.39,39.83.02,79.65-.15,119.48.21,18.94.17,37.58,2.74,54.56,12.15,10.4,5.76,19.07,13.38,24.91,23.9,11.37,20.51,5.46,45.13-14.33,59.88-10.85,8.09-23.4,11.76-36.49,14-.98.17-1.97.32-2.94.55-.28.07-.49.41-1.13.98,29.07,24.89,58.09,49.73,87.91,75.26-2.56.14-4.12.31-5.68.31-27,.02-53.99-.07-80.99.1-3.85.02-6.47-1.2-9.1-3.89-21.13-21.52-42.4-42.9-63.6-64.35-.69-.7-1.09-1.68-1.63-2.52-.41.2-.83.41-1.24.61v69.71h-73.97ZM843.52,141.39c3.46,0,6.73.03,10.01,0,11.48-.13,23.05,0,33.84-4.74,8.1-3.56,14.43-9.48,14.36-18.68-.07-9.18-6.2-15.74-14.66-18.27-8.65-2.59-17.82-3.62-26.83-4.7-5.5-.66-11.14-.12-16.72-.12v46.52Z"/>
  <path class="cls-1" d="M276.48,57.6h165.9c.15,1.39.41,2.66.42,3.93.03,15-.1,30,.1,44.99.05,3.8-1.14,4.76-4.83,4.74-26.33-.15-52.66-.08-78.99-.08-1.98,0-3.96,0-6.34,0v19.03h56.21v49.1h-56.42v65.27h-76.05V57.6Z"/>
  <path class="cls-1" d="M543.26,57.8v142.28h82.27v44.23h-155.6V57.8h73.33Z"/>
  <path class="cls-1" d="M659.57,57.67h73.34v186.72h-73.34V57.67Z"/>
  <path class="cls-1" d="M1011.08,72.53c0,9.48-7.44,16.93-17.13,16.93s-17.23-7.44-17.23-16.93,7.65-16.72,17.23-16.72,17.13,7.44,17.13,16.72ZM981,72.53c0,7.44,5.51,13.36,13.05,13.36s12.75-5.91,12.75-13.25-5.4-13.46-12.85-13.46-12.95,6.02-12.95,13.36ZM991.3,81.29h-3.88v-16.72c1.53-.31,3.67-.51,6.42-.51,3.16,0,4.59.51,5.81,1.22.92.71,1.63,2.04,1.63,3.67,0,1.83-1.43,3.26-3.47,3.88v.2c1.63.61,2.55,1.84,3.06,4.08.51,2.55.82,3.57,1.22,4.18h-4.18c-.51-.61-.82-2.14-1.33-4.08-.31-1.83-1.33-2.65-3.47-2.65h-1.83v6.73ZM991.4,71.81h1.83c2.14,0,3.88-.71,3.88-2.45,0-1.53-1.12-2.55-3.57-2.55-1.02,0-1.73.1-2.14.2v4.79Z"/>
</svg>