<?xml version="1.0" encoding="UTF-8"?>
<svg id="Layer_1" data-name="Layer 1" xmlns="http://www.w3.org/2000/svg" viewBox="0 0 1080 209.87">
  <defs>
    <style>
      .cls-1 {
        fill: #cf232a;
        stroke-width: 0px;
      }
    </style>
  </defs>
  <path class="cls-1" d="M597.64,145.52c-1.26,0-2.18,0-3.1,0-6.44,0-12.88,0-19.31,0q-3.66,0-3.67-3.56c0-13.91.1-27.82-.07-41.73-.05-4.34-.45-8.77-1.42-12.98-1.43-6.19-5.83-9.61-12.18-9.21-6.12.38-12.2,1.58-18.26,2.62-.68.12-1.59,1.48-1.63,2.3-.17,4.2-.08,8.41-.08,12.62,0,15.46,0,30.91,0,46.37,0,1.02,0,2.05,0,3.33h-25.9c-.05-.87-.14-1.7-.14-2.53,0-25.33.01-50.66-.05-75.99,0-1.95.42-2.86,2.51-3.26,16.73-3.25,33.4-6.93,50.57-6.89,6.13.01,12.09,1.1,17.63,4,.98.51,2.32.66,3.44.51,10.18-1.38,20.33-2.97,30.52-4.26,6.6-.83,13.21-.44,19.65,1.34,10.11,2.8,16.04,9.71,18.71,19.66,2.1,7.86,2.34,15.93,2.48,23.99.11,6.25.02,12.51.02,19.12.9-.45,1.5-.69,2.04-1.03,3.78-2.37,7.5-4.84,11.33-7.11,1.59-.94,2.18-1.84,2.04-3.84-.62-8.68-.33-17.35,2.04-25.78,3.75-13.36,12.8-21.58,25.99-24.87,11.03-2.75,22.25-2.71,33.33.3,14.66,3.98,23.72,14.78,24.75,29.92.35,5.19.01,10.43-.03,15.65-.01,1.79-.62,2.65-2.73,2.73-37.92,1.44-73,12.18-104.95,32.71-19.95,12.82-37.29,28.58-51.7,47.48-.29.38-.66.71-.99,1.07-.25-.1-.51-.2-.76-.3.49-1.51.72-3.18,1.52-4.5,8.55-14.18,18.84-27,30.37-38.86.89-.92,1.55-2.51,1.55-3.79,0-15.62-.11-31.25-.31-46.87-.03-2.28-.48-4.62-1.09-6.83-1.61-5.75-5.97-9.32-11.93-8.97-5.95.35-11.85,1.58-17.78,2.35-1.96.25-2.44,1.23-2.43,3.1.07,14.77.04,29.54.04,44.31v17.73ZM699.41,98.36c.25,0,.52.06.75,0,10.47-3.13,20.95-6.25,31.38-9.5.56-.17,1.22-1.59,1.07-2.24-.95-4.04-3.37-7.06-7.43-8.07-3.11-.77-6.4-1.13-9.61-1.11-11.09.08-16.87,8.26-16.16,20.93Z"/>
  <path class="cls-1" d="M354.36,147.53c-7.55.38-14.91-.59-21.93-3.37-12.85-5.09-20.03-14.82-22.31-28.25-1.76-10.4-1.7-20.79.8-31.12,3.11-12.82,10.87-21.52,23.4-25.38,13.59-4.18,27.41-4.16,40.96.27,12.24,4,19.66,12.71,22.57,25.19,2.94,12.58,2.9,25.16-.91,37.57-3.74,12.18-12.29,19.65-24.32,22.89-5.89,1.59-12.09,2.01-18.15,2.97-.03-.25-.07-.5-.1-.76ZM335.24,101.48c.31,3.79.46,6.96.85,10.1,1.05,8.46,5.43,13.46,13.25,14.83,2.58.45,5.3.31,7.94.22,7.47-.24,12.53-4.03,14.39-11.26,2.28-8.85,2.24-17.82,0-26.69-1.49-5.92-5.36-9.7-11.43-10.8-2.58-.47-5.27-.54-7.91-.46-8.86.28-14.16,4.72-15.86,13.46-.72,3.68-.88,7.46-1.23,10.6Z"/>
  <path class="cls-1" d="M104.49,145.51v-2.95c0-25.24.03-50.48-.05-75.72,0-2.14.61-2.97,2.7-3.37,17.07-3.29,34.07-7.17,51.59-6.83,7.36.14,14.46,1.71,20.39,6.64,6.51,5.41,8.99,12.83,10.01,20.79.73,5.68,1.04,11.45,1.1,17.18.15,13.65.05,27.3.05,40.95v3.07h-26.06c0-1.03,0-2.03,0-3.02,0-14.51.1-29.02-.08-43.52-.05-4.07-.55-8.24-1.56-12.18-1.4-5.46-5.86-8.86-11.43-8.5-6.29.41-12.52,1.64-18.78,2.51-1.97.27-1.76,1.76-1.76,3.14,0,15.8,0,31.59,0,47.39,0,4.12.07,8.24-.08,12.36-.02.7-.96,1.96-1.49,1.97-8.05.13-16.1.09-24.54.09Z"/>
  <path class="cls-1" d="M295.16,145.35c-.97.06-1.8.17-2.63.17-6.86.01-13.73-.07-20.59.05-2.13.04-2.77-.6-2.76-2.75.09-13.73.08-27.47.02-41.2-.01-3.43-.16-6.87-.5-10.28-.99-9.9-6.72-14.4-17.17-13.29-4.41.47-8.76,1.57-13.16,2.22-2.24.33-2.86,1.38-2.85,3.6.08,19.4.05,38.8.05,58.19,0,1.01,0,2.03,0,3.25h-25.91c-.05-.79-.14-1.61-.14-2.42,0-25.41,0-50.81-.03-76.22,0-1.77.28-2.73,2.33-3.13,17.14-3.39,34.22-7.19,51.83-6.91,6.29.1,12.44,1.34,17.91,4.79,7.48,4.72,10.81,12.05,12.1,20.34.95,6.08,1.46,12.27,1.55,18.42.22,14.16.07,28.32.07,42.49,0,.84-.07,1.68-.12,2.69Z"/>
  <path class="cls-1" d="M403.57,63.82c8.39-1.57,16.52-3.09,24.26-4.54,3.59,10.47,6.8,20.57,10.53,30.47,3.75,9.95,8.62,19.39,14.41,28.91,5.77-9.36,10.59-18.78,14.33-28.68,3.75-9.91,6.99-20.02,10.67-30.69,7.62,1.43,15.8,2.97,24.42,4.59-.88,3.87-1.56,7.44-2.5,10.95-6.65,24.84-17.36,47.79-32.18,68.82-1.03,1.46-2.12,1.92-3.81,1.9-7.3-.07-14.59-.07-21.89,0-1.7.02-2.79-.47-3.81-1.92-16.52-23.51-27.91-49.28-34.19-77.32-.15-.65-.14-1.34-.25-2.49Z"/>
  <path class="cls-1" d="M1020.91,77.89c-2.46,0-4.67.07-6.88-.01-7.12-.26-14.23-.64-21.35-.81-2.38-.06-4.83.11-7.16.61-6.88,1.47-10.81,5.98-12.16,12.74-1.62,8.09-1.59,16.22.3,24.25,1.82,7.72,6.96,11.94,14.94,11.94,10.2,0,20.41-.48,30.61-.75.49-.01.98,0,1.67,0,.66,5.99,1.31,11.84,1.99,18-3.85.71-7.5,1.68-11.2,1.99-8.7.73-17.44,1.69-26.14,1.54-11.58-.2-22.05-3.85-30.13-12.77-5.23-5.77-7.58-12.8-8.64-20.28-1.46-10.27-1.33-20.52,1.29-30.65,3.78-14.6,14.77-23.39,29.09-26.05,12.95-2.41,25.79-.76,38.61,1.24,1.52.24,3.04.69,4.56.71,2.2.03,2.54,1.12,2.31,2.97-.61,5.01-1.13,10.04-1.71,15.35Z"/>
  <path class="cls-1" d="M800.78,38.37v20.44c7.78-.86,15.14-1.68,22.97-2.55v7.02c0,4.04-.1,8.07.04,12.1.07,1.97-.72,2.36-2.51,2.57-6.11.71-12.18,1.7-18.28,2.5-1.77.23-2.22,1.17-2.21,2.79.12,11.67.11,23.35.3,35.02.08,5.28,2.39,7.34,7.75,7.37,5.05.03,10.09,0,15.42,0,.53,4.39,1.11,8.61,1.53,12.85.21,2.17.98,4.97-.04,6.37-.92,1.27-3.91,1.14-6.01,1.44-8.85,1.25-17.72,2.15-26.61.35-10.55-2.13-15.74-7.43-17.45-18.15-.63-3.97-1.03-8.01-1.04-12.03-.1-23.35-.03-46.7-.1-70.06,0-2.07.45-3.01,2.65-3.4,7.73-1.38,15.42-3,23.59-4.63Z"/>
  <path class="cls-1" d="M842.08,145.38c0-1.07,0-1.75,0-2.44,0-25.41.02-50.81-.04-76.22,0-1.99.48-2.88,2.55-3.2,14.2-2.23,28.37-4.59,42.57-6.85,1.23-.2,2.52-.03,4.07-.03,0,6.7.01,13.2,0,19.7,0,1.94-1.56,1.4-2.65,1.55-5.92.84-11.83,1.74-17.76,2.47-2.27.28-2.67,1.45-2.66,3.48.06,19.48-.01,38.97.09,58.45.01,2.6-.69,3.37-3.3,3.29-6.6-.19-13.21-.06-19.82-.07-.92,0-1.84-.08-3.04-.14Z"/>
  <path class="cls-1" d="M931.32,102.23c0,13.39-.06,26.78.05,40.17.02,2.47-.68,3.24-3.17,3.18-6.77-.16-13.56-.13-20.33-.01-2.19.04-2.77-.76-2.76-2.83.05-25.32.06-50.64-.02-75.96,0-2.2.83-3,2.83-3.37,7.15-1.31,14.29-2.69,21.43-4.11,2.46-.49,1.96,1.23,1.97,2.5.02,13.48.01,26.95.02,40.43Z"/>
  <path class="cls-1" d="M83.06,58.88c.08,1.47.18,2.47.18,3.48,0,26.6.01,53.21,0,79.81,0,3.35-.01,3.35-3.39,3.36-6.78,0-13.56-.04-20.33.03-1.76.02-2.4-.51-2.4-2.34.05-25.66.02-51.32.08-76.98,0-.81.66-2.22,1.23-2.34,8.08-1.75,16.2-3.33,24.62-5.02Z"/>
  <path class="cls-1" d="M755.75,125.72c.56,5.15,1.09,10.08,1.65,15.01.16,1.36-.28,1.94-1.72,2.22-14.24,2.72-28.5,5.21-43.08,4.54-9.32-.43-18.12-2.61-25.74-8.36-.68-.52-1.34-1.07-1.98-1.64-.37-.33-.68-.73-1.19-1.29,23.41-8,47.44-10.02,72.06-10.48Z"/>
</svg>