<?xml version="1.0" encoding="UTF-8"?>
<svg id="Layer_1" data-name="Layer 1" xmlns="http://www.w3.org/2000/svg" viewBox="0 0 2305.18 412.49">
  <defs>
    <style>
      .cls-1, .cls-2 {
        stroke-width: 0px;
      }

      .cls-2 {
        fill: #ea0437;
      }
    </style>
  </defs>
  <path class="cls-1" d="M1608.45,264.44V.59h65.02v401.54c-1.63.33-2.88.81-4.14.82-18.3.05-36.61.03-55.68.03-57.49-89.06-115.02-178.17-172.47-267.16-1.01.42-1.36.5-1.62.7-.23.17-.46.44-.52.71-.15.64-.23,1.31-.28,1.97-.05.66-.04,1.33-.04,2-.01,85.57-.03,171.15-.04,256.72,0,.33,0,.67-.03,1-.03.33-.08.66-.13.99-.05.33-.04.68-.16.98-.12.29-.38.53-1.1,1.47h-61.07c-2.08-6.59-2.97-383.01-.78-401.28,2.35-.27,4.87-.78,7.4-.8,14.65-.08,29.32.33,43.96-.21,6.93-.25,10.71,2.35,14.35,8.03,52.9,82.73,106.04,165.31,159.13,247.92,1.95,3.03,4.01,5.99,6.01,8.98.73-.19,1.47-.37,2.2-.56Z"/>
  <path class="cls-1" d="M2103.4,162.32h182.5v59.81h-183.14c-.37,3.58-.86,6.11-.86,8.65-.06,25.31-.05,50.61-.01,75.92,0,2.99.08,6.01.42,8.97,1.61,13.85,10.02,22.43,23.77,24.13,3.62.45,7.31.33,10.97.33,51.96.02,103.92.01,155.88.01h12.25v62.39c-3.24.26-6.12.68-9,.68-55.96.04-111.92.19-167.87-.12-10.58-.06-21.4-.9-31.68-3.27-34.66-7.99-57.81-35.14-62.16-72.16-1.12-9.55-1.41-19.24-1.42-28.87-.12-67.59-.19-135.18.07-202.78.04-10.58.9-21.35,3.03-31.7,6.18-30.05,24.97-49.49,53.77-58.81,9.67-3.13,20.19-4.96,30.35-5.04,56.29-.48,112.58-.24,168.87-.21,1.95,0,3.9.35,6.77.62-1.41,2.83-2.36,5.19-3.68,7.33-9.06,14.75-18.43,29.31-27.18,44.24-3.11,5.3-6.77,7.02-12.77,6.98-37.64-.25-75.27-.2-112.91-.05-5.95.02-12.03.51-17.81,1.82-11.57,2.62-19.2,11.02-19.41,22.37-.45,24.96-.16,49.94-.12,74.91,0,.9.62,1.81,1.36,3.84Z"/>
  <path class="cls-1" d="M678.58.89c-8.51,13.79-15.98,25.9-23.46,38.02-2.8,4.53-5.95,8.88-8.31,13.63-2.76,5.54-6.78,6.95-12.79,6.91-37.64-.27-75.27-.21-112.91-.06-5.95.02-12.03.5-17.81,1.83-11.37,2.61-19.3,11.2-19.52,22.42-.49,25.6-.16,51.22-.16,78.29,61.51.74,122.57-.05,183.98.45v59.98h-183.2c-.34,3.07-.86,5.59-.87,8.1-.06,25.97-.11,51.94.05,77.91.03,4.27.65,8.65,1.77,12.78,2.79,10.29,9.69,16.48,20.25,18.2,3.91.64,7.95.75,11.93.75,52.29.05,104.59.03,156.88.03h12.35v62.33c-2.89.26-5.74.74-8.59.74-55.96.04-111.91.17-167.87-.11-10.26-.05-20.76-.72-30.71-3.01-34.45-7.9-54.32-30.57-61.82-64.43-1.85-8.37-2.6-17.15-2.62-25.74-.17-71.59-.12-143.17.08-214.76.03-9.27.45-18.69,2.08-27.79,5.69-31.82,24.72-52.5,55.26-62.09,9.7-3.05,20.22-4.75,30.38-4.83,55.29-.46,110.58-.23,165.87-.2,2.6,0,5.2.33,9.75.64Z"/>
  <path class="cls-1" d="M1314,1.05c-12.39,20.11-24.01,38.98-35.88,58.26-3.79,0-7.43,0-11.07,0-36.63,0-73.26-.09-109.89.09-6.28.03-12.71.52-18.78,1.98-11.23,2.69-18.84,11.46-19.02,22.84-.41,24.95-.07,49.92,0,74.88,0,.6.47,1.19,1.22,2.97h182.44v60.45h-183.52c-.2,4-.46,6.92-.47,9.83-.03,24.63-.03,49.27,0,73.9,0,2.99-.02,6.01.37,8.97,1.99,15.19,11.21,23.81,26.48,24.84,2.98.2,5.99.09,8.99.09,51.62,0,103.23,0,154.85,0h12.5v62.12c-2.32.31-4.82.93-7.32.93-57.28.04-114.55.15-171.83-.14-9.58-.05-19.4-.9-28.69-3.11-33.96-8.09-53.59-30.56-61.05-63.99-1.87-8.37-2.67-17.14-2.69-25.73-.17-71.57-.13-143.14.08-214.71.03-9.6.47-19.36,2.2-28.77,5.78-31.36,24.69-51.82,54.78-61.34,9.99-3.16,20.86-4.85,31.35-4.94,54.94-.48,109.89-.24,164.83-.2,2.82,0,5.65.43,10.11.8Z"/>
  <path class="cls-2" d="M.02,411.88c0-2.91,0-5.82,0-8.73,0-102.53-.1-205.07.15-307.6.03-10.89.9-22.05,3.4-32.6C11.61,29.09,34.99,10.87,67.74,3.46c7.72-1.75,15.82-2.54,23.74-2.57,54.28-.22,108.56-.13,162.84-.11,2.27,0,4.53.32,8.67.64C175.62,139.14,88.91,275.82,2.21,412.49c-.73-.2-1.46-.41-2.19-.61Z"/>
  <path class="cls-1" d="M2006.15,344.14v58.15c-2.83.32-5.36.84-7.89.84-55.61.04-111.23.17-166.84-.12-9.92-.05-20.07-.84-29.7-3.06-32.25-7.46-52.11-28.25-60.32-59.9-2.56-9.88-3.9-20.36-3.94-30.57-.29-70.91-.2-141.81.08-212.72.04-10.59.73-21.37,2.8-31.72,6.18-30.87,25.29-50.75,55.08-59.88,9.72-2.98,20.22-4.73,30.38-4.81,55.28-.46,110.56-.23,165.84-.2,2.58,0,5.17.35,8.7.61-1.52,2.99-2.51,5.35-3.84,7.5-9.09,14.72-18.49,29.27-27.26,44.18-3.12,5.3-6.8,6.99-12.79,6.95-37.63-.25-75.26-.18-112.89-.06-5.29.02-10.68.37-15.85,1.41-14.06,2.83-21.22,11.51-21.61,25.75-.19,6.99-.05,13.98-.05,20.97,0,65.91,0,131.83.02,197.74,0,4.66-.06,9.34.41,13.97,1.44,14.29,10.09,23.03,24.32,24.69,3.29.38,6.65.27,9.98.27,50.95.01,101.9.01,152.85.01,3.91,0,7.82,0,12.53,0Z"/>
  <path class="cls-1" d="M701.86.98c3.87-.33,6.42-.72,8.96-.73,18.99-.05,37.98.3,56.95-.2,6.77-.18,10.03,2.47,13.06,8.09,27.28,50.7,54.81,101.27,82.28,151.87,1.73,3.18,3.56,6.31,6.27,11.09,2.37-3.94,4.2-6.81,5.88-9.78,28.72-50.67,57.56-101.28,85.98-152.11,3.72-6.66,7.68-9.47,15.51-9.19,17.63.65,35.3.2,52.95.2h11.83c-3.02,5.13-5.09,8.77-7.27,12.34-43.22,70.72-86.39,141.47-129.77,212.1-3.64,5.93-5.29,11.74-5.26,18.7.22,49.28.12,98.56.12,147.84,0,3.57,0,7.15,0,11.26h-65.62v-11.23c0-50.28-.07-100.56.09-150.84.02-6.23-1.47-11.56-4.57-16.94-40.53-70.37-80.92-140.83-121.33-211.27-1.94-3.37-3.71-6.84-6.07-11.2Z"/>
  <path class="cls-1" d="M192.41,194.57c1.66-2.69,3.17-5.25,4.79-7.73,38.77-59.37,77.68-118.66,116.18-178.2,4.18-6.46,8.59-8.8,16.12-8.58,17.97.53,35.97.17,53.96.17,3.27,0,6.55,0,11.93,0-20.7,33.37-41.38,64.54-61.59,96-20.14,31.34-40.35,62.64-60.89,94.51,41.54,70.21,83.01,140.28,125.17,211.53-3.05.35-4.84.72-6.63.73-21.65.04-43.3-.07-64.96.11-4.71.04-7.99-.96-10.66-5.35-40.64-66.84-81.45-133.58-122.21-200.35-.34-.56-.53-1.22-1.22-2.85Z"/>
</svg>