<?xml version="1.0" encoding="UTF-8"?>
<svg id="Layer_1" data-name="Layer 1" xmlns="http://www.w3.org/2000/svg" viewBox="0 0 2302.38 394.96">
  <defs>
    <style>
      .cls-1 {
        fill: #f25c19;
        stroke-width: 0px;
      }
    </style>
  </defs>
  <path class="cls-1" d="M2302.38,386.44c-9.1.78-119.3,1-134.82.33-3.87-7.05-6.47-14.82-9.5-22.43-3.04-7.64-6.82-14.99-9.98-22.59-3.13-7.54-6.31-15.04-9.75-22.1-8.87-.78-237.34-.84-246.4-.1-9.75,22.09-18.54,44.74-28.33,66.2-1.02.59-1.29.77-1.59.91-.3.14-.62.33-.93.33-44.26.01-88.52.01-132.81.01-1.55-1.83.78-2.87.76-4.38-.01-1.23.67-2.53,1.26-3.7,4.11-8.26,7.08-17,10.71-25.46,3.63-8.46,7.07-17.02,10.8-25.42,6.68-15.04,12.54-30.41,19.31-45.41,3.24-7.19,6.32-14.46,9.16-21.81,2.85-7.36,6.21-14.5,9.12-21.83,2.42-6.09,5.22-12.08,7.77-18.15,2.42-5.76,5.67-11.25,7.41-17.2,1.68-5.77,5.02-10.69,6.78-16.42,2.01-6.57,5.34-12.73,8.14-19.06,4.78-10.82,8.95-21.9,13.74-32.71,4.13-9.33,7.88-18.81,11.86-28.19,6.81-16.04,14.09-31.86,20.26-48.18,1.97-5.21,4.45-10.26,6.7-15.39,5.55-12.65,11.02-25.33,16.08-38.18.7-1.78,1.87-3.39,2.86-5.15h248.54c1.32,2.47,3.18,5.21,4.31,8.23,5.44,14.46,12.16,28.38,17.74,42.79,3.91,10.12,8.52,19.97,12.81,29.95,6.36,14.81,13.01,29.5,19,44.45,6.97,17.41,14.75,34.46,21.86,51.8,7.12,17.35,14.92,34.4,21.86,51.8,7.06,17.71,15.37,34.89,21.84,52.84,2.34,6.48,5.67,12.6,8.36,18.97,4.48,10.6,8.78,21.27,13.23,31.88,2.54,6.07,5.22,12.08,7.84,18.11,4.59,10.56,9.2,21.12,13.73,31.71.37.86.18,1.96.29,3.54ZM1987.39,95.79c-1,1.22-1.86,1.89-2.23,2.77-2.64,6.37-5.06,12.83-7.77,19.17-6.58,15.43-13.38,30.77-19.88,46.23-7.26,17.28-14.18,34.7-21.9,51.78-2.17,4.79-4.22,9.64-6.28,14.48-.93,2.17-1.47,4.39.79,7.14,56.01,0,112.53,0,169.26,0,1.12-1.03,2.29-2.09,3.34-3.05-19.66-46.45-39.13-92.44-58.48-138.15-8.44-.88-41.69-1.08-56.86-.37Z"/>
  <path class="cls-1" d="M952.07,1.78c1.16-.65,1.98-1.44,2.88-1.54,1.97-.23,3.99-.14,5.98-.14,34.98,0,69.95-.01,104.93.02,2.27,0,4.65-.61,7.22,1.03.08,1.3.25,2.9.25,4.5,0,85.91-.03,171.82-.06,257.73,0,2-.04,4-.09,5.99-.08,3.33.43,6.82-.41,9.95-1.88,7.01-2.24,14.26-4.08,21.26-2.09,7.95-4.43,15.91-8.01,23.21-4.48,9.15-9.49,18.16-16.64,25.69-6.18,6.52-12.74,12.6-20.07,17.82-1.07.76-2.26,1.34-3.39,2.02-12.53,7.44-25.94,12.84-39.84,17.11-3.48,1.07-7.42-.14-10.56,2.33-5.98-.01-11.53,3.08-17.6,2.42-12.42,3-25.18.88-37.62,2.35-19.25,2.28-38.47.93-57.7,1.25-19.65.33-39.3.07-58.96.07s-38.64.01-57.96-.01c-2.63,0-5.22.13-7.83-.99-1.72-.74-3.9-.47-5.88-.5-5.99-.1-11.99,0-17.98-.23-5.92-.21-11.98.73-17.67-1.81-5.7.42-11.13-1.19-16.62-2.23-19.54-3.69-38.03-9.98-55-20.77-21.66-13.77-35.34-33.32-43.51-57.16-3.53-10.31-4.38-19.04-6.46-29.76-2.19-11.26-1.63-22.46-1.65-33.68-.13-78.92-.07-157.84-.07-236.75,0-3.3,0-6.6,0-9.54.71-.57.94-.82,1.23-.97.28-.15.61-.27.92-.27,38.97-.03,77.94-.05,116.91-.03.6,0,1.21.37,2.26.71.76,3.01.35,6.32.35,9.57.03,69.59.02,139.19.02,208.78,0,5.33-.06,10.66.08,15.98.11,3.94-.15,7.83,1.46,11.74,1.08,2.62.56,5.91.72,8.29,1.45,3.95,2.6,7.38,3.97,10.73,5.39,13.17,15.51,21.21,28.69,25.5,7.5,2.44,15.22,4.15,23.22,4.16,28.31.01,56.63.08,84.94.08,20.98,0,41.97-.04,62.95-.13,12.54-.05,24.06-4.04,34.6-10.42,5.03-3.05,9.27-7.47,12.14-12.94,3.68-7.04,7.36-14.05,7.59-22.25,2.46-5.69,1.84-11.72,1.84-17.65.05-73.26.05-146.51.08-219.77,0-3.62-.34-7.27.4-10.76Z"/>
  <path class="cls-1" d="M1360.28,237.52h-51.59c-.83.64-1.85,1.42-2.9,2.23-.21,1.06-.56,2.01-.56,2.97-.03,25.64-.03,51.27-.03,76.91,0,19.64.03,39.29-.04,58.93,0,2.58.65,5.26-.56,7.69-.72.28-1.31.72-1.9.72-39.3.03-78.59.03-117.7.03-1.88-1.23-1.45-2.99-1.48-4.58-.05-2.33-.01-4.66-.01-6.99,0-120.86,0-241.71,0-362.57,0-3.63.11-7.26.17-10.78,1.18-.75,1.95-1.6,2.83-1.72,1.96-.28,3.97-.25,5.96-.25,35.3-.01,70.61-.01,105.91,0,1.95,0,3.9.08,5.5.12.6.66.88.87,1.01,1.14.14.29.18.65.18.98,0,45.94,0,91.87,0,137.71,1.01,1.21,1.85,2.21,2.78,3.32h56.56c3.9-3.25,7.93-7.3,12.61-10.34,7.29-4.74,12.77-11.49,19.75-16.61,6.1-4.47,11.33-10.16,17.37-14.85,7.84-6.08,14.96-13.02,22.79-19.15,5.72-4.48,10.74-9.83,16.56-14.28,8.14-6.24,15.44-13.49,23.57-19.78,6.54-5.06,12.29-11.14,18.82-16.22,7.06-5.49,13.3-11.91,20.52-17.23,6.11-4.51,11.65-9.79,17.34-14.64h170.35c-.57,2.62-2.66,3.73-4.23,5.1-3.49,3.03-7.09,5.97-10.79,8.74-10.05,7.54-19.71,15.56-29.47,23.47-11.29,9.15-22.93,17.86-34.3,26.91-8.28,6.59-16.31,13.5-24.58,20.12-8.25,6.6-16.67,12.99-24.98,19.51-3.91,3.06-7.77,6.18-11.61,9.32-11.53,9.41-22.97,18.93-34.6,28.22-11.35,9.07-22.92,17.87-34.33,26.87-7.27,5.73-14.43,11.6-21.61,17.45-1,.82-1.79,1.89-2.96,3.15,1.54,3.54,4.53,5.67,7.26,7.93,5.59,4.64,11.45,8.96,16.98,13.68,8.05,6.88,16.03,13.84,24.34,20.41,5.97,4.72,11.49,10.01,17.34,14.89,5.83,4.87,11.85,9.51,17.74,14.31,4.37,3.55,8.29,7.57,12.88,10.93,6.13,4.49,11.55,9.94,17.4,14.82,5.84,4.87,11.86,9.51,17.75,14.31,4.36,3.56,8.33,7.53,12.87,10.94,6.61,4.97,12.55,10.81,18.85,16.2,3.01,2.58,6.19,4.96,9.27,7.45,2.82,2.28,5.64,4.57,8.43,6.9,5.09,4.24,10.18,8.48,15.21,12.79,5.79,4.96,11.44,10.08,17.29,14.96,5.84,4.86,11.88,9.49,17.8,14.25.76.61,1.36,1.43,2.01,2.13-.13.3-.17.6-.33.71-.26.18-.6.33-.91.33-56.62.01-113.23.01-170.24.01-1.8-1.59-3.79-3.32-5.73-5.09-8.31-7.59-16.69-15.12-25.66-21.94-.53-.4-.98-.9-1.47-1.35-8.13-7.33-15.96-15.05-24.49-21.88-6.72-5.38-12.44-11.94-19.77-16.56-.55-.35-.99-.88-1.49-1.33-8.13-7.33-16.23-14.71-24.41-21.98-3.21-2.85-6.66-5.43-9.94-8.21-3.28-2.77-5.85-6.39-9.88-8.29-.58-.27-1.02-.85-1.51-1.29-7.89-7.1-15.75-14.24-23.7-21.28-3.96-3.51-8.06-6.87-12.12-10.27-4.06-3.39-8.14-6.75-12.14-10.05Z"/>
  <path class="cls-1" d="M519.46,386.47c-11.43,1.04-111.11,1.32-170.02.51-7.17-4.89-13.07-11.29-19.85-16.51-6.84-5.27-12.24-12.18-19.72-16.62-.56-.33-.98-.9-1.48-1.34-8.13-7.33-15.85-15.21-24.53-21.83-7.67-5.85-13.91-13.21-21.84-18.77-5.38-3.77-9.84-8.82-15.02-13-8.25-6.65-15.85-14.12-23.79-21.16-3.46-3.07-7.13-5.9-10.66-8.9-3.28-2.78-5.97-6.17-9.82-8.38-2.25-1.29-3.92-3.57-5.92-5.32-6.72-5.9-13.48-11.77-20.15-17.59-17.5,0-34.81,0-52.12.03-.59,0-1.18.43-1.77.66-.22.24-.49.46-.63.74-.14.29-.19.64-.23.97-.08.66-.17,1.32-.17,1.98,0,47.94,0,95.87,0,144.29-1.26.29-2.46.8-3.66.8-38.3.04-76.59.03-114.89,0-.64,0-1.28-.21-1.95-.32-1.68-1.15-1.14-2.93-1.19-4.5-.08-2.33-.02-4.66-.02-6.99,0-121.18,0-242.35,0-363.53,0-3.6.13-7.21.2-10.5C2.79-.53,5.18.12,7.44.12c37.28.09,74.56.24,111.83.39.28,0,.58.28.85.47.27.19.5.44.75.66.16.29.34.57.47.86.13.3.31.62.31.93.1,45.93.19,91.87.29,137.8,0,.32.13.64.26,1.22.73.31,1.6,1.01,2.47,1.01,18.63.06,37.27.05,55.79.05,6.7-5.78,12.85-11.93,19.85-16.89,7.08-5.01,12.69-11.58,19.76-16.6,6.72-4.78,12.3-11.12,18.87-16.15,7.1-5.44,13.03-12.27,20.58-17.15.83-.53,1.49-1.32,2.22-2,7.71-7.29,15.97-13.9,24.28-20.49,5.97-4.73,11.36-10.18,17.33-14.91,7.53-5.96,14.14-12.99,22.03-18.51,1.89-1.32,3.39-3.19,5.15-4.71,5.26-4.56,10.51-9.12,15.88-13.55,1.24-1.02,2.93-1.51,4.88-2.47h84.43c13.99,0,27.97,0,41.96,0,13.86,0,27.72-.01,41.84.01-.45,1.55-.43,2.39-.83,2.71-9.24,7.5-18.48,14.99-27.82,22.37-8.29,6.56-16.76,12.88-25.01,19.48-8.27,6.61-16.3,13.51-24.57,20.13-8.25,6.6-16.7,12.96-24.98,19.51-4.67,3.7-9.15,7.64-13.81,11.35-8.52,6.79-17.13,13.47-25.68,20.23-4.15,3.28-8.23,6.67-12.37,9.97-9.56,7.63-19.17,15.18-28.68,22.86-8.23,6.65-16.3,13.51-24.55,20.15-8.23,6.63-16.58,13.1-24.86,19.67-.19.15-.15.61-.3,1.28.37.57.71,1.57,1.4,2.11,7.61,5.85,14.99,11.97,22.17,18.34,2.96,2.63,6.16,4.99,9.26,7.47,2.84,2.27,5.72,4.49,8.5,6.82,4.31,3.61,8.29,7.58,12.86,10.95,6.12,4.51,11.26,10.37,17.47,14.71,7.11,4.97,12.64,11.64,19.8,16.56,5.97,4.1,11.08,9.45,16.67,14.12,6.08,5.09,12.3,10.01,18.42,15.05,4.86,4,9.7,8.02,14.48,12.11,5.79,4.95,11.44,10.08,17.3,14.95,5.59,4.64,11.45,8.95,17.04,13.6,6.11,5.09,11.99,10.46,18.07,15.59,6.32,5.32,13.07,10.16,19.07,15.81,6.72,6.33,14.85,11.09,20.9,18.48Z"/>
</svg>