<?xml version="1.0" encoding="UTF-8"?>
<svg id="Layer_1" data-name="Layer 1" xmlns="http://www.w3.org/2000/svg" viewBox="0 0 3558.05 1810.26">
  <defs>
    <style>
      .cls-1 {
        fill: #e13c32;
      }

      .cls-1, .cls-2 {
        stroke-width: 0px;
      }

      .cls-2 {
        fill: #002f6c;
      }
    </style>
  </defs>
  <path class="cls-2" d="M917.97,1354.81c1.6-7.67,2.37-12.8,3.74-17.76,50.19-181.65,100.46-363.29,150.65-544.94,35.06-126.9,69.98-253.85,105.05-380.75,36.37-131.62,72.95-263.18,109.07-394.87,3.23-11.79,8.86-16.46,21.26-16.45,267.13.24,534.26.17,801.39.2,4.02,0,8.03.65,15.23,1.27-78.06,297.62-155.72,593.72-233.86,891.62,6.58,1.01,11.17,2.24,15.79,2.33,14.29.27,28.59.12,42.89.12,487.61,0,975.21,0,1462.82,0h24.13c-43.06,154.96-85.17,306.53-127.59,459.21H917.97Z"/>
  <path class="cls-2" d="M3441.69,831.66c-4.36.37-8.73,1.07-13.09,1.07-225.7.05-451.4-.03-677.1.21-11.59.01-19.56-3.76-27.01-12.68-37.6-45.03-75.8-89.56-113.67-134.37-2.38-2.82-3.76-6.48-5.6-9.75-1.45.79-2.9,1.58-4.36,2.36-1.56,4.35-3.55,8.6-4.63,13.07-9.9,41.33-19.59,82.7-29.46,124.04-3.91,16.36-4.79,17.09-21.06,17.09-176.05-.01-352.09-.07-528.14-.18-4.38,0-8.76-.73-16.34-1.41,70.53-277.06,140.67-552.59,211.1-829.25h554.32c-9.56,43.7-18.65,85.23-27.74,126.76.91.63,1.82,1.26,2.72,1.9,4.43-3.5,9.12-6.71,13.23-10.55,38.52-35.9,77.12-71.71,115.24-108.04C2878.92,3.54,2888.05-.02,2900.24,0c213.66.28,427.33.19,640.99.22,5.09,0,10.18.46,15.27.7.51,1.06,1.03,2.13,1.54,3.19-155.64,131.45-311.29,262.9-468.65,395.81,118.96,143.72,236.7,285.95,354.43,428.19-.71,1.18-1.43,2.37-2.14,3.55Z"/>
  <path class="cls-2" d="M104.36.3c121.95.2,242.31-.54,363.7.47,1.55,8.04,3.04,13.39,3.55,18.82,12.49,131.29,53.27,252.08,134.83,357.07,52.87,68.06,119.51,119.3,198.26,154.49,61.29,27.39,125.64,43.5,192.2,51.22,2.89.34,5.72,1.2,11.67,2.49-25.72,92.83-51.19,184.78-77.15,278.49-21.02-2.63-40.37-4.47-59.51-7.54-89.53-14.34-176.43-38.08-259.1-75.71-75.09-34.18-143.97-78.14-205.49-133.41-147.36-132.4-234.7-299.23-279.23-489.94-10.91-46.7-16.01-94.77-23.65-142.22-.58-3.58-.08-7.33-.08-14.22Z"/>
  <path class="cls-2" d="M15.14,28.09c8.88,50,16.38,100.57,27.02,150.46,21.06,98.77,56.21,192.6,103.59,281.84,53.06,99.93,120.42,188.94,204.39,264.83,66.46,60.07,140.33,109.44,220.69,149.42,98.12,48.81,201.55,80.73,308.87,101.12,5.03.96,9.91,2.69,17.66,4.84-34.86,123.78-69.39,246.42-104.4,370.76-13.17-2.11-24.25-3.46-35.15-5.68-129.72-26.44-248.89-77.53-356.35-154.91-160.72-115.73-268.75-270.11-332.47-456.61C29.05,617.28,8.98,496.8,2.58,373.69-3.33,259.98,1.08,146.71,14.25,33.7c.25-2.18.68-4.33.89-5.61Z"/>
  <path class="cls-2" d="M509.2,1.54h207.15c.66,5.58,1.45,10.59,1.82,15.63,6.03,80.48,33.5,151.68,92.12,208.74,43.18,42.03,95.66,67.96,154.03,80.48,34.01,7.3,69.08,9.63,103.68,14.21,3.97.52,7.92,1.15,14.25,2.07-14.8,52.03-29.2,102.67-43.98,154.64-16.96-1.38-32.23-2.3-47.41-3.91-75.82-8.09-148.85-26.58-216.85-61.7-102.41-52.89-176.42-132.67-222.21-238.56-21.03-48.64-35.24-99.13-41.66-151.75-.71-5.81-.59-11.72-.95-19.84Z"/>
  <path class="cls-1" d="M1100.31,263.18c-93.19,2.15-178.93-15.07-249.96-77.84-55.08-48.67-87.31-110.55-101.31-184.52h424.48c-24.52,87.85-48.7,174.52-73.21,262.35Z"/>
  <path class="cls-2" d="M2941.4,1745.63c-6.01-.41-11.5-1.09-16.99-1.11-46.25-.17-92.53.74-138.73-.8-17.67-.59-35.82-4.78-52.56-10.72-23.18-8.22-34.53-26.74-34.61-51.61-.08-23.31-.21-46.62-.04-69.93.23-32.11,13.75-51.29,44.93-59.21,18.41-4.68,37.77-7.37,56.75-7.68,38.3-.62,76.67.35,114.95,1.97,19.24.81,37.96,5.64,53.52,18.38,11.38,9.32,18.23,21.2,18.29,36,.22,51.5.36,103.01-.1,154.52-.17,19-10.25,33.75-27.16,40.98-14.93,6.39-31.33,10.9-47.46,12.55-21.22,2.18-42.81.97-64.24.79-12.45-.1-16-4.07-16.26-16.39-.27-12.83,3.48-17.85,15.86-18.34,19.53-.78,39.11-.16,58.63-1.13,8.07-.4,16.43-2.35,23.89-5.46,8.42-3.51,13.58-10.41,11.32-22.83ZM2942.43,1708.92c.63-6.22,1.56-11.32,1.59-16.42.16-22.92.14-45.83.06-68.75-.1-28.78-8.82-40.55-37.97-42.15-39.68-2.17-79.54-1.29-119.33-1.07-7.71.04-15.62,2.36-23.04,4.83-14.98,4.99-20.47,12.75-20.65,28.47-.24,20.66-.22,41.33-.03,61.99.15,16.07,5.93,24.13,21.33,29.16,6.36,2.07,13.17,3.69,19.81,3.8,48.81.86,97.63,1.32,146.44,1.79,3.28.03,6.57-.89,11.78-1.65Z"/>
  <path class="cls-2" d="M1113.59,1561.71c45.09-23.53,91.4-18.57,137.49-14.64,8.11.69,16.27,3.32,23.93,6.27,21.73,8.36,36.55,23.25,37.12,47.58,1.03,43.96,1.27,87.96.95,131.93-.11,14.79-6.4,18.63-23.63,18.19-15.41-.4-20.04-4.43-20.14-19.23-.26-36.48-.05-72.97-.19-109.45-.11-28.07-7.57-38.24-35.35-40.88-21.9-2.08-44.38-1.84-66.25.53-24.05,2.6-30.87,11.94-31.11,36.14-.37,36.48-.07,72.97-.21,109.45-.08,20.75-14.51,29.88-33.97,21.86-8.75-3.61-9.16-11.15-9.19-18.81-.1-33.47-.03-66.95-.18-100.42-.03-7.88-.33-15.79-1.06-23.64-1.01-10.79-6.8-18.48-17.29-21.4-31.1-8.65-62.52-8.45-93.57-.44-14.68,3.79-20.55,13.85-20.68,31.08-.26,36.86-.07,73.72-.17,110.58-.06,21.41-5.81,26.27-27.31,24.53-10.91-.88-16.87-6.35-16.9-17.08-.13-42.87-.42-85.74.32-128.6.51-29.86,18.79-46.65,45.67-54.49,30.03-8.76,61.04-7.25,91.88-5.98,21.29.87,41.79,4.95,59.84,16.92Z"/>
  <path class="cls-2" d="M1392.5,1668.71c-6.48,17.95-2.15,32.32,13.46,37.93,13.52,4.86,28.35,6.75,42.78,8.21,13.41,1.36,27.05.44,40.58.48,10.01.03,14.03,5.6,14.25,15,.22,9.35-.91,18.48-12.68,18.73-35.25.75-70.84,3.6-105.05-8.04-23.66-8.05-39.58-23.67-40.19-50.1-.68-29.28-.83-58.62.14-87.89.86-26.21,16.4-42.92,40.64-49.45,19.06-5.14,39.11-8.51,58.81-8.95,39.05-.87,78.21-.15,117.22,1.95,14.99.81,30.32,5.64,44.33,11.46,17.18,7.13,26.67,21.88,27.72,40.69.9,16.12.78,32.33.56,48.49-.21,15.73-4.42,19.95-20.5,20.03-47.01.24-94.02.13-141.02.16-22.56.01-45.13-.04-67.69.09-4.42.03-8.84.78-13.34,1.21ZM1587.87,1631.41c10.59-26.99-1.14-47.68-29.28-49.15-40.47-2.11-81.09-1.81-121.64-1.54-10.26.07-21.05,2.51-30.61,6.33-16.75,6.7-22.38,27.4-12.78,44.36h194.31Z"/>
  <path class="cls-2" d="M3263.84,1746.32c-5.88-.64-11.25-1.71-16.62-1.74-45.5-.22-91,.34-136.48-.67-15.21-.34-30.77-3.06-45.4-7.32-29.31-8.55-42.92-26.54-43.52-57.1-.76-38.34-.44-76.7-.1-115.05.15-16.78,5.65-21.13,23.54-20.78,16.23.31,20.74,4.6,20.82,20.93.17,35.34-.02,70.69.09,106.03.07,22.46,7.13,31.32,29.04,35.93,6.94,1.46,14.15,2.16,21.25,2.2,44.37.28,88.73.31,133.1.28,4.35,0,8.7-1.03,14.34-1.74.47-6.27,1.23-11.75,1.24-17.23.11-40.98,0-81.97.12-122.95.07-20.93,17.76-31.53,36.16-20.82,4.34,2.53,7.66,10.27,7.9,15.77.94,21.39.49,42.85.49,64.28,0,39.86.16,79.71-.1,119.57-.2,29.7-13.49,47.87-41.91,56.88-9.96,3.16-20.46,5.79-30.82,6.27-22.89,1.05-45.85.85-68.78.61-10.86-.12-14.86-5.24-14.94-16.79-.08-11.82,3.58-16.24,14.78-16.72,22.15-.94,44.34-1.09,66.45-2.48,18.83-1.18,28.27-9.77,29.35-27.34Z"/>
  <path class="cls-2" d="M2127.68,1751.91c-26.96-1.81-53.97-3.06-80.84-5.74-9.5-.95-18.96-4.67-27.91-8.39-21.12-8.77-32.75-25.09-33.28-47.93-.66-28.54-.65-57.13.1-85.67.57-21.81,11.82-37.39,31.42-47.11,21.57-10.69,45.01-12.2,68.21-12.53,36.79-.52,73.65.09,110.39,1.96,13.95.71,28.16,4.88,41.36,9.84,21.89,8.23,33.14,25.64,33.73,48.79.72,28.17.84,56.39-.02,84.54-.78,25.61-15.01,44.92-41.47,51.24-23.87,5.7-48.86,6.89-73.43,9.44-9.3.96-18.78.16-28.17.16-.03.47-.06.93-.09,1.4ZM2128.57,1578.63c-.01.3-.03.6-.04.9-11.64,0-23.29,0-34.93,0-1.13,0-2.27-.08-3.38.05-11.9,1.4-24.08,1.72-35.64,4.54-18.17,4.43-24.61,13.72-24.74,32.42-.15,21.03.28,42.07-.14,63.09-.29,14.86,6.57,24.33,20.08,29.11,6.32,2.23,13.05,4.53,19.62,4.62,37.88.53,75.77.68,113.64.3,7.71-.08,15.66-2.18,23.03-4.72,14.77-5.09,20.29-13.17,20.48-28.71.23-19.53.12-39.06.09-58.59-.03-26.54-9.46-37.53-36.26-39.93-20.53-1.84-41.2-2.11-61.81-3.08Z"/>
  <path class="cls-2" d="M2524.89,1751.91c-26.96-1.81-53.95-3.17-80.84-5.7-8.8-.83-17.62-3.96-25.92-7.32-23.31-9.44-35.35-27.09-35.55-52.35-.2-25.18-.21-50.36-.06-75.54.18-30.42,13.84-50.2,43.23-58.19,17.59-4.78,36.18-7.65,54.39-8.04,37.15-.8,74.36.17,111.52,1.48,11.47.4,23.05,3.47,34.16,6.73,26.92,7.89,41.19,25.3,42.2,53.22,1.01,27.77.8,55.62.03,83.41-.66,23.76-13.39,39.88-35.05,49.36-25.22,11.03-52.17,9.81-78.7,11.45-9.73.6-19.54.1-29.31.1l-.09,1.4ZM2525.47,1578.57c-.01.31-.03.61-.04.92-11.64,0-23.28,0-34.93,0-1.13,0-2.27-.08-3.38.05-11.53,1.35-23.32,1.66-34.54,4.34-18.87,4.51-25.44,13.73-25.54,32.91-.11,21.41.18,42.81-.06,64.22-.16,13.92,6.68,22.86,19.12,27.48,6.61,2.45,13.77,4.59,20.73,4.75,36.01.81,72.03,1.27,108.05,1.08,8.85-.05,17.94-2.16,26.47-4.78,16.55-5.09,22.28-13.39,22.44-30.7.18-18.78.08-37.55.06-56.33-.03-27.49-9.21-38.32-36.59-40.8-20.53-1.85-41.2-2.14-61.81-3.13Z"/>
  <path class="cls-2" d="M1727.35,1580.8c-.73,6.37-1.93,12.12-1.95,17.86-.17,42.87-.03,85.74-.14,128.61-.05,21.4-16.15,31.08-35.73,21.64-8.77-4.23-8.78-12.54-8.81-20.4-.16-42.12-.09-84.24-.1-126.35,0-6.3,0-12.6,0-20.54-7.3-.89-13.02-1.98-18.78-2.22-10.47-.43-14.51-6.35-14.96-15.99-.46-9.9,2.92-17.07,13.52-18.78,5.82-.94,11.74-1.26,20.21-2.12,0-11.17-.09-21.51.02-31.85.24-23.26,11.98-32.01,34.37-24.31,4.32,1.48,8.72,8.16,9.58,13.05,1.61,9.13.47,18.73.82,28.12.18,4.74,1.1,9.45,1.81,15.08,5.76.56,10.48,1.38,15.22,1.43,18.8.19,37.61-.12,56.4.27,13.2.27,17.02,4.86,16.81,18.4-.21,12.95-3.6,16.5-17.01,16.67-18.42.23-36.85.02-55.28.17-4.78.04-9.56.73-16,1.26Z"/>
  <path class="cls-2" d="M1832.9,1668.89c0-22.53-.76-45.09.2-67.58,1.08-25.23,16.41-40.54,39.07-48.61,26.7-9.51,54.67-9.32,82.49-8.11,11.95.52,11.98,10.34,12.04,19.3.07,9.2-3.24,15.15-13.55,15.48-15.38.49-30.81.67-46.09,2.2-22.24,2.22-30.22,11.35-30.38,33.95-.26,37.57-.03,75.15-.18,112.73-.08,20.52-18.75,31.22-36.27,19.79-4.7-3.07-7.53-11.92-7.83-18.28-.98-20.24-.36-40.56-.36-60.86.29,0,.58,0,.87,0Z"/>
  <path class="cls-2" d="M2305.27,1616.96c0-36.47-.07-72.95.04-109.42.06-20.3,16.89-30.53,35-20.32,4.3,2.43,7.54,10.29,7.76,15.79.88,22.9.45,45.86.45,68.8,0,51.89-.65,103.79.28,155.66.42,23.63-11.77,26.63-34.07,21.8-9.35-2.02-9.34-10.74-9.36-18.38-.09-34.22-.07-68.43-.09-102.65,0-3.76,0-7.52,0-11.28Z"/>
</svg>