<?xml version="1.0" encoding="UTF-8"?>
<svg id="Layer_1" data-name="Layer 1" xmlns="http://www.w3.org/2000/svg" viewBox="0 0 908.52 363.56">
  <defs>
    <style>
      .cls-1, .cls-2, .cls-3 {
        stroke-width: 0px;
      }

      .cls-2 {
        fill: #fff;
      }

      .cls-3 {
        fill: #499dd9;
      }
    </style>
  </defs>
  <path class="cls-3" d="M334.75,182.27c.3,24.74.06,50.68-4.99,76.29-5.44,27.62-16.47,52.28-38.34,71.06-16.3,14-35.37,22.67-56.16,26.87-46.36,9.37-92.9,9.78-139.12-.89-27.16-6.27-50.52-19.56-67.81-42.04-14.6-18.98-22.08-40.98-25.11-64.36-1.98-15.28-2.92-30.78-3.06-46.2-.25-25.61-.44-51.28,1.1-76.82,1.78-29.59,8.69-57.92,28.31-81.58,14.42-17.39,33.23-27.92,54.41-34.6C105.56,3.2,127.78.35,150.36.15c24.45-.22,48.92-.82,73.13,3.89,21.29,4.14,41.55,10.79,59.41,23.49,23.95,17.03,37.58,40.79,44.79,68.75,4.89,18.97,6.32,38.35,7.01,57.81.32,8.98.05,17.97.05,28.18ZM156.53,243.76c.14,2.8.3,4.56.3,6.32.03,10.15.14,20.31-.04,30.46-.07,3.91,1.36,5.39,5.25,5.21,4.65-.22,9.34-.3,13.98.03,4.62.32,6.02-1.44,5.98-5.99-.2-19.64-.23-39.28.01-58.92.07-5.95.71-11.99,1.97-17.8,2.23-10.35,8.77-17.58,19.18-19.39,8.04-1.4,16.57-1.58,24.68-.61,12.69,1.52,20.13,9.65,22.33,22.19.92,5.22,1.47,10.57,1.52,15.86.17,19.64.17,39.28,0,58.92-.04,4.37,1.39,6,5.76,5.72,4.64-.3,9.33-.27,13.98-.01,4.11.22,5.54-1.32,5.49-5.45-.18-14.65.06-29.3-.11-43.94-.12-10.47.03-21.01-1.11-31.39-2.75-25.02-16.54-41.33-39.61-46.08-20.56-4.23-40.8-3.46-59.03,9.01-.34.23-.91.13-2.12.26,0-2.14.05-4.07,0-5.99-.35-12.63-.03-25.33-1.23-37.88-2.2-23-16.15-39.76-36.48-45.13-14.45-3.82-29.02-3.86-43.48-.23-17.52,4.4-29.5,15.24-34.64,32.61-2.24,7.58-3.73,15.63-3.94,23.5-.54,20.63-.38,41.28-.1,61.91.08,6.27.88,12.66,2.33,18.76,4.86,20.48,17.28,33.96,38.25,38.19,20.99,4.23,41.44,3.32,60.89-10.13Z"/>
  <path class="cls-1" d="M577.64,171.07c0-19.14.12-38.28-.08-57.42-.05-4.64,1.56-6.23,6.07-5.93,4.48.3,9.01.33,13.48,0,4.92-.37,6.77,1.21,6.63,6.41-.34,12.64.06,25.3-.2,37.94-.1,4.64,1.5,5.94,6.01,5.93,13.14-.03,26.39-.61,39.39.86,27.35,3.08,42.12,17.37,47.11,44.43,3.02,16.41,2.56,32.85-2.85,48.81-7.29,21.49-23.52,31.74-45.16,33.5-9.97.81-20.38.27-30.19-1.68-21.95-4.37-34.22-19.26-37.94-40.63-2.01-11.54-1.88-23.48-2.21-35.26-.34-12.31-.08-24.63-.07-36.95ZM603.63,208.57c-.16,0-.31.02-.47.03.5,9.12.61,18.28,1.61,27.35,1.43,12.9,8.92,21.24,20.95,23.5,5.34,1,10.93,1.41,16.35,1.1,16.2-.95,25.78-8.08,27.96-21.99,1.43-9.09,1.85-18.64.8-27.76-2.17-18.73-11.82-26.67-30.71-26.92-10.32-.14-20.64.15-30.95-.12-4.52-.12-5.78,1.64-5.6,5.87.27,6.31.07,12.64.07,18.96Z"/>
  <path class="cls-1" d="M706.12,221.74c.53-5.42.77-11.26,1.72-16.97,4.81-29.03,21.97-44.65,51.71-46.55,7.73-.49,15.7-.08,23.32,1.25,22.11,3.88,35.82,17.18,40.94,39.04,3.73,15.94,3.82,31.95-.16,47.9-5.85,23.45-22.18,37.57-46.29,39.25-8.55.6-17.35.62-25.78-.74-25.94-4.17-41.1-20.71-44.04-46.89-.59-5.28-.93-10.58-1.42-16.3ZM801.11,221.17c-1.03-5.93-1.78-13.06-3.59-19.91-1.99-7.54-7.3-12.55-14.73-15.11-9.4-3.23-19.02-3.12-28.59-1.16-10.2,2.1-16.91,8.3-19.47,18.5-2.79,11.13-3.05,22.41-.88,33.67,2.55,13.24,8.97,20.48,21.02,22.2,7.3,1.04,14.94,1.08,22.26.19,11.79-1.43,19.35-8.44,21.61-20.34,1.05-5.53,1.48-11.17,2.35-18.06Z"/>
  <path class="cls-1" d="M439.71,219.48c1.55-7.87,2.59-18.21,5.7-27.88,5.51-17.19,18-27.56,35.58-31.53,14.35-3.24,28.7-3.17,42.91,1.04,16.86,5,27.64,16.23,32.65,32.81,5.46,18.07,5.66,36.44.59,54.61-6.18,22.12-22.4,35.56-45.43,37.07-10.01.65-20.4.53-30.19-1.42-21.69-4.31-34.31-18.6-38.74-39.99-1.51-7.27-1.87-14.78-3.06-24.71ZM466.18,223.14c.81,5.48,1.34,11.97,2.8,18.24,2.14,9.2,8.22,14.97,17.35,17.51,9.37,2.61,18.78,2.55,28.13.1,9.27-2.43,15.45-8.18,17.84-17.66,3.24-12.85,3.3-25.72-.13-38.51-2.49-9.3-8.48-15.87-18.01-17.38-7.93-1.25-16.27-1.58-24.23-.64-12.28,1.45-19.59,9.26-21.78,21.44-.94,5.22-1.25,10.55-1.97,16.89Z"/>
  <path class="cls-1" d="M870.4,215.53c0,8.48-.08,16.97.02,25.45.1,8.26,3.58,13.83,11.48,16.23,6.29,1.91,12.97,2.84,19.54,3.44,6.96.64,7,.25,7.01,7.45,0,4.82.22,9.67-.16,14.46-.11,1.43-1.95,3.95-2.93,3.91-17.45-.58-34.68-2.32-48.52-14.72-8.73-7.82-12.36-18.1-12.41-29.48-.18-43.08-.07-86.16-.18-129.24,0-3.84,1.22-5.44,5.16-5.27,5.15.21,10.32.23,15.47-.02,4.07-.19,5.62,1.28,5.56,5.43-.18,12.97.11,25.95-.15,38.92-.09,4.65,1.52,6.04,6.04,5.89,8.98-.29,17.97.05,26.95-.14,3.9-.08,5.37,1.31,5.2,5.22-.24,5.31-.22,10.65,0,15.96.15,3.79-1.51,4.91-5.05,4.86-8.98-.14-17.98.19-26.95-.13-4.91-.18-6.34,1.65-6.18,6.34.3,8.47.08,16.96.09,25.45Z"/>
  <path class="cls-1" d="M365.48,239.91c0-10.98.39-21.98-.07-32.94-1.14-26.98,13.86-41.39,37.4-46.29,7.29-1.52,14.81-1.9,22.24-2.77,3.39-.39,4.84,1.11,4.75,4.58-.15,5.65-.14,11.31,0,16.97.08,3.27-1.41,4.22-4.49,4.43-6.12.43-12.33.72-18.28,2.08-11.85,2.7-16.05,8.4-16.07,20.54-.03,24.29,0,48.58-.01,72.87q0,7.19-7.13,7.22c-4.33.01-8.66-.18-12.98.06-3.98.22-5.55-.98-5.46-5.32.28-13.8.1-27.61.11-41.42Z"/>
  <path class="cls-2" d="M156.53,243.76c-19.45,13.45-39.9,14.36-60.89,10.13-20.97-4.22-33.39-17.71-38.25-38.19-1.45-6.1-2.25-12.49-2.33-18.76-.28-20.64-.45-41.29.1-61.91.21-7.88,1.69-15.93,3.94-23.5,5.14-17.37,17.12-28.2,34.64-32.61,14.46-3.63,29.02-3.59,43.48.23,20.33,5.38,34.28,22.13,36.48,45.13,1.2,12.55.88,25.25,1.23,37.88.05,1.93,0,3.85,0,5.99,1.21-.14,1.78-.03,2.12-.26,18.23-12.47,38.47-13.24,59.03-9.01,23.07,4.75,36.86,21.05,39.61,46.08,1.14,10.38.99,20.92,1.11,31.39.17,14.65-.07,29.3.11,43.94.05,4.13-1.38,5.67-5.49,5.45-4.65-.25-9.34-.29-13.98.01-4.38.28-5.8-1.34-5.76-5.72.18-19.64.18-39.28,0-58.92-.05-5.3-.6-10.64-1.52-15.86-2.2-12.54-9.64-20.67-22.33-22.19-8.11-.97-16.64-.78-24.68.61-10.41,1.81-16.95,9.04-19.18,19.39-1.25,5.81-1.89,11.85-1.97,17.8-.24,19.64-.21,39.28-.01,58.92.05,4.55-1.36,6.31-5.98,5.99-4.64-.33-9.33-.24-13.98-.03-3.88.18-5.32-1.3-5.25-5.21.18-10.15.07-20.31.04-30.46,0-1.76-.16-3.52-.3-6.32ZM80.66,166.38c-.19,0-.38,0-.57,0,0,10.49-.3,20.98.06,31.46.7,20.4,9.07,30.43,27.25,32.65,5.23.64,10.7.59,15.92-.13,15.73-2.19,24.52-10.28,25.34-26.07,1.19-23.07.77-46.22.85-69.34.01-3.62-.73-7.29-1.53-10.85-3-13.29-11.36-20.63-24.91-22.09-2.15-.23-4.31-.61-6.46-.6-19.25.16-33.94,5.27-35.79,28.59-.96,12.06-.17,24.26-.17,36.4Z"/>
  <path class="cls-3" d="M80.66,166.38c0-12.14-.79-24.34.17-36.4,1.86-23.32,16.54-28.42,35.79-28.59,2.15-.02,4.31.36,6.46.6,13.55,1.47,21.91,8.8,24.91,22.09.8,3.56,1.54,7.23,1.53,10.85-.08,23.12.34,46.28-.85,69.34-.82,15.8-9.61,23.88-25.34,26.07-5.22.73-10.69.77-15.92.13-18.18-2.21-26.55-12.25-27.25-32.65-.36-10.47-.06-20.97-.06-31.46.19,0,.38,0,.57,0Z"/>
</svg>