<?xml version="1.0" encoding="UTF-8"?>
<svg id="Layer_1" data-name="Layer 1" xmlns="http://www.w3.org/2000/svg" viewBox="0 0 422.3 94.47">
  <defs>
    <style>
      .cls-1, .cls-2, .cls-3 {
        isolation: isolate;
      }

      .cls-4 {
        fill: #d34127;
        stroke-width: 0px;
      }

      .cls-2, .cls-3 {
        font-family: SegoeUI-Bold, 'Segoe UI';
        font-size: 38.1px;
        font-weight: 700;
      }

      .cls-5 {
        stroke-miterlimit: 28.35;
        stroke-width: .75px;
      }

      .cls-5, .cls-3 {
        fill: none;
        stroke: #000;
      }

      .cls-3 {
        stroke-width: .48px;
      }
    </style>
  </defs>
  <path id="path2967" class="cls-5" d="M41.17,29.73h121.25M36.63,51.97h114.82M15.41,73.64h127.06M53.74,22.6v60.69M75.3,22.6v60.69M96.87,22.6v60.69M118.43,22.6v60.69M139.99,22.6v60.69"/>
  <g id="g2611">
    <g id="g2921">
      <path id="path2923" class="cls-4" d="M145.29,73.59v-10.01c1.41-.27,2.61-.7,3.6-1.3.99-.59,1.96-1.45,2.93-2.56,1.53-1.69,2.34-3.75,2.45-6.19.11-2.44.2-4.48.28-6.13.26-2.68.54-4.6.84-5.76.45-1.73,1.21-3.43,2.29-5.12,1.78-2.76,3.74-4.8,5.86-6.1,2.27-1.42,4.93-2.13,7.98-2.13v10.24c-2.38.54-4.33,1.8-5.86,3.8-.82,1.04-1.34,2.09-1.56,3.16-.22,1.07-.33,2.44-.33,4.09v2.25c0,3.53-.26,6.29-.78,8.29-.52,2-1.64,4.09-3.35,6.27-1.97,2.53-4.07,4.36-6.3,5.5-2.23,1.13-4.91,1.7-8.04,1.7"/>
    </g>
    <g id="g2925">
      <path id="path2927" class="cls-4" d="M177.37,28.58h9.76v25.79c0,2.46.98,4.49,2.96,6.1,1.97,1.61,4.26,2.42,6.86,2.42s4.81-.76,6.73-2.28c1.92-1.52,2.88-3.49,2.88-5.91v-26.12h10.22v25.64c0,5.26-2.21,9.85-6.64,13.77-4.13,3.69-8.58,5.53-13.34,5.53-5.4,0-9.98-1.83-13.76-5.49-3.78-3.66-5.66-8.16-5.66-13.49v-25.95Z"/>
    </g>
    <g id="g2929">
      <path id="path2931" class="cls-4" d="M232.6,73.47l-10.43-.06v-25.08c0-3.84.68-7.15,2.04-9.95,1.36-2.8,3.53-5.24,6.5-7.31,1.83-1.27,3.54-2.18,5.14-2.73,1.6-.56,3.35-.83,5.25-.83.48,0,1.06.03,1.73.09.67.06,1.43.16,2.29.32v10.18c-.93-.27-1.9-.4-2.9-.4-1.94,0-3.8.67-5.58,2.01-1.3.96-2.3,2.05-2.99,3.28-.69,1.23-1.03,2.65-1.03,4.26v26.24Z"/>
    </g>
    <g id="g2933">
      <path id="path2935" class="cls-4" d="M252.97,73.47V31.47c0-2.69.44-4.99,1.31-6.93.87-1.94,2.33-3.62,4.38-5.03,1.12-.77,2.38-1.34,3.8-1.73,1.41-.38,2.77-.57,4.07-.57.45,0,.82,0,1.12.03.3.02.73.09,1.28.2v8.97c-.22-.08-.45-.12-.67-.12h-.61c-1.45,0-2.76.58-3.93,1.72-1.17,1.15-1.76,2.55-1.76,4.2,0,.46.05.82.16,1.09h5.35v9.09h-5.36v31.08h-9.15Z"/>
    </g>
    <g id="g2937">
      <path id="path2939" class="cls-4" d="M307.25,60.57v11.86c-3.46,1.73-6.88,2.59-10.26,2.59-5.21,0-10.04-1.98-14.5-5.93-2.79-2.45-4.8-5.07-6.02-7.85-1.23-2.78-1.84-6.11-1.84-9.98,0-6.33,2.2-11.73,6.61-16.2,4.41-4.47,9.68-6.7,15.82-6.7s11.68,2.19,16.18,6.59c4.5,4.39,6.75,9.77,6.75,16.14v22.27h-9.83v-22.56c0-3.57-1.31-6.57-3.93-9.01-2.62-2.43-5.72-3.65-9.29-3.65-3.57,0-6.6,1.29-9.09,3.85-2.49,2.57-3.74,5.7-3.74,9.38s1.25,7.05,3.76,9.75c2.51,2.7,5.59,4.06,9.23,4.06,2.19,0,4.08-.36,5.66-1.06,1.58-.71,3.08-1.89,4.49-3.54"/>
    </g>
    <g id="g2941">
      <path id="path2943" class="cls-4" d="M353.65,62.24v10.3c-1.79.46-3.61.69-5.47.69-6.14,0-11.37-2.24-15.68-6.73-4.32-4.49-6.48-9.91-6.48-16.28s2.17-11.55,6.51-15.88c4.33-4.34,9.57-6.5,15.71-6.5,1.64,0,3.37.25,5.19.75v10.07c-1.52-.73-3.2-1.09-5.03-1.09-3.39,0-6.35,1.15-8.88,3.45-2.68,2.45-4.02,5.58-4.02,9.38s1.34,7.06,4.02,9.55c2.5,2.34,5.45,3.51,8.88,3.51,1.86,0,3.61-.4,5.25-1.21"/>
    </g>
    <g id="g2945">
      <path id="path2947" class="cls-4" d="M393.85,47.63c-.82-3.07-2.37-5.46-4.66-7.19-2.29-1.73-5.02-2.59-8.18-2.59-3.5,0-6.54,1.29-9.13,3.88-2.59,2.59-3.88,5.65-3.88,9.18,0,.61.02,1.07.06,1.38.41,3.8,1.95,6.79,4.63,8.97,2.38,1.96,5.21,2.93,8.48,2.93,1.86,0,3.61-.33,5.24-1.01,1.64-.67,3.03-1.68,4.18-3.02l6.36,6.79c-2.27,2.38-4.65,4.11-7.14,5.18-2.49,1.07-5.38,1.61-8.65,1.61-6.14,0-11.4-2.19-15.79-6.56-4.39-4.37-6.58-9.69-6.58-15.94s2.13-11.73,6.39-16.19c4.26-4.47,9.44-6.7,15.54-6.7s11.51,2.35,16.1,7.05c4.6,4.7,6.89,10.17,6.89,16.42v2.01c-.11.58-.19,1-.22,1.26h-31.48c-.67,0-1.1-.29-1.28-.86-.19-.58-.28-1.36-.28-2.36v-2.07c0-.73.08-1.28.22-1.64.15-.36.5-.55,1.06-.55h22.11Z"/>
    </g>
  </g>
  <g id="text3430" class="cls-1">
    <text class="cls-2" transform="translate(11.86 71.79) scale(1.09 1)"><tspan x="0" y="0">QUICK</tspan></text>
    <text class="cls-3" transform="translate(11.86 71.79) scale(1.09 1)"><tspan x="0" y="0">QUICK</tspan></text>
  </g>
</svg>