<?xml version="1.0" encoding="UTF-8"?>
<svg id="Layer_1" data-name="Layer 1" xmlns="http://www.w3.org/2000/svg" viewBox="0 0 534.15 136.65">
  <defs>
    <style>
      .cls-1 {
        fill: #005cff;
      }

      .cls-1, .cls-2, .cls-3, .cls-4, .cls-5 {
        stroke-width: 0px;
      }

      .cls-2 {
        fill: #1198fe;
      }

      .cls-3 {
        fill: #09c8ff;
      }

      .cls-4 {
        fill: #5af4fe;
      }

      .cls-5 {
        fill: #0080ff;
      }
    </style>
  </defs>
  <g>
    <path class="cls-5" d="M193.23,80.34h10.91c.08,2.53.82,4.43,2.23,5.71,1.41,1.27,3.46,1.91,6.18,1.91,2.31,0,4.1-.38,5.36-1.14,1.27-.76,1.9-1.84,1.9-3.22,0-.7-.15-1.33-.45-1.88-.3-.55-.72-.97-1.27-1.25-.82-.44-2.84-1.14-6.05-2.08-3.21-.94-5.93-1.86-8.14-2.74-3.19-1.27-5.62-2.94-7.28-5.02-1.66-2.08-2.48-4.5-2.48-7.27,0-4.24,1.59-7.61,4.77-10.11,3.18-2.5,7.5-3.75,12.94-3.75s9.58,1.32,12.71,3.95c3.13,2.63,4.7,6.19,4.7,10.67h-10.69c-.24-2.07-.97-3.59-2.19-4.58-1.21-.99-2.97-1.48-5.26-1.48-1.83,0-3.31.38-4.46,1.13-1.14.75-1.72,1.71-1.72,2.88,0,1.97,2.72,3.83,8.16,5.57.99.32,1.74.56,2.26.72.1.04.25.09.45.15,5.62,1.83,9.14,3.3,10.54,4.43,1.43,1.16,2.51,2.53,3.25,4.11.74,1.58,1.12,3.33,1.12,5.26,0,4.42-1.69,7.86-5.08,10.32-3.38,2.46-8.13,3.69-14.23,3.69-5.76,0-10.15-1.32-13.16-3.96-3.01-2.64-4.69-6.64-5.03-12.01Z"/>
    <path class="cls-5" d="M276.8,79.65c-.78,5.47-2.94,9.72-6.46,12.73-3.52,3.02-8.07,4.52-13.65,4.52-6.67,0-12.05-2.18-16.14-6.54-4.09-4.36-6.14-10.09-6.14-17.2s2.08-13.29,6.24-17.69c4.16-4.4,9.73-6.6,16.71-6.6,5.54,0,10.05,1.45,13.56,4.37,3.5,2.91,5.5,6.89,6,11.93h-10.97c-.54-2.19-1.56-3.84-3.05-4.94-1.5-1.1-3.46-1.66-5.9-1.66-3.26,0-5.84,1.29-7.75,3.87-1.9,2.58-2.85,6.11-2.85,10.6s.9,7.93,2.7,10.39c1.8,2.47,4.33,3.7,7.59,3.7,2.62,0,4.73-.64,6.31-1.92,1.58-1.28,2.57-3.14,2.96-5.58h10.84Z"/>
    <path class="cls-5" d="M325.9,95.72v-45.64h12.64l15.68,28.37v-28.37h11.28v45.64h-12.61l-15.68-27.65v27.65h-11.31Z"/>
    <path class="cls-5" d="M382.09,95.72v-36.37h-13.07v-9.26h37.83v9.26h-13.07v36.37h-11.68Z"/>
    <path class="cls-5" d="M410.4,95.72v-45.64h34.67v9.36h-22.99v8.06h21.01v9.14h-21.01v9.76h23.73v9.33h-35.41Z"/>
    <path class="cls-5" d="M490.04,79.65c-.78,5.47-2.94,9.72-6.46,12.73-3.52,3.02-8.07,4.52-13.65,4.52-6.67,0-12.05-2.18-16.14-6.54-4.09-4.36-6.14-10.09-6.14-17.2s2.08-13.29,6.24-17.69c4.16-4.4,9.73-6.6,16.71-6.6,5.54,0,10.05,1.45,13.56,4.37,3.5,2.91,5.5,6.89,6,11.93h-10.97c-.54-2.19-1.56-3.84-3.05-4.94-1.5-1.1-3.46-1.66-5.9-1.66-3.26,0-5.84,1.29-7.75,3.87-1.9,2.58-2.85,6.11-2.85,10.6s.9,7.93,2.7,10.39c1.8,2.47,4.33,3.7,7.59,3.7,2.62,0,4.73-.64,6.31-1.92,1.58-1.28,2.57-3.14,2.96-5.58h10.84Z"/>
    <path class="cls-5" d="M494.68,95.72v-45.64h11.74v16.21h15.99v-16.21h11.74v45.64h-11.74v-19.24h-15.99v19.24h-11.74Z"/>
    <polygon class="cls-5" points="286.66 96.12 277.36 88.25 293.87 49.68 306.54 49.69 286.66 96.12"/>
    <polygon class="cls-5" points="313.76 96.12 323.06 88.25 306.55 49.68 293.88 49.69 313.76 96.12"/>
  </g>
  <path class="cls-4" d="M10.01,35.9l26.22-14.66c.31-.17.69-.17,1,0l26.78,14.66c.71.39.72,1.41.01,1.8l-26.49,14.93c-.31.18-.7.18-1.01,0l-26.51-14.94c-.7-.4-.7-1.41,0-1.8Z"/>
  <path class="cls-1" d="M86.98,35.9l26.22-14.66c.31-.17.69-.17,1,0l26.78,14.66c.71.39.72,1.41.01,1.8l-26.49,14.93c-.31.18-.7.18-1.01,0l-26.51-14.94c-.7-.4-.7-1.41,0-1.8Z"/>
  <path class="cls-3" d="M48.6,14.79L74.82.13c.31-.17.69-.17,1,0l26.78,14.66c.71.39.72,1.41.01,1.8l-26.49,14.93c-.31.18-.7.18-1.01,0l-26.51-14.94c-.7-.4-.7-1.41,0-1.8Z"/>
  <path class="cls-2" d="M48.6,57.24l26.22-14.66c.31-.17.69-.17,1,0l26.78,14.66c.71.39.72,1.41.01,1.8l-26.49,14.93c-.31.18-.7.18-1.01,0l-26.51-14.94c-.7-.4-.7-1.41,0-1.8Z"/>
  <path class="cls-5" d="M0,93.33c0,.9.49,1.73,1.27,2.17l12.18,6.76c1.65.92,3.68-.28,3.68-2.17v-42.12L0,48.39v44.94Z"/>
  <path class="cls-5" d="M74.75,113.55l-28.13-15.54c-.47-.26-.77-.76-.77-1.3v-22.57l-17.14-9.68v45.63c0,.54.29,1.04.77,1.3l45.26,25.08c.22.12.46.18.7.19l.06-22.92c-.26,0-.52-.06-.75-.18Z"/>
  <path class="cls-5" d="M150.88,93.33c0,.9-.49,1.73-1.27,2.17l-12.18,6.76c-1.65.92-3.68-.28-3.68-2.17v-42.12s17.14-9.59,17.14-9.59v44.94Z"/>
  <path class="cls-5" d="M76.12,113.55l28.13-15.54c.47-.26.77-.76.77-1.3v-22.57s17.14-9.68,17.14-9.68v26.56s0,18.74,0,18.74v.33c0,.54-.29,1.04-.77,1.3l-45.26,25.08c-.22.12-.46.18-.7.19l-.06-22.92c.26,0,.52-.06.75-.18Z"/>
</svg>