<?xml version="1.0" encoding="UTF-8"?>
<svg id="Layer_1" data-name="Layer 1" xmlns="http://www.w3.org/2000/svg" viewBox="0 0 714.38 209.87">
  <defs>
    <style>
      .cls-1 {
        fill: #099;
        stroke-width: 0px;
      }

      .cls-2 {
        font-family: OpenSans-Bold, 'Open Sans';
        font-size: 49.67px;
        font-weight: 700;
      }
    </style>
  </defs>
  <path class="cls-1" d="M370.4,109.25c-.18.37-.38.73-.54,1.11-3.94,9.61-7.87,19.22-11.8,28.84-5.48,13.39-10.96,26.78-16.42,40.18-.32.79-.73,1.07-1.58,1.07-4.89-.04-9.78-.02-14.66-.02-1.16,0-1.17,0-1.62-1.15-5.45-13.57-10.91-27.15-16.36-40.72-3.75-9.34-7.49-18.69-11.24-28.03-.17-.43-.38-.84-.66-1.47-.2.4-.35.58-.37.77-.04.47-.03.95-.03,1.43,0,22.09,0,44.18,0,66.28,0,2.16.1,1.94-1.91,1.94-5.21,0-10.41,0-15.62,0-.32,0-.64,0-.95,0-.43,0-.66-.22-.67-.66,0-.28,0-.56,0-.83,0-32.09,0-64.17,0-96.26,0-.24.01-.48,0-.71-.02-.55.24-.81.79-.79.28,0,.56,0,.83,0,10.89,0,21.78,0,32.67,0,.08,0,.16,0,.24,0,1.23,0,1.24,0,1.71,1.2.89,2.25,1.77,4.5,2.66,6.75,6.65,16.85,13.3,33.7,19.95,50.55.51,1.29,1,2.59,1.52,3.88.14.35.33.68.52,1.07.64-.32.7-.88.88-1.32,1.6-3.93,3.18-7.86,4.77-11.8,6.63-16.39,13.27-32.78,19.91-49.17.47-1.16.47-1.16,1.73-1.16,10.45,0,20.9,0,31.35,0,1.38,0,1.39,0,1.39,1.38,0,14.2,0,28.4,0,42.6,0,17.89,0,35.78,0,53.66q0,1.62-1.63,1.62c-7.59,0-15.18,0-22.77,0-.28,0-.56,0-.83,0-.55.02-.81-.24-.79-.79,0-.4,0-.79,0-1.19,0-22.17,0-44.34,0-66.51,0-.54-.04-1.08-.06-1.62-.13-.03-.26-.07-.38-.1Z"/>
  <path class="cls-1" d="M533.11,112.2c-.02.45-.06.9-.06,1.35,0,11.14,0,22.29,0,33.43,0,10.23,0,20.46,0,30.7,0,.2,0,.4,0,.59-.02,1.16-.04,1.19-1.22,1.19-5.52,0-11.05,0-16.57,0-1.36,0-1.37,0-1.37-1.41,0-10.47,0-20.94,0-31.41,0-21.53,0-43.07,0-64.6,0-2.01-.05-1.84,1.79-1.84,9.58,0,19.15.01,28.73-.02,1,0,1.57.29,2.03,1.21,4.34,8.52,8.72,17.01,13.09,25.51,6.45,12.56,12.91,25.12,19.37,37.67.35.69.76,1.35,1.27,2.26.16-.49.27-.69.28-.89.03-.43.01-.87.01-1.31,0-20.9,0-41.8,0-62.7,0-1.86-.08-1.73,1.77-1.72,5.21,0,10.41,0,15.62,0,.32,0,.64.01.95,0,.54-.02.83.21.82.77,0,.32,0,.63,0,.95,0,31.97,0,63.93,0,95.9q0,1.65-1.61,1.65c-9.34,0-18.68-.02-28.01.02-1.02,0-1.55-.33-2.02-1.23-4.87-9.45-9.78-18.87-14.69-28.3-6.32-12.14-12.64-24.27-18.96-36.4-.26-.5-.59-.96-.88-1.44-.1.03-.21.06-.31.08Z"/>
  <path class="cls-1" d="M449.42,97.84v22.72c.58.03,1.11.09,1.65.09,11.68,0,23.37,0,35.05,0,1.9,0,1.96-.27,1.95,1.94-.01,4.09,0,8.17,0,12.26,0,.36,0,.71-.02,1.07-.02.48-.27.73-.75.73-.4,0-.79.01-1.19.01-11.6,0-23.21,0-34.81,0-.58,0-1.17.05-1.71.07-.3.97-.4,21.91-.13,23.88.45.05.94.16,1.43.16,2.38.02,4.77,0,7.15,0,11.76,0,23.52,0,35.29,0q1.78,0,1.78,1.73c0,5.12,0,10.23,0,15.35,0,.32.07.66-.03.94-.09.24-.34.51-.58.6-.28.11-.63.03-.94.03-23.05,0-46.09,0-69.14,0q-1.58,0-1.58-1.55c0-32.05,0-64.09,0-96.14q0-1.57,1.56-1.58c22.65,0,45.3,0,67.95,0q1.58,0,1.59,1.54c0,4.88,0,9.76,0,14.63,0,.24,0,.48,0,.71.01.57-.3.77-.83.75-.32,0-.64,0-.95,0-13.67,0-27.34,0-41.01,0h-1.71Z"/>
  <path class="cls-1" d="M211.75,97.84c-.37,1.3-.37,21.53-.02,22.74.45.03.95.08,1.45.08,11.76,0,23.52,0,35.28,0,1.86,0,1.86-.21,1.86,1.9,0,4.12,0,8.25,0,12.37,0,.32,0,.63-.01.95,0,.55-.29.79-.82.78-.4,0-.79,0-1.19,0-11.52,0-23.04,0-34.57,0-2.17,0-2.26-.28-2.25,2.3,0,6.5,0,13.01,0,19.51,0,.24,0,.48,0,.71.02,1.52.09,1.6,1.64,1.6,14.03,0,28.05,0,42.07,0,.4,0,.79.01,1.19,0,.6,0,.87.3.87.88,0,.24,0,.48,0,.71,0,5.16,0,10.31,0,15.47,0,.24,0,.48,0,.71,0,.58-.24.9-.86.87-.28-.01-.56,0-.83,0-22.92,0-45.85,0-68.77,0-1.75,0-1.68.09-1.68-1.69,0-31.96,0-63.92,0-95.88,0-1.77-.08-1.7,1.68-1.7,22.57,0,45.13,0,67.7,0,1.86,0,1.72-.07,1.72,1.77,0,4.76,0,9.52,0,14.28,0,.28,0,.56,0,.83.01.56-.28.78-.82.76-.32,0-.64,0-.95,0-13.71,0-27.41,0-41.12,0h-1.56Z"/>
  <path class="cls-1" d="M686.24,100.43c-.5-.17-.87-.28-1.23-.42-5.02-1.9-10.16-3.38-15.46-4.22-3.25-.51-6.54-.84-9.84-.74-2.93.09-5.86.3-8.7,1.13-1.46.43-2.82,1.05-4.08,1.9-3.63,2.41-5.15,9.06.45,12.3,1.78,1.03,3.64,1.95,5.5,2.83,6.36,2.99,12.77,5.87,19.09,8.92,4.15,2,8.13,4.32,11.87,7.04,5.33,3.87,8.72,8.98,9.78,15.48,1.07,6.57.47,12.96-2.69,18.96-2.23,4.25-5.53,7.51-9.51,10.14-4.73,3.13-9.96,5.04-15.49,6.19-3.15.65-6.32,1.15-9.54,1.23-3.53.09-7.07.28-10.59.15-4.15-.15-8.3-.5-12.44-1.07-4.17-.58-8.3-1.28-12.4-2.19-1.12-.25-1.16-.28-1.16-1.4,0-5.59,0-11.18,0-16.77,0-.34.05-.69.08-1.16.41.07.71.09.99.18,4.67,1.43,9.39,2.63,14.2,3.5,4.11.74,8.23,1.26,12.41,1.34,3.18.05,6.35.04,9.49-.49,2.2-.37,4.32-.98,6.31-2.04,5.55-2.98,5.35-10.47.94-13.66-2.24-1.62-4.68-2.85-7.18-3.96-3.88-1.72-7.81-3.34-11.71-5.02-5-2.16-9.9-4.49-14.55-7.35-3.07-1.89-5.86-4.09-8.01-7.02-2.67-3.63-4.22-7.68-4.72-12.15-.48-4.31-.2-8.55,1.04-12.7,1.72-5.75,5.28-10.14,10.23-13.46,4.65-3.12,9.78-5.04,15.24-6.17,5.72-1.18,11.51-1.43,17.31-1.15,5,.24,9.96.9,14.89,1.77,2.85.5,5.7,1.02,8.55,1.53.9.16,1.03.27,1.03,1.14,0,5.59,0,11.18,0,16.77,0,.15-.04.31-.1.65Z"/>
  <path class="cls-1" d="M41.4,158.71c2.28.62,4.33,1.21,6.4,1.75,4.84,1.28,9.73,2.25,14.71,2.84,4.04.48,8.08.62,12.12.38,3.22-.18,6.4-.66,9.35-2.11,2.15-1.06,3.86-2.55,4.53-4.93.93-3.3.15-6.65-2.73-8.86-1.38-1.06-2.88-2-4.45-2.74-3.91-1.84-7.88-3.57-11.85-5.28-5.99-2.57-11.91-5.27-17.48-8.67-3.47-2.12-6.47-4.72-8.7-8.15-2.25-3.46-3.48-7.25-3.91-11.35-.44-4.12-.08-8.16,1.08-12.11,1.68-5.75,5.2-10.18,10.15-13.52,4.68-3.16,9.85-5.1,15.35-6.24,5.6-1.16,11.27-1.44,16.95-1.16,5,.25,9.96.91,14.9,1.74,2.93.49,5.86,1.02,8.79,1.55,1,.18,1.08.26,1.09,1.2,0,5.51,0,11.03,0,16.54,0,.23-.06.45-.11.8-.48-.16-.89-.27-1.28-.42-4.97-1.92-10.09-3.35-15.35-4.19-3.33-.54-6.7-.84-10.08-.72-3.33.12-6.66.36-9.82,1.59-1.73.67-3.3,1.58-4.43,3.09-1.97,2.62-2.68,7.36,1.48,10.16,1.93,1.3,4.07,2.32,6.18,3.32,6.46,3.06,12.98,5.99,19.41,9.09,4.15,2,8.14,4.31,11.85,7.08,5.05,3.78,8.27,8.71,9.44,14.92.65,3.49.64,7,.16,10.52-.55,4.04-1.94,7.75-4.24,11.11-2.49,3.63-5.76,6.43-9.52,8.67-4.83,2.88-10.08,4.58-15.59,5.62-6.17,1.16-12.39,1.32-18.62,1.09-4.16-.15-8.31-.5-12.44-1.08-4.13-.57-8.22-1.27-12.29-2.18-1.08-.24-1.13-.28-1.13-1.43,0-5.59,0-11.18,0-16.78,0-.34.07-.68.12-1.17Z"/>
  <path class="cls-1" d="M131.67,129.84c0-15.94,0-31.88,0-47.82,0-1.99-.06-1.82,1.8-1.82,7.99,0,15.97,0,23.96,0,1.61,0,1.61,0,1.61,1.56,0,32.04,0,64.08,0,96.12,0,.04,0,.08,0,.12-.01,1.43-.04,1.46-1.47,1.46-8.15,0-16.29,0-24.44,0-.28,0-.56,0-.83-.01-.37-.02-.59-.22-.61-.6-.02-.4-.02-.79-.02-1.19,0-15.94,0-31.88,0-47.82Z"/>
  <text class="cls-2" transform="translate(81.33 64.32)"><tspan x="0" y="0">Siemens PLM software</tspan></text>
</svg>