<?xml version="1.0" encoding="UTF-8"?>
<svg id="Layer_1" data-name="Layer 1" xmlns="http://www.w3.org/2000/svg" viewBox="0 0 4756.19 789.54">
  <defs>
    <style>
      .cls-1, .cls-2, .cls-3 {
        stroke-width: 0px;
      }

      .cls-2 {
        fill: #56a1d5;
      }

      .cls-3 {
        fill: #fff;
      }
    </style>
  </defs>
  <path class="cls-1" d="M739.21,454.45c0,9.86,0,18.35,0,26.84,0,62.84.55,125.69-.47,188.51-.21,12.65-2.72,28.52-10.57,37.11-16.09,17.6-39.22,14.13-60.43,9.2-17.92-4.17-23.41-18.23-24.14-34.95-.35-7.99-1.34-15.98-1.35-23.97-.12-60.16-.03-120.33-.12-180.49-.01-7.1-.74-14.21-1.17-22h-72.94c-.83,4.4-1.74,6.99-1.74,9.58,0,75.54-.93,151.09.51,226.6.92,47.86,28.38,80.85,75.66,90.71,23.9,4.98,49.31,5.58,73.82,4.26,50.43-2.71,100.99-34.5,99.38-105.58-1.52-67.48-.33-135.03-.33-202.55,0-7.21,0-14.42,0-23.27h-76.11Z"/>
  <path class="cls-1" d="M1647.83,780.6h206.43v-67.76h-129.33v-65.85h118.84v-68.76h-117.82v-57.62h128.58v-66.18h-206.69v326.18Z"/>
  <path class="cls-1" d="M2720.99,781.51c.23-3.51.69-4.93.35-6.12-29.07-103.29-58.32-206.53-87.17-309.88-3.01-10.79-9.58-12.9-19.3-12.77-24.12.31-48.28.82-72.37-.19-14.57-.61-21.23,4.45-25.18,18.74-27.35,98.91-55.58,197.59-83.4,296.37-1.15,4.1-1.05,8.55-1.65,13.81h76.8c21.96-81.76,43.78-163.04,65.61-244.31,1.31,0,2.61,0,3.92,0,21.86,81.33,43.72,162.67,65.67,244.35h76.72Z"/>
  <path class="cls-1" d="M4352.02,780.54h78.63v-259.11h85.19v-66.78h-250.53v67.1h86.71v258.78Z"/>
  <path class="cls-1" d="M2752.12,781.13h204.13v-67.39h-128.95v-259.3h-75.18v326.7Z"/>
  <path class="cls-1" d="M2287.26,789.54c-23.05-3.72-46.1-7.49-69.17-11.15-14.21-2.26-20.67-9.67-19.44-24.69,1.14-13.84.24-27.84.24-44.61,16.49,3.45,30.4,7.51,44.58,9.05,22.54,2.44,45.3,4.76,67.88,4.18,19.45-.5,25.08-7.78,27.11-25.59,2.59-22.73-2.68-33.27-21.43-39.2-14.64-4.63-29.83-7.52-44.66-11.58-12.24-3.35-24.5-6.78-36.44-11.03-26.18-9.33-39.66-28.77-41.62-55.87-1.15-15.94-1.54-32.05-.71-48.01,2.34-45,19.85-66.27,64.29-73.37,47.3-7.57,94.73-4.33,141.59,5.77,2.49.54,4.79,1.9,8,3.21v62.2c-13.2-1.5-25.41-3.36-37.7-4.17-24.69-1.63-49.42-3.4-74.14-3.74-17.57-.24-22.73,5.15-25.64,21.6-3.46,19.57,1.92,32.3,17.65,37.31,15.91,5.07,32.56,7.82,48.5,12.82,16.53,5.18,33.17,10.66,48.71,18.17,17.31,8.37,27.65,23.02,28.35,42.96.65,18.61,2.11,37.3,1.1,55.84-2.56,46.69-25.76,70.12-81.15,76.57-11.25,1.31-22.54,2.24-33.81,3.34h-12.08Z"/>
  <path class="cls-1" d="M4630.76,789.54c-21.14-2.98-42.35-5.55-63.39-9.12-8.41-1.43-16.44-5.07-25.59-8.01v-62.02c25.06,4.21,48.56,9.24,72.33,11.77,15.1,1.61,30.66.17,45.91-1.11,11.65-.98,17-9.07,18.4-20.35,3.92-31.59-.77-38.67-31.93-46.83-20.05-5.25-40.17-10.22-60.19-15.55-31.48-8.38-49.23-28.83-51.49-61.22-1.25-17.93-2.08-36.17-.21-53.98,3.97-37.82,20.37-56.3,58.25-63.99,51.3-10.43,102.41-5.04,154.31,5.33v64.35c-13.06-1.54-25.31-3.52-37.64-4.32-24.69-1.6-49.42-2.79-74.15-3.67-12.93-.46-21.87,5.09-24.04,18.86-3.49,22.12.12,33.83,14.76,39.15,14.39,5.23,29.54,8.45,44.44,12.23,76.98,19.49,86.9,32.2,85.56,110.05-.9,51.95-26.47,79.3-79.43,84.92-11.27,1.2-22.54,2.35-33.81,3.52h-12.08Z"/>
  <path class="cls-1" d="M3720.58,781.25v-324.79c2.77-1.19,5.12-3.11,7.45-3.07,51.54.77,103.18.15,154.59,3.23,36.57,2.2,56.72,23.7,61.55,60,2.01,15.1,1.85,30.62,1.32,45.9-.73,20.77-10.88,36.69-30.31,47.96,18.91,10.04,35.78,21.96,38.63,42.18,3.98,28.22,7.29,57.52-3.78,85-11.1,27.57-35.01,41.85-63.02,42.95-54.71,2.15-109.56.63-166.43.63ZM3798.28,719.56c21.9.65,43.9,4.53,64.87-3.44,6.73-2.56,13.61-10.97,15.63-18.06,2.62-9.21,1.14-19.84.15-29.73-1.03-10.34-7.42-17.73-17.97-18.63-20.4-1.73-40.89-2.28-62.68-3.39v73.25ZM3798.3,517.21v69.08c17.49,0,34.01.92,50.36-.31,12.05-.9,18.89-9.49,19.84-21.48.68-8.58.7-17.31-.08-25.87-1.16-12.79-7.82-21.13-21.65-21.36-15.26-.25-30.53-.06-48.47-.06Z"/>
  <path class="cls-1" d="M2105.95,611.15c32.74,14.62,43.1,40.82,41.56,74.72-1.42,31.2-.3,62.52-.3,95.13h-77.9v-64.37c0-11.36.03-22.73,0-34.09-.09-28.28-6.57-34.88-35.58-35.54-14.56-.33-29.12-.06-45.88-.06v133.75h-77.17v-324.53c3.37-1.11,6.44-3.02,9.49-2.98,49.59.63,99.29-.24,148.74,2.86,44.36,2.78,65.83,28.53,66.21,72.44.05,6.02.01,12.03.01,18.05-.01,36.68-2.06,41.3-29.18,64.62ZM1988.48,587.78c18.99-.99,35.57-1.31,52.02-2.92,10.45-1.03,17.92-7.58,16.96-18.6-1.37-15.79,7.62-33.71-8.49-46.73-1.9-1.54-4.97-2.27-7.51-2.3-17.2-.2-34.4-.1-52.98-.1v70.66Z"/>
  <path class="cls-1" d="M3223.92,647.6v133.13h-77.07v-324.54c3.87-1.11,7.58-3.14,11.27-3.09,48.88.69,97.85.15,146.62,3.02,44.19,2.6,66.29,28.39,66.57,71.89.05,7.35-.55,14.74.11,22.03,2.33,25.46-5.06,46.22-30.63,60.15,34.6,16.17,44.9,42.84,42.97,77.33-1.71,30.52-.36,61.21-.36,93.34h-75.52c-.54-6.65-1.53-13.62-1.58-20.59-.21-27.38.17-54.77-.23-82.15-.31-21.27-5.88-28.42-26.39-30.2-17.73-1.54-35.7-.32-55.75-.32ZM3225.11,517.17v68.62c17.67,0,33.53.61,49.31-.2,12.16-.62,20.03-8.12,20.74-20.28.91-15.46,5.51-32.14-8.65-44.69-2.27-2.01-6.04-3.24-9.14-3.3-17.12-.31-34.25-.15-52.25-.15Z"/>
  <path class="cls-1" d="M3993.67,617.47c0-20.71.98-41.48-.19-62.12-2.97-51.98,29.74-88.23,77.17-100.46,35.22-9.08,70.39-9.19,105.17,1.16,48.07,14.3,73.03,48.05,73.26,97.78.18,40.75-1.1,81.55.31,122.26,2.1,60.37-31.87,99.17-90.6,107.98-27.88,4.18-57.83,2.71-85.66-2.48-50.13-9.34-82.59-48.43-79.66-99.98,1.21-21.31.2-42.75.2-64.13ZM4070.9,617.87h-.05c0,18-.07,35.99.01,53.99.15,32.8,10.45,44.32,43.3,47.17,7.86.68,16.03-.36,23.86-1.73,22.82-3.99,33.05-14.75,33.45-37.64.71-40.65.67-81.32.1-121.97-.32-22.7-10.5-35.18-32.7-38.48-12.9-1.92-26.79-1.32-39.6,1.25-19.81,3.97-27.84,15.08-28.28,35.42-.45,20.65-.1,41.32-.1,61.99Z"/>
  <path class="cls-1" d="M3678.26,618.63c0,19.38-.59,38.77.11,58.12,2.39,66.67-38.19,99.78-89.08,106.96-29.86,4.22-61.97,2.96-91.52-3.2-49.21-10.26-75.39-47.58-75.49-97.54-.09-42.09-.04-84.19-.01-126.28.04-54.26,25.56-87.81,78.24-101.8,38.57-10.25,77.13-9.65,114.53,4.76,39.44,15.19,61.35,44.21,62.86,86.82.85,24.02.15,48.1.15,72.15.07,0,.14,0,.21,0ZM3499.79,617.25c0,20.01-.18,40.03.05,60.04.28,24.39,9.41,36.05,33.13,39.82,10.99,1.75,22.68,1.63,33.72.07,22.75-3.22,32.94-12.08,33.84-34.95,1.68-42.58,1.6-85.31.1-127.9-.76-21.47-12.77-32.94-33.86-35.66-12.34-1.59-25.52-.91-37.73,1.59-20.41,4.17-28.85,15.87-29.17,36.96-.3,20.01-.07,40.03-.07,60.04Z"/>
  <path class="cls-1" d="M739.21,454.45h76.11c0,8.85,0,16.06,0,23.27,0,67.52-1.2,135.06.33,202.55,1.61,71.08-48.96,102.86-99.38,105.58-24.51,1.32-49.92.72-73.82-4.26-47.28-9.86-74.74-42.85-75.66-90.71-1.45-75.51-.52-151.07-.51-226.6,0-2.59.91-5.18,1.74-9.58h72.94c.43,7.79,1.16,14.89,1.17,22,.09,60.16,0,120.33.12,180.49.02,7.99,1,15.97,1.35,23.97.74,16.72,6.22,30.78,24.14,34.95,21.22,4.94,44.34,8.4,60.43-9.2,7.85-8.58,10.36-24.46,10.57-37.11,1.02-62.82.47-125.67.47-188.51,0-8.49,0-16.98,0-26.84Z"/>
  <path class="cls-1" d="M1647.83,780.6v-326.18h206.69v66.18h-128.58v57.62h117.82v68.76h-118.84v65.85h129.33v67.76h-206.43Z"/>
  <path class="cls-1" d="M2720.99,781.51h-76.72c-21.95-81.68-43.81-163.01-65.67-244.35-1.31,0-2.61,0-3.92,0-21.83,81.28-43.65,162.55-65.61,244.31h-76.8c.59-5.27.49-9.71,1.65-13.81,27.82-98.79,56.05-197.46,83.4-296.37,3.95-14.29,10.62-19.35,25.18-18.74,24.08,1.01,48.24.49,72.37.19,9.72-.12,16.29,1.98,19.3,12.77,28.85,103.35,58.1,206.59,87.17,309.88.34,1.2-.12,2.61-.35,6.12Z"/>
  <path class="cls-1" d="M4352.02,780.54v-258.78h-86.71v-67.1h250.53v66.78h-85.19v259.11h-78.63Z"/>
  <path class="cls-1" d="M2752.12,781.13v-326.7h75.18v259.3h128.95v67.39h-204.13Z"/>
  <polygon class="cls-1" points="870.89 452.92 870.89 781.69 941.6 781.69 941.6 574.88 1047.65 781.69 1139.57 781.69 1139.57 456.46 1068.86 456.46 1068.86 679.17 964.58 454.69 870.89 452.92"/>
  <rect class="cls-1" x="1199.67" y="452.92" width="72.47" height="327"/>
  <path class="cls-1" d="M1314.56,451.15h83.08l65.4,266.91s58.33-263.37,67.17-263.37h76.01l-91.91,327h-104.29l-95.45-330.54Z"/>
  <g>
    <path class="cls-2" d="M124.91,415.56c27.31,4.23,54.94,3.92,81.24-6.81,33.99-13.86,51.73-39.48,52.22-75.91.65-48.11.27-96.24.35-144.35.01-8.02-.06-16.04.19-24.06,1.22-39.74,13.69-50.87,53.57-47.94,24.37,1.79,38.31,19.41,31.54,42.62-3.47,11.89-10.47,22.96-17.07,33.67-5.94,9.63-13.98,17.95-20.29,27.39-31.38,46.89-25.6,85.69,15.35,124.93,35.19,33.73,68.44,69.46,103.68,105.46-4.81.42-9.5,1.13-14.18,1.36H40.05c-4.31-.15-8.21-.52-11.74-1.14,0-.01-.03-.01-.05-.01-12.78-3.25-22.94-13.05-26.69-25.62-.9-4.59-1.31-9.85-1.32-15.85-.13-122.3-.15-244.6.02-366.9.01-8.66,1.3-16,3.83-21.95,0-.02.01-.03.02-.04,3.31-6.43,8.4-11.78,14.64-15.39.01,0,.02-.01.02-.01,7.46-3.31,17.09-3.87,28.78-1.47v22.94c0,98.9,1.56,197.84-.61,296.7-1.21,54.77,31.26,85.16,77.96,92.38Z"/>
    <path class="cls-2" d="M0,414.39V37.54c0-6.16,1.48-11.97,4.1-17.09C1.57,26.4.28,33.74.27,42.4c-.17,122.3-.15,244.6-.02,366.9.01,6,.42,11.26,1.32,15.85-1.02-3.41-1.57-7.02-1.57-10.76Z"/>
    <path class="cls-2" d="M193.06,317.61c.9,37.24-23.54,44.36-51.24,40.71-19.31-2.54-28.1-11.65-28.18-30.38-.44-105.56-.27-211.12-.21-316.68,0-2.55,1.1-5.1,2.07-9.33,5.69-.57,11.47-1.64,17.26-1.64,92.55-.11,185.1-.23,277.65.03,10.21.03,18.6,1.75,25.16,5.25h.01c5.79,3.56,10.53,8.65,13.67,14.71,2.64,5.86,3.99,13.06,4.03,21.65.07,13.48.12,26.96.17,40.44v274.95c0,3.77-.01,7.55-.01,11.32,0,2.46-.97,4.92-2.13,10.43-31.48-30.89-61.03-58.95-89.39-88.16-12.27-12.64-11.34-25.77-.3-42.02,11.27-16.59,22.71-33.08,34.37-49.41,16.67-23.35,19.15-49.7,15-76.69-3.32-21.55-15.71-38.61-34.91-49.05-45.49-24.74-92.66-25.49-138.97-3.58-29.73,14.06-44.14,40.17-44.31,73.08-.31,58.13-1.14,116.28.26,174.37Z"/>
    <path class="cls-2" d="M113.43,0h302.48c7.21,0,13.94,2.03,19.66,5.57-6.56-3.5-14.95-5.22-25.16-5.25-92.55-.26-185.1-.14-277.65-.03-5.79,0-11.57,1.07-17.26,1.64-.97,4.23-2.07,6.78-2.07,9.33V0Z"/>
    <path class="cls-2" d="M47.56,3.54c-11.69-2.4-21.32-1.84-28.78,1.47C24.29,1.83,30.7,0,37.53,0h10.03v3.54Z"/>
    <path class="cls-2" d="M415.91,451.92h-4.4c4.68-.23,9.37-.94,14.18-1.36l.06.06c-3.13.85-6.43,1.3-9.84,1.3Z"/>
    <path class="cls-3" d="M376.08,73.74c19.2,10.44,31.59,27.5,34.91,49.05,4.15,26.99,1.67,53.34-15,76.69-11.66,16.33-23.1,32.82-34.37,49.41-11.04,16.25-11.97,29.38.3,42.02,28.36,29.21,57.91,57.27,89.39,88.16l2.14,2.2v33.12c0,17.32-11.74,31.9-27.7,36.23l-.06-.06c-35.24-36-68.49-71.73-103.68-105.46-40.95-39.24-46.73-78.04-15.35-124.93,6.31-9.44,14.35-17.76,20.29-27.39,6.6-10.71,13.6-21.78,17.07-33.67,6.77-23.21-7.17-40.83-31.54-42.62-39.88-2.93-52.35,8.2-53.57,47.94-.25,8.02-.18,16.04-.19,24.06-.08,48.11.3,96.24-.35,144.35-.49,36.43-18.23,62.05-52.22,75.91-26.3,10.73-53.93,11.04-81.24,6.81-46.7-7.22-79.17-37.61-77.96-92.38,2.17-98.86.61-197.8.61-296.7V0h65.87v11.26c-.06,105.56-.23,211.12.21,316.68.08,18.73,8.87,27.84,28.18,30.38,27.7,3.65,52.14-3.47,51.24-40.71-1.4-58.09-.57-116.24-.26-174.37.17-32.91,14.58-59.02,44.31-73.08,46.31-21.91,93.48-21.16,138.97,3.58Z"/>
    <path class="cls-2" d="M453.45,37.54v44.83c-.05-13.48-.1-26.96-.17-40.44-.04-8.59-1.39-15.79-4.03-21.65,2.69,5.16,4.2,11.03,4.2,17.26Z"/>
    <path class="cls-2" d="M453.45,82.37c.29,91.64.08,183.29,0,274.95V82.37Z"/>
    <path class="cls-2" d="M453.45,357.32v23.95l-2.14-2.2c1.16-5.51,2.13-7.97,2.13-10.43,0-3.77.01-7.55.01-11.32Z"/>
    <path class="cls-2" d="M435.58,5.57c6.17,3.3,10.73,8.17,13.67,14.71-3.14-6.06-7.88-11.15-13.67-14.71Z"/>
    <path class="cls-2" d="M40.05,451.92h371.46c-.91.04-1.81.07-2.72.07-121.42.08-242.85.12-364.27.01-1.54,0-3.03-.03-4.47-.08Z"/>
    <path class="cls-3" d="M40.05,451.92h-2.52c-3.18,0-6.27-.4-9.22-1.14,3.53.62,7.43.99,11.74,1.14Z"/>
    <path class="cls-2" d="M18.76,5.02c-6.24,3.61-11.33,8.96-14.64,15.39,3.08-7.24,7.99-12.42,14.64-15.39Z"/>
    <path class="cls-2" d="M1.57,425.15c3.75,12.57,13.91,22.37,26.69,25.62-15.65-2.8-23.76-10.55-26.69-25.62Z"/>
  </g>
</svg>