<svg width="38" height="37" viewBox="0 0 38 37" fill="none" xmlns="http://www.w3.org/2000/svg">
<path d="M19 0C8.52303 0 0 8.29892 0 18.4997C0 28.7007 8.52303 37 19 37C29.4763 37 38 28.7007 38 18.4997C38 8.29892 29.4763 0 19 0ZM24.3699 11.6785C24.3699 11.7661 24.3342 11.8501 24.2706 11.912C24.207 11.974 24.1207 12.0088 24.0307 12.0088L21.8709 12.0101C20.4458 12.0101 20.1853 12.5504 20.1853 13.6146V15.8223H23.8896C23.9869 15.8223 24.0799 15.8633 24.144 15.9346C24.2081 16.006 24.238 16.1008 24.2261 16.1949L23.6986 20.1693C23.6881 20.2489 23.6481 20.3221 23.5861 20.3751C23.5242 20.4281 23.4446 20.4573 23.3621 20.4573H20.1853V30.3261C20.1853 30.4137 20.1495 30.4977 20.0859 30.5597C20.0223 30.6216 19.936 30.6564 19.846 30.6564H15.6315C15.5415 30.6564 15.4552 30.6216 15.3916 30.5597C15.328 30.4977 15.2923 30.4137 15.2923 30.3261V20.4573H12.1052C12.0153 20.4573 11.929 20.4225 11.8654 20.3606C11.8018 20.2986 11.766 20.2146 11.766 20.127V16.1526C11.766 16.065 11.8018 15.981 11.8654 15.9191C11.929 15.8571 12.0153 15.8223 12.1052 15.8223H15.2923V13.2213C15.2923 9.77632 17.4335 7.63669 20.881 7.63669C22.3631 7.63669 23.6728 7.74403 24.0751 7.79589C24.1567 7.80638 24.2315 7.84536 24.2858 7.90557C24.34 7.96578 24.3699 8.04313 24.3699 8.12321V11.6785Z" fill="white"/>
</svg>
