<svg width="39" height="40" viewBox="0 0 39 40" fill="none" xmlns="http://www.w3.org/2000/svg">
<path d="M27.2947 14.0491C27.1262 13.6129 26.8683 13.2167 26.5374 12.8862C26.2065 12.5557 25.8101 12.2981 25.3737 12.1301C24.7727 11.9076 24.1379 11.7899 23.4971 11.7823C22.4315 11.7338 22.112 11.7217 19.4124 11.7217C16.7129 11.7217 16.3934 11.7338 15.3277 11.7823C14.6862 11.7897 14.0508 11.9073 13.4492 12.1301C13.0129 12.2986 12.6167 12.5566 12.2862 12.8874C11.9557 13.2183 11.6982 13.6147 11.5302 14.0512C11.3076 14.6521 11.1899 15.2869 11.1824 15.9277C11.1338 16.9934 11.1217 17.3129 11.1217 20.0124C11.1217 22.7119 11.1338 23.0314 11.1824 24.0971C11.1897 24.7386 11.3074 25.3741 11.5302 25.9757C11.6986 26.4119 11.9566 26.8081 12.2875 27.1386C12.6183 27.4691 13.0147 27.7267 13.4512 27.8947C14.0522 28.1172 14.6869 28.2349 15.3277 28.2425C16.3934 28.291 16.7129 28.3031 19.4124 28.3031C22.112 28.3031 22.4315 28.291 23.4971 28.2425C24.1386 28.2351 24.7741 28.1175 25.3757 27.8947C25.812 27.7262 26.2081 27.4682 26.5386 27.1374C26.8691 26.8065 27.1267 26.4101 27.2947 25.9736C27.5173 25.3727 27.6349 24.7379 27.6425 24.0971C27.691 23.0314 27.7032 22.7119 27.7032 20.0124C27.7032 17.3129 27.691 16.9934 27.6425 15.9277C27.6351 15.2862 27.5175 14.6508 27.2947 14.0491ZM19.4124 25.2052C18.3854 25.2052 17.3814 24.9007 16.5274 24.3301C15.6735 23.7595 15.0079 22.9485 14.6149 21.9996C14.2219 21.0507 14.119 20.0066 14.3194 18.9993C14.5197 17.992 15.0143 17.0668 15.7405 16.3405C16.4668 15.6143 17.392 15.1197 18.3994 14.9194C19.4067 14.719 20.4508 14.8218 21.3996 15.2149C22.3485 15.6079 23.1595 16.2735 23.7301 17.1274C24.3007 17.9814 24.6053 18.9854 24.6053 20.0124C24.6053 21.3896 24.0582 22.7104 23.0843 23.6843C22.1105 24.6581 20.7897 25.2052 19.4124 25.2052ZM24.8095 15.8286C24.5695 15.8286 24.3349 15.7575 24.1354 15.6241C23.9359 15.4908 23.7804 15.3013 23.6886 15.0796C23.5967 14.8579 23.5727 14.614 23.6195 14.3786C23.6663 14.1433 23.7819 13.9271 23.9516 13.7574C24.1213 13.5877 24.3374 13.4722 24.5728 13.4254C24.8081 13.3786 25.0521 13.4026 25.2738 13.4944C25.4955 13.5863 25.685 13.7418 25.8183 13.9413C25.9516 14.1408 26.0228 14.3754 26.0228 14.6153C26.0228 14.9371 25.8949 15.2457 25.6674 15.4733C25.4399 15.7008 25.1313 15.8286 24.8095 15.8286Z" fill="white"/>
<path d="M19.4125 23.3834C21.2741 23.3834 22.7833 21.8742 22.7833 20.0125C22.7833 18.1508 21.2741 16.6416 19.4125 16.6416C17.5508 16.6416 16.0416 18.1508 16.0416 20.0125C16.0416 21.8742 17.5508 23.3834 19.4125 23.3834Z" fill="white"/>
<path d="M19.4124 0.599609C15.573 0.599609 11.8198 1.73813 8.62747 3.87119C5.43511 6.00426 2.94697 9.03606 1.47769 12.5832C0.00841106 16.1304 -0.37602 20.0336 0.373013 23.7992C1.12205 27.5649 2.9709 31.0238 5.68578 33.7387C8.40065 36.4536 11.8596 38.3024 15.6253 39.0515C19.3909 39.8005 23.2941 39.4161 26.8412 37.9468C30.3884 36.4775 33.4202 33.9894 35.5533 30.797C37.6863 27.6046 38.8249 23.8515 38.8249 20.012C38.8249 14.8635 36.7796 9.92591 33.1391 6.28538C29.4986 2.64484 24.5609 0.599609 19.4124 0.599609ZM29.4624 24.1817C29.4451 25.02 29.2858 25.8494 28.9913 26.6345C28.7316 27.306 28.3344 27.9158 27.8253 28.4249C27.3162 28.934 26.7064 29.3312 26.0349 29.5909C25.2498 29.8854 24.4204 30.0447 23.5821 30.062C22.5022 30.1105 22.1585 30.1227 19.4124 30.1227C16.6664 30.1227 16.3226 30.1105 15.2428 30.062C14.4044 30.0447 13.5751 29.8854 12.79 29.5909C12.1185 29.3312 11.5086 28.934 10.9995 28.4249C10.4904 27.9158 10.0933 27.306 9.83362 26.6345C9.53911 25.8494 9.37981 25.02 9.36246 24.1817C9.31393 23.1018 9.3018 22.7581 9.3018 20.012C9.3018 17.266 9.31393 16.9222 9.36246 15.8424C9.37981 15.004 9.53911 14.1747 9.83362 13.3896C10.0933 12.7181 10.4904 12.1082 10.9995 11.5991C11.5086 11.09 12.1185 10.6929 12.79 10.4332C13.5751 10.1387 14.4044 9.97941 15.2428 9.96206C16.3226 9.91353 16.6664 9.9014 19.4124 9.9014C22.1585 9.9014 22.5022 9.91353 23.5821 9.96206C24.4204 9.97941 25.2498 10.1387 26.0349 10.4332C26.7064 10.6929 27.3162 11.09 27.8253 11.5991C28.3344 12.1082 28.7316 12.7181 28.9913 13.3896C29.2858 14.1747 29.4451 15.004 29.4624 15.8424C29.5109 16.9222 29.5231 17.266 29.5231 20.012C29.5231 22.7581 29.5109 23.1018 29.4624 24.1817Z" fill="white"/>
</svg>
