<svg width="37" height="37" viewBox="0 0 37 37" fill="none" xmlns="http://www.w3.org/2000/svg">
<path d="M20.3431 16.3652H20.3715V16.3207L20.3431 16.3652ZM20.3431 16.3652H20.3715V16.3207L20.3431 16.3652ZM20.3431 16.3652H20.3715V16.3207L20.3431 16.3652ZM20.3431 16.3652H20.3715V16.3207L20.3431 16.3652ZM20.3431 16.3652H20.3715V16.3207L20.3431 16.3652ZM20.3431 16.3652H20.3715V16.3207L20.3431 16.3652ZM20.3431 16.3652H20.3715V16.3207L20.3431 16.3652ZM20.3431 16.3652H20.3715V16.3207L20.3431 16.3652ZM20.3431 16.3652H20.3715V16.3207L20.3431 16.3652ZM20.3431 16.3652H20.3715V16.3207L20.3431 16.3652ZM20.3431 16.3652H20.3715V16.3207L20.3431 16.3652ZM20.3431 16.3652H20.3715V16.3207L20.3431 16.3652ZM20.3431 16.3652H20.3715V16.3207L20.3431 16.3652ZM20.3431 16.3652H20.3715V16.3207L20.3431 16.3652ZM20.3431 16.3652H20.3715V16.3207L20.3431 16.3652ZM20.3431 16.3652H20.3715V16.3207L20.3431 16.3652ZM18.5 0C14.8411 0 11.2643 1.08501 8.22196 3.11781C5.17965 5.15062 2.80846 8.03992 1.40824 11.4204C0.00801554 14.8008 -0.358346 18.5205 0.355481 22.1092C1.06931 25.6978 2.83126 28.9942 5.41853 31.5815C8.0058 34.1687 11.3022 35.9307 14.8908 36.6445C18.4795 37.3583 22.1992 36.992 25.5796 35.5918C28.9601 34.1915 31.8494 31.8204 33.8822 28.778C35.915 25.7357 37 22.1589 37 18.5C36.9946 13.5951 35.0438 8.89271 31.5756 5.42444C28.1073 1.95618 23.4049 0.00536109 18.5 0ZM13.874 26.8284C13.8729 26.9105 13.8396 26.9888 13.7812 27.0464C13.7228 27.104 13.6441 27.1363 13.5621 27.1363H9.99738C9.91573 27.1363 9.83742 27.1039 9.77969 27.0461C9.72195 26.9884 9.68952 26.9101 9.68952 26.8284V14.8502C9.68898 14.8095 9.69655 14.769 9.71178 14.7312C9.72701 14.6933 9.7496 14.6589 9.77824 14.6299C9.80688 14.6009 9.841 14.5779 9.87862 14.5621C9.91624 14.5464 9.95661 14.5383 9.99738 14.5383H13.5621C13.603 14.5383 13.6436 14.5464 13.6814 14.5621C13.7193 14.5777 13.7537 14.6007 13.7826 14.6297C13.8116 14.6586 13.8346 14.693 13.8503 14.7309C13.8659 14.7687 13.874 14.8093 13.874 14.8502V26.8284ZM11.6542 12.9382C11.2111 12.9382 10.778 12.8069 10.4096 12.5607C10.0412 12.3146 9.75413 11.9647 9.58458 11.5554C9.41503 11.1461 9.37067 10.6957 9.45711 10.2611C9.54354 9.8266 9.75689 9.42746 10.0702 9.11417C10.3835 8.80089 10.7826 8.58754 11.2171 8.50111C11.6517 8.41468 12.1021 8.45904 12.5114 8.62858C12.9207 8.79813 13.2706 9.08525 13.5167 9.45363C13.7629 9.82201 13.8942 10.2551 13.8942 10.6982C13.8948 10.9925 13.8372 11.284 13.7248 11.556C13.6124 11.8281 13.4474 12.0752 13.2393 12.2833C13.0312 12.4915 12.7841 12.6564 12.512 12.7688C12.24 12.8812 11.9485 12.9388 11.6542 12.9382ZM28.9592 26.8284C28.9581 26.9105 28.9248 26.9888 28.8664 27.0464C28.808 27.104 28.7293 27.1363 28.6473 27.1363H25.0826C25.0421 27.1363 25.0021 27.1283 24.9647 27.1129C24.9274 27.0974 24.8934 27.0747 24.8649 27.0461C24.8363 27.0175 24.8136 26.9836 24.7981 26.9463C24.7827 26.9089 24.7747 26.8689 24.7747 26.8284V20.3917C24.7747 18.6985 24.1711 17.5562 22.6561 17.5562C22.184 17.5588 21.7243 17.7074 21.34 17.9815C20.9556 18.2556 20.6654 18.6419 20.5092 19.0874C20.4024 19.4166 20.3558 19.7624 20.3715 20.1082V26.8284C20.3715 26.9112 20.3386 26.9905 20.2801 27.049C20.2216 27.1075 20.1423 27.1403 20.0596 27.1403H16.4949C16.4541 27.1404 16.4137 27.1323 16.3761 27.1165C16.3385 27.1008 16.3044 27.0778 16.2757 27.0488C16.2471 27.0197 16.2245 26.9853 16.2093 26.9475C16.194 26.9097 16.1865 26.8692 16.187 26.8284C16.187 25.119 16.2316 16.8189 16.187 14.8664C16.1865 14.8257 16.194 14.7852 16.2093 14.7474C16.2245 14.7096 16.2471 14.6751 16.2757 14.6461C16.3044 14.6171 16.3385 14.5941 16.3761 14.5783C16.4137 14.5626 16.4541 14.5545 16.4949 14.5545H20.0515C20.0926 14.554 20.1334 14.5617 20.1715 14.5772C20.2096 14.5926 20.2442 14.6156 20.2732 14.6447C20.3023 14.6737 20.3253 14.7083 20.3407 14.7464C20.3562 14.7845 20.3639 14.8253 20.3634 14.8664V16.3369C20.7423 15.6791 21.2941 15.1377 21.9589 14.7714C22.6238 14.405 23.3762 14.2278 24.1347 14.2588C26.8852 14.2588 28.9511 16.0574 28.9511 19.9299L28.9592 26.8284ZM20.3715 16.3774V16.3328L20.3431 16.3774H20.3715ZM20.3431 16.3774H20.3715V16.3328L20.3431 16.3774ZM20.3431 16.3774H20.3715V16.3328L20.3431 16.3774ZM20.3431 16.3774H20.3715V16.3328L20.3431 16.3774ZM20.3431 16.3774H20.3715V16.3328L20.3431 16.3774ZM20.3431 16.3774H20.3715V16.3328L20.3431 16.3774ZM20.3431 16.3774H20.3715V16.3328L20.3431 16.3774ZM20.3431 16.3774H20.3715V16.3328L20.3431 16.3774ZM20.3431 16.3774H20.3715V16.3328L20.3431 16.3774ZM20.3431 16.3774H20.3715V16.3328L20.3431 16.3774ZM20.3431 16.3774H20.3715V16.3328L20.3431 16.3774ZM20.3431 16.3774H20.3715V16.3328L20.3431 16.3774ZM20.3431 16.3774H20.3715V16.3328L20.3431 16.3774ZM20.3431 16.3774H20.3715V16.3328L20.3431 16.3774ZM20.3431 16.3774H20.3715V16.3328L20.3431 16.3774Z" fill="white"/>
</svg>
