<svg width="36" height="36" viewBox="0 0 36 36" fill="none" xmlns="http://www.w3.org/2000/svg">
<path d="M18 0C8.0595 0 0 8.05838 0 18C0 27.9405 8.0595 36 18 36C27.9405 36 36 27.9405 36 18C36 8.05838 27.9405 0 18 0ZM26.8065 14.5935C25.7535 20.5245 19.8698 25.5476 18.1013 26.6951C16.3316 27.8426 14.7173 26.2361 14.1323 25.0211C13.4618 23.6362 11.4525 16.1246 10.9271 15.5025C10.4006 14.8804 8.82225 16.1246 8.82225 16.1246L8.05725 15.12C8.05725 15.12 11.2624 11.2927 13.7014 10.8146C16.2877 10.3072 16.2844 14.7848 16.9054 17.271C17.5073 19.6763 17.9111 21.0521 18.4365 21.0521C18.9619 21.0521 19.9676 19.7111 21.0667 17.6546C22.1681 15.5959 21.0195 13.779 18.8663 15.0716C19.7269 9.90563 27.8595 8.66363 26.8065 14.5935Z" fill="white"/>
</svg>
