<svg width="36" height="36" viewBox="0 0 36 36" fill="none" xmlns="http://www.w3.org/2000/svg">
<path d="M15.5367 21.6866L21.639 18.0254L15.5367 14.3643V21.6866Z" fill="white"/>
<path d="M17.9745 0.0507812C8.04807 0.0507812 0 8.09773 0 18.0253C0 27.9528 8.04807 35.9997 17.9745 35.9997C27.9009 35.9997 35.9489 27.9517 35.9489 18.0253C35.9489 8.09885 27.9009 0.0507812 17.9745 0.0507812ZM27.7346 18.8128C27.7346 20.4979 27.5391 22.183 27.5391 22.183C27.5391 22.183 27.3482 23.6187 26.764 24.2489C26.0214 25.078 25.1901 25.0825 24.8081 25.1319C22.076 25.3409 17.9745 25.3476 17.9745 25.3476C17.9745 25.3476 12.8989 25.2982 11.3374 25.1387C10.9026 25.0521 9.92865 25.0769 9.18495 24.2489C8.59966 23.6176 8.40981 22.183 8.40981 22.183C8.40981 22.183 8.21433 20.499 8.21433 18.8128V17.2333C8.21433 15.5481 8.40981 13.8642 8.40981 13.8642C8.40981 13.8642 8.60078 12.4285 9.18495 11.796C9.92753 10.9658 10.7588 10.9613 11.1408 10.9141C13.8718 10.7029 17.97 10.7029 17.97 10.7029H17.979C17.979 10.7029 22.0771 10.7029 24.8081 10.9141C25.189 10.9613 26.0214 10.9658 26.764 11.7949C27.3493 12.4273 27.5391 13.863 27.5391 13.863C27.5391 13.863 27.7346 15.5481 27.7346 17.2333V18.8128Z" fill="white"/>
</svg>
